<svg xmlns="http://www.w3.org/2000/svg" viewBox="0 0 1200 1200"><path fill="#67AEB7" d="M53 976.611C53 1083.109 111.718 1150 211.779 1150h763.547c101.601 0 170.675-67.296 170.675-168.897V194.995C1146 116.206 1082.281 50 1003.492 50h-829.4C95.303 50 53 116.206 53 167.286v809.325zM211.435 1129C135.334 1129 74 1066.612 74 990.512V628.544c27 11.593 52.754 32.508 64.567 69.78 17.179 54.198-40.612 78.04-40.612 78.04l-2.262 41.707s89.22.85 44.297 74.214c7.667 32.095 7.638 32.095 7.638 32.095s35.952-30.269 86.423 8.566c50.457 38.835 13.618 95.965 13.618 95.965s22.917-5.472 68.349 22.444c45.439 27.925 56.374 73.774 56.374 73.774s36.318-54.2 88.418-35.638l34.733 13.519s16.1-51.372 69.987-49.179c-6.664-107.734-22.363-178.405-23.923-185.222-20.05-13.742-52.588-75.5-66.689-103.603-44.303 15.765-74.961 138.605-76.458 149.052-1.602 11.23-30.465 0-30.465 0s11.226-157.18 24.053-194.066c9.913-28.49 55.198-39.752 75.312-43.406-.039-6.848-.149-14.441-.369-23.063-2.068-81.137 7.754-186.911 47.065-295.536l-.006.002.084-.222a738.41 738.41 0 0114.471-36.809c.414-.977.841-1.953 1.26-2.931a720.38 720.38 0 016.725-15.175c.541-1.185 1.076-2.369 1.625-3.554a712.475 712.475 0 018.093-16.911c.154-.31.298-.621.452-.931a710.474 710.474 0 019.29-18.008c.622-1.165 1.275-2.326 1.904-3.49a699.126 699.126 0 017.676-13.822c1.03-1.807 2.077-3.61 3.128-5.414a689.343 689.343 0 017.425-12.436c1.057-1.732 2.098-3.466 3.175-5.195 3.558-5.714 7.19-11.415 10.96-17.09.711.972 1.399-4.082 2.077-3.082.695-.999 1.378 4.054 2.085 3.082 3.776 5.684 7.413 11.394 10.977 17.117 1.059 1.702 2.084 3.409 3.125 5.114a696.65 696.65 0 017.477 12.523 676.576 676.576 0 013.091 5.352c2.64 4.626 5.21 9.26 7.721 13.902.617 1.14.385 2.277.994 3.417.003.006-.86.012-.86.019v.01c7 5.997 7.175 12.003 10.167 18.017.142.285.711.571.852.856.014.027.245.055.258.082 0 0 .114.01.116.015 2.789 5.627 5.528 11.259 8.139 16.895.54 1.167 1.095 3.912 1.628 5.079.004.008.026 1.603.026 1.603h.011c2.314 0 4.561 8.555 6.736 13.621.403.939.816 1.09 1.214 2.029.011.024.022-.345.032-.32.011.026.021-.145.032-.119 5.206 12.275 10.024 24.445 14.456 36.679.004.012-.862-.025-.857-.013.019.053-.811.081-.811.133V358c7 6.476 5.436 12.932 7.573 19.384.195.587.825 1.17 1.017 1.756 4.327 13.166 8.461 26.265 11.979 39.265.066.245.238.488.304.733 1.68 6.231 3.322 12.436 4.827 18.615.113.463.256.927.368 1.389a802.95 802.95 0 018.224 37.988c.115.6.231 1.198.344 1.797a827.7 827.7 0 013.074 17.267c.076.455.158.912.234 1.366a829.717 829.717 0 015.435 38.667 842.806 842.806 0 011.699 15.771c.045.457.096.92.14 1.377.55 5.729 1.036 11.4 1.459 17.008.051.676.092 1.34.141 2.014.346 4.735.646 9.42.907 14.062.069 1.229.138 2.455.201 3.677.248 4.793.461 9.541.624 14.226.016.445.038.899.053 1.343.169 5.108.282 10.136.356 15.105.018 1.208.024 2.395.037 3.594.04 3.794.055 7.544.043 11.251-.004 1.331-.006 2.662-.016 3.981a809.935 809.935 0 01-.218 13.885c-.103 4.038-.19 7.838-.267 11.489-.012.584-.184 1.139-.196 1.714-.068 3.336-.342 6.561-.342 9.616v.221c0 .003.202.009.222.012 1.184.215 2.534.457 3.882.727.086.017.205.033.292.05 1.33.268 2.751.565 4.212.89.225.05.462.102.689.154 1.37.309 2.787.64 4.247 1.002l.43.103a205.38 205.38 0 015.766 1.535c1.574.443 3.166.906 4.787 1.409l.208.063a172.1 172.1 0 016.22 2.081 149.88 149.88 0 015.024 1.874c.195.077.387.161.581.239a134.28 134.28 0 014.484 1.899c.433.192.864.383 1.296.58 1.62.742 3.225 1.514 4.804 2.33.299.155.589.319.885.475a96.286 96.286 0 014.045 2.267c.363.215.729.425 1.089.645a80.974 80.974 0 014.369 2.866c.318.224.623.458.937.687a66.395 66.395 0 013.557 2.779c.254.213.517.416.766.633a55.448 55.448 0 013.658 3.482c.272.283.531.574.795.862a46.535 46.535 0 012.93 3.509c.12.161.255.312.373.475a40.153 40.153 0 013.175 5.196c.765 1.488 1.467 3.009 2.022 4.603 12.82 36.887 24.059 194.066 24.059 194.066s-28.873 11.23-30.48 0c-.048-.336-.13-.804-.237-1.366-.038-.201-.098-.476-.144-.704a91.43 91.43 0 00-.274-1.324c-.073-.337-.165-.742-.249-1.116-.106-.472-.209-.939-.332-1.47a267.2 267.2 0 00-.391-1.652 233.442 233.442 0 00-.899-3.665c-.114-.453-.227-.904-.348-1.378a406.89 406.89 0 00-.714-2.752c-.11-.419-.221-.842-.336-1.274-.277-1.045-.57-2.128-.875-3.245l-.324-1.181a549.12 549.12 0 00-1.059-3.784l-.246-.861c-.418-1.462-.85-2.957-1.307-4.502l-.08-.268c-11.892-40.184-36.44-106.247-67.984-118.25a546.393 546.393 0 01-2.548 6.466l-.075.188c-.34.847-.702 1.741-1.086 2.686l-.105.258a656.41 656.41 0 01-2.625 6.35l-.186.445a732.737 732.737 0 01-1.378 3.254l-.235.552a666.123 666.123 0 01-1.682 3.901 630.98 630.98 0 01-3.829 8.627l-.008.016a559.465 559.465 0 01-1.996 4.356l-.357.765a541.98 541.98 0 01-3.857 8.119c-.245.505-.493 1.009-.741 1.515a463.726 463.726 0 01-3.838 7.65c-.276.537-.551 1.073-.83 1.608a395.945 395.945 0 01-1.594 3.031c-.27.508-.538 1.016-.81 1.523a355.24 355.24 0 01-1.698 3.115c-.253.46-.504.923-.759 1.38a308.62 308.62 0 01-1.889 3.331c-.206.358-.409.722-.615 1.078a236.886 236.886 0 01-5.126 8.448c-.215.338-.432.659-.647.993-.64.991-1.282 1.975-1.926 2.932-.305.453-.612.887-.918 1.332-.557.81-1.114 1.613-1.673 2.393-.342.477-.684.934-1.026 1.398-.528.716-1.055 1.423-1.583 2.109-.359.465-.717.915-1.076 1.366a94.464 94.464 0 01-2.637 3.171 78.301 78.301 0 01-1.518 1.687c-.369.398-.737.793-1.105 1.172a58.87 58.87 0 01-1.514 1.495c-.362.347-.725.699-1.086 1.026-.519.47-1.036.899-1.553 1.325-.34.28-.681.575-1.019.835-.569.437-1.133.819-1.697 1.198-.282.189-.566.405-.847.579-.842.523-1.68.986-2.51 1.367-.447-.122-.968-.195-1.424-.312-14.091 93.217-16.625 169.859-16.503 214.89.418.76.812 1.52 1.177 2.28 17.808-9.026 66.241-27.203 82.437 31.709 13.064-2.802 29.21-4.192 49.48-2.503 11.61.968 21.068 5.627 28.805 12.627H211.435zm741.752-721.263l12.275 2.129 8.54-8.568 1.963 11.941 11.215 5.41-11.058 5.249-1.609 11.908-8.794-8.685-12.212 1.946 5.62-10.624-5.94-10.706zm-53.619 135.812l-5.797-3.168-5.71 3.069 1.007-6.594-4.714-4.718 6.421-.907 2.794-5.988 2.953 6.033 6.451 1.02-4.593 4.637 1.188 6.616zm-68.83-243.924l-19.54-6.785-17.041 11.732.843-20.087-16.683-11.895 20.07-5.624 6.739-19.085 11.551 16.616 20.834.093-12.925 15.895 6.152 19.14zm-433.767-.37l-5.803-3.171-5.706 3.07 1.007-6.591-4.72-4.717 6.42-.91 2.793-5.985 2.956 6.031 6.455 1.017-4.599 4.641 1.197 6.615zm-22.551 755.952c-14.362 7.178-34.717-2.397-23.945-21.558 0 0-20.359 0-20.359-14.368 0-17.96 23.952-8.382 23.952-8.382s8.385-27.543 28.737-15.567c20.353 11.973 7.179 29.937 7.179 29.937s16.661 13.827-15.564 29.938zM222.548 379.669l11.558 16.613 20.835.095-12.918 15.892 6.138 19.142-19.54-6.786-17.041 11.733.842-20.089-16.676-11.892 20.071-5.625 6.731-19.083zm207.992 654.567c6.61-2.215 14.094 2.025 17.518 9.593 2.509-.657 5.458-.42 8.237.871 5.534 2.573 8.318 8.324 6.219 12.842-2.103 4.527-8.284 6.107-13.819 3.536-.36-.165-.673-.375-1.005-.566-1.495 2.569-3.707 4.55-6.515 5.491-7.176 2.402-15.36-2.765-18.304-11.534-2.931-8.777.497-17.831 7.669-20.233zm63.587-13.284c4.947-2.34 10.504-.955 12.409 3.089 1.907 4.04-.544 9.215-5.498 11.546-4.946 2.342-10.502.955-12.407-3.083-1.914-4.046.552-9.217 5.496-11.552zm300.793 2.717c-.593 9.337-10.332 16.294-21.748 15.556-.739-.043-1.431-.203-2.139-.31-.879 5.505-3.403 10.471-7.669 14.023-10.905 9.065-28.715 5.596-39.811-7.74-11.092-13.346-11.24-31.504-.342-40.566 10.062-8.363 26.015-6.031 37.133 4.877 3.941-2.85 9.256-4.436 14.996-4.066 11.417.739 20.192 8.901 19.58 18.226zm-130.922 30.122s-2.547-7.122 6.312-9.225c4.933-1.173 6.795 6.312 6.795 6.312s7.534-2.261 8.124 3.975c.58 6.233-4.479 7.205-4.479 7.205s-1.173 4.677-5.849 3.896c-4.675-.778-4.486-5.455-.976-7.597-5.458 3.309-12.644 3.143-9.927-4.566zM1132 990.512c0 76.101-62.756 138.488-138.857 138.488H813.669c1.72-7 4.13-16.643 7.575-26.489 16.17-46.202 64.683-32.372 64.683-32.372s-11.051-7.61-1.537-35.768C871.121 827.663 1056 848.451 1132 862.754v127.758z"/><path fill="#FFF" d="M579.354 223.089c3.557-5.714 7.189-11.415 10.96-17.09-3.77 5.675-7.401 11.377-10.96 17.09zm15.121-17.09c3.776 5.684 7.414 11.394 10.977 17.117-3.564-5.723-7.201-11.433-10.977-17.117zm-25.721 34.721zm121.228 178.417zm-132.031-159.18zm120.074 119.18zM483.644 742h89.048l-4.966-57.243S579 680.234 586 679.262V516.274l-28.478 16.023 6.415-35.448-26.736-24.482 35.27-5.885L586 435.735v-89.939c-42 1.028-73.531 12.164-73.609 12.191-39.311 108.625-48.302 214.399-46.233 295.536.22 8.622.746 16.215.785 23.063 5.928-1.077 9.901-1.585 9.901-1.585s3.762 24.999 6.8 66.999zm143.204-482.027l.015.027.003.006a697.051 697.051 0 00-7.721-13.902c1.105 1.936 2.15 3.88 3.232 5.819 1.496 2.682 3.017 5.362 4.471 8.05zm-18.254-31.715c.793 1.299 1.546 2.602 2.329 3.901 1.722 2.863 3.461 5.724 5.132 8.595a696.65 696.65 0 00-7.461-12.496zm-94.463 129.509zm203.187 318.797l.004-.221-.004.221zM546.757 281.455zm91.283.014a707.89 707.89 0 00-9.294-18.017c1.596 2.991 3.089 5.991 4.635 8.986 1.551 3.01 3.16 6.016 4.659 9.031zm-99.828 17.829zm-8.35 18.729zm138.152 32.734c.876 2.344 1.807 4.69 2.655 7.031a738.462 738.462 0 00-14.456-36.778c.209.491.395.983.602 1.475 3.976 9.434 7.682 18.86 11.199 28.272zm49.589 254.945zm-.677-15.569zm-61.989-272.09a722.36 722.36 0 00-6.734-15.196c1.69 3.698 3.301 7.395 4.916 11.093.597 1.368 1.231 2.736 1.818 4.103zm63.059 306.358zm-.459 40.607c-.013.582-.023 1.141-.035 1.714l.035-1.714zm-1.719-92.615zm2.205 67.241zm-3.806-86.263zm-19.122-114.233zm-17.652-61.753c-2.137-6.451-4.36-13.389-6.704-19.389h-.001c2.343 6 4.567 12.939 6.705 19.389zm26.2 101.539zm3.302 18.632zm-60.357-198.242a711.111 711.111 0 00-8.085-16.895c1.915 3.864 3.725 7.734 5.551 11.602.836 1.764 1.716 3.527 2.534 5.293zm65.791 236.91z"/><path fill="#E2583D" d="M654.938 318.051c.402.938.812 1.878 1.211 2.813-.398-.939-.81-1.877-1.213-2.816-.587-1.368-1.221-2.735-1.818-4.103.599 1.368 1.233 2.737 1.82 4.106zm13.076 32.71c-3.517-9.413-7.223-18.838-11.198-28.272 3.975 9.436 7.677 18.86 11.198 28.272zm-21.434-51.459c.545 1.171 1.073 2.347 1.609 3.517-.533-1.167-1.06-2.334-1.601-3.501-.818-1.765-1.698-3.528-2.534-5.293.831 1.759 1.71 3.516 2.526 5.277zm-17.849-35.879c-.609-1.141-1.248-2.277-1.865-3.417l-.002-.004c.615 1.139 1.256 2.279 1.867 3.421zm9.299 18.027c.147.292.283.584.426.875-.141-.285-.274-.571-.416-.856-1.499-3.014-3.108-6.021-4.659-9.031 1.55 3.004 3.152 6.003 4.649 9.012zM586 207.541c7-.513 2.312-1.031 2.651-1.542-3.77 5.675-6.571 11.376-10.128 17.09-1.077 1.729-1.702 3.463-2.759 5.195-2.526 4.138-4.798 8.283-7.217 12.436-1.05 1.804-1.993 3.607-3.024 5.414-2.623 4.6-5.129 9.208-7.624 13.822a623.349 623.349 0 00-1.878 3.49 708.205 708.205 0 00-9.277 18.008c-.154.31-.292.621-.446.931a716.262 716.262 0 00-8.09 16.911c-.549 1.185-1.082 2.369-1.623 3.554a723.216 723.216 0 00-6.724 15.175c-.419.978-.846 1.954-1.26 2.931-5.209 12.285-10.033 26.071-14.471 38.315-.027.074-.057 1.727-.083 1.727h-1.61c.079 0 31.563-14.176 73.563-15.205V207.541zm30.038 33.186c1.048 1.8 2.093 3.6 3.122 5.404 1.1 1.928 2.14 3.862 3.217 5.792-1.081-1.939-2.127-3.882-3.232-5.819a695.046 695.046 0 00-3.091-5.352c-1.671-2.87-3.409-5.731-5.132-8.595 1.72 2.855 3.449 5.706 5.116 8.57zM606 228.245v-.011c0-1.71-.779-3.417-1.838-5.119-3.563-5.722-6.556-11.433-10.332-17.117 3.774 5.682 6.438 11.388 9.999 17.106 1.065 1.713 2.171 3.428 2.171 5.141z"/><path fill="#192D37" d="M700.633 789.309zm-12.338 26.546c-.258.518-.519 1.035-.78 1.554.262-.519.521-1.035.78-1.554zm-7.244 13.838c-.253.46-.504.923-.759 1.38.255-.457.506-.919.759-1.38zm23.038-48.479l-.186.445.186-.445zm-1.565 3.7l-.235.552.235-.552zm-18.965 40.142c-.27.508-.539 1.017-.81 1.523.272-.506.54-1.014.81-1.523zm9.149-18.277c-.203.429-.41.861-.616 1.291.206-.43.413-.862.616-1.291zm-14.305 27.625c-.206.358-.409.722-.615 1.078.206-.355.41-.719.615-1.078zm7.581-13.988c-.276.537-.551 1.073-.83 1.608.278-.535.554-1.071.83-1.608zm10.795-22.422l-.008.016.008-.016zm-2.003 4.373l-.357.765.357-.765zm-4.214 8.885zm-28.285 47.085zm5.221-6.757c-.342.476-.684.935-1.026 1.398.342-.464.684-.921 1.026-1.398zm-7.84 9.731zm-2.618 2.666c-.362.347-.725.7-1.086 1.026.361-.327.724-.678 1.086-1.026zm-5.356 4.384c-.282.189-.566.405-.847.579.281-.174.565-.389.847-.579zm2.716-2.033c-.34.28-.681.575-1.019.835.338-.26.679-.555 1.019-.835zm10.489-11.241zm41.93-80.482l-.105.258.105-.258zm-1.252 3.056l-.224.543.224-.543zm-32.905 66.27c-.215.337-.432.659-.647.993.215-.334.432-.656.647-.993zm35.318-72.199l-.075.188c.024-.063.05-.126.075-.188zm-37.891 76.123c-.305.453-.612.888-.918 1.332.306-.444.612-.878.918-1.332zm-50.818 18.415c-.469-.023-.944-.028-1.415-.048.47.02.947.026 1.415.048zm20.934 2.259c-.813-.147-1.645-.275-2.477-.407.832.132 1.666.261 2.477.407zm-60.323-1.566l3.976 69.014 18.012-.711-15.87.513V679.263c-7 .972-18.274 5.495-18.274 5.495L572.692 742h-89.048c-3.038-42-6.593-66.999-6.593-66.999s-3.765.466-9.693 1.543c-20.115 3.654-65.399 14.937-75.312 43.428-12.827 36.887-24.053 194.077-24.053 194.077s28.864 11.236 30.465.005c1.497-10.447 32.155-133.284 76.458-149.049 14.102 28.103 46.639 89.862 66.689 103.604 1.337.916 2.636 1.685 3.852 2.15 4.481-.778 17.932-2.635 34.425-3.796zm51.039.246c-.775-.085-1.531-.183-2.317-.258.785.074 1.544.172 2.317.258z"/><path fill="#E2583D" d="M572.68 466.483l-35.894 5.884 27.567 24.483-7.038 35.447L586 516.274v-80.539z"/><path fill="#192D37" d="M753.562 686.703zm-11.825-4.195zm6.219 2.081zm32.188 204.558l-.246-.861.246.861zm-49.167-209.646zm47.614 204.284zm-57.155-206.433zm-4.055-.776zm19.361 4.46zm-10.434-2.64zm61.242 31.797zm-1.224 203.865zm4.398-198.668c.765 1.488 1.467 3.009 2.022 4.603-.554-1.595-1.256-3.115-2.022-4.603zm-6.477-9.181zm.452 200.217c-.115-.483-.226-.951-.353-1.47.126.516.239.99.353 1.47zm-25.357-217.243zm26.08 220.365c-.106-.475-.208-.935-.332-1.47.123.531.227.998.332 1.47zm.523 2.441c-.084-.414-.166-.822-.274-1.324.108.501.191.911.274 1.324zm-6.151-210.124zm-14.763-9.877zm5.134 2.912zm11.363 199.212c-.106-.391-.214-.782-.324-1.181l.324 1.181zm2.272 8.649c-.114-.456-.226-.9-.348-1.378.121.474.234.925.348 1.378zm-8.33-204.308zm7.269 200.178c-.111-.421-.22-.839-.336-1.274l.336 1.274zm-174.453-32.662a96147.359 96147.359 0 01-4.634 67.564c.464-6.713 2.308-32.533 4.633-67.533h1.258c-.421 0-.836-.028-1.257-.031z"/><path fill="#FFF" d="M382.805 995.332c-20.352-11.976-28.737 15.567-28.737 15.567s-23.952-9.578-23.952 8.382c0 14.368 20.359 14.368 20.359 14.368-10.772 19.161 9.583 28.737 23.945 21.558 32.224-16.111 15.563-29.938 15.563-29.938s13.174-17.965-7.178-29.937zm292.096 70.622c4.676.781 5.849-3.896 5.849-3.896s5.059-.972 4.479-7.205c-.59-6.236-8.124-3.975-8.124-3.975s-1.863-7.485-6.795-6.312c-8.859 2.103-6.312 9.225-6.312 9.225-2.717 7.709 4.469 7.875 9.927 4.567-3.51 2.141-3.699 6.818.976 7.596zm-173.863-30.367c4.954-2.331 7.406-7.506 5.498-11.546-1.905-4.044-7.462-5.429-12.409-3.089-4.945 2.335-7.41 7.506-5.496 11.552 1.905 4.038 7.461 5.425 12.407 3.083zm-59.862 30.415c2.808-.941 5.02-2.922 6.515-5.491.331.191.644.401 1.005.566 5.535 2.571 11.715.991 13.819-3.536 2.099-4.517-.685-10.268-6.219-12.842-2.779-1.291-5.727-1.529-8.237-.871-3.423-7.568-10.907-11.808-17.518-9.593-7.172 2.402-10.6 11.457-7.669 20.233 2.944 8.77 11.127 13.936 18.304 11.534zm334.164-60.558c-5.739-.37-11.054 1.216-14.996 4.066-11.118-10.908-27.07-13.24-37.133-4.877-10.898 9.062-10.75 27.22.342 40.566 11.096 13.336 28.906 16.805 39.811 7.74 4.266-3.552 6.79-8.518 7.669-14.023.708.107 1.401.267 2.139.31 11.416.738 21.155-6.219 21.748-15.556.612-9.326-8.163-17.488-19.58-18.226zm109.05 28.911c-9.514 28.159 1.66 35.753 1.66 35.753s-48.575-13.799-64.745 32.403c-3.445 9.845-5.917 19.489-7.637 26.489h179.475c76.101 0 138.857-62.388 138.857-138.488V862.754c-76-14.303-260.879-35.106-247.61 171.601z"/><path fill="#FFF" d="M792.299 1129c-7.737-7-17.195-11.66-28.805-12.627-20.271-1.69-36.417-.269-49.48 2.533-16.196-58.913-64.629-40.75-82.437-31.725a45.935 45.935 0 00-1.177-2.287c-.122-45.031 2.412-121.677 16.503-214.894a96.241 96.241 0 00-6.697-1.468c-.811-.147-1.646-.276-2.477-.408a142.578 142.578 0 00-6.808-.914c-.774-.085-1.532-.184-2.317-.259a198.637 198.637 0 00-9.334-.68c-.468-.023-.945-.031-1.415-.05-2.753-.117-5.529-.22-8.314-.22h-1.258c-2.325 35-4.169 60.821-4.633 67.534l-.12 1.732-19.674.711-3.976-69.014c-16.493 1.161-29.944 3.019-34.424 3.796-1.217-.464-2.515-1.233-3.852-2.149 1.559 6.817 17.259 77.488 23.922 185.222-53.887-2.193-69.988 49.179-69.988 49.179l-34.733-13.519c-52.1-18.562-88.419 35.638-88.419 35.638s-10.936-45.849-56.375-73.774c-45.431-27.915-68.352-22.444-68.352-22.444s36.833-57.13-13.625-95.965c-50.471-38.836-86.437-8.566-86.437-8.566l-7.667-32.095c44.923-73.364-44.355-74.214-44.355-74.214l2.146-41.707s58.024-23.842 40.845-78.04C126.754 661.052 101 640.137 74 628.544v361.967C74 1066.612 135.334 1129 211.435 1129h580.864z"/><path fill="#67AEB7" d="M677.443 377.378c.194.587.39 1.173.583 1.759-.193-.586-.389-1.172-.583-1.759z"/><path opacity=".2" fill="#211915" d="M677.443 377.378c.194.587.39 1.173.583 1.759-.193-.586-.389-1.172-.583-1.759z"/><path fill="#67AEB7" d="M706.714 496.195c.076.454.157.912.232 1.366-.076-.454-.156-.911-.232-1.366z"/><path opacity=".2" fill="#211915" d="M706.714 496.195c.076.454.157.912.232 1.366-.076-.454-.156-.911-.232-1.366z"/><path fill="#67AEB7" d="M689.787 418.403l.195.734-.195-.734z"/><path opacity=".2" fill="#211915" d="M689.787 418.403l.195.734-.195-.734z"/><path fill="#67AEB7" d="M694.754 437.753c.113.463.229.927.341 1.39-.112-.464-.228-.927-.341-1.39z"/><path opacity=".2" fill="#211915" d="M694.754 437.753c.113.463.229.927.341 1.39-.112-.464-.228-.927-.341-1.39z"/><path fill="#67AEB7" d="M785.09 908.078c-.119-.513-.256-1.086-.391-1.652.135.565.273 1.139.391 1.652z"/><path opacity=".2" fill="#211915" d="M785.09 908.078c-.119-.513-.256-1.086-.391-1.652.135.565.273 1.139.391 1.652z"/><path fill="#67AEB7" d="M717.55 604.363c.015.445.038.899.053 1.343-.015-.444-.038-.899-.053-1.343z"/><path opacity=".2" fill="#211915" d="M717.55 604.363c.015.445.038.899.053 1.343-.015-.444-.038-.899-.053-1.343z"/><path fill="#67AEB7" d="M714.077 551.999c.045.457.096.92.14 1.377-.044-.457-.095-.92-.14-1.377z"/><path opacity=".2" fill="#211915" d="M714.077 551.999c.045.457.096.92.14 1.377-.044-.457-.095-.92-.14-1.377z"/><path fill="#67AEB7" d="M716.725 586.459c.069 1.228.138 2.456.201 3.677-.063-1.222-.132-2.448-.201-3.677z"/><path opacity=".2" fill="#211915" d="M716.725 586.459c.069 1.228.138 2.456.201 3.677-.063-1.222-.132-2.448-.201-3.677z"/><path fill="#67AEB7" d="M715.677 570.384c.051.676.092 1.34.141 2.014-.05-.675-.09-1.339-.141-2.014z"/><path opacity=".2" fill="#211915" d="M715.677 570.384c.051.676.092 1.34.141 2.014-.05-.675-.09-1.339-.141-2.014z"/><path fill="#67AEB7" d="M656.214 321.015l-.032-.078-.032-.073.032.08.032.071z"/><path opacity=".2" fill="#211915" d="M656.214 321.015l-.032-.078-.032-.073.032.08.032.071z"/><path fill="#67AEB7" d="M717.959 620.811c.018 1.207.024 2.395.037 3.594-.012-1.199-.019-2.386-.037-3.594z"/><path opacity=".2" fill="#211915" d="M717.959 620.811c.018 1.207.024 2.395.037 3.594-.012-1.199-.019-2.386-.037-3.594z"/><path fill="#67AEB7" d="M648.203 302.852l-.003-.007-.012-.026.003.006.012.027z"/><path opacity=".2" fill="#211915" d="M648.203 302.852l-.003-.007-.012-.026.003.006.012.027z"/><path fill="#67AEB7" d="M670.739 357.989h.003l-.004-.001z"/><path opacity=".2" fill="#211915" d="M670.739 357.989h.003l-.004-.001z"/><path fill="#67AEB7" d="M670.742 357.989l-.06-.16a.534.534 0 00-.014-.036l.016.045c.019.05.04.101.058.151z"/><path opacity=".2" fill="#211915" d="M670.742 357.989l-.06-.16a.534.534 0 00-.014-.036l.016.045c.019.05.04.101.058.151z"/><path fill="#67AEB7" d="M628.746 263.452a.047.047 0 01-.005-.01l-.01-.019.005.01.01.019z"/><path opacity=".2" fill="#211915" d="M628.746 263.452a.047.047 0 01-.005-.01l-.01-.019.005.01.01.019z"/><path fill="#67AEB7" d="M646.903 869.996c.456.117.977.19 1.424.312-.453-.124-.959-.213-1.422-.331l-.002.019z"/><path opacity=".2" fill="#211915" d="M646.903 869.996c.456.117.977.19 1.424.312-.453-.124-.959-.213-1.422-.331l-.002.019z"/><path fill="#67AEB7" d="M710.527 765.266c31.545 12.004 56.093 78.067 67.985 118.251-11.884-40.204-36.428-106.243-67.985-118.251z"/><path opacity=".2" fill="#211915" d="M710.527 765.266c31.545 12.004 56.093 78.067 67.985 118.251-11.884-40.204-36.428-106.243-67.985-118.251z"/><path fill="#67AEB7" d="M638.503 282.422l-.005-.01-.043-.087c.017.032.032.065.048.097z"/><path opacity=".2" fill="#211915" d="M638.503 282.422l-.005-.01-.043-.087c.017.032.032.065.048.097z"/><path fill="#67AEB7" d="M717.381 676.576l-.063-.012.063.012z"/><path opacity=".2" fill="#211915" d="M717.381 676.576l-.063-.012.063.012z"/><path fill="#67AEB7" d="M703.306 477.13c.114.6.224 1.198.337 1.798-.113-.6-.222-1.197-.337-1.798z"/><path opacity=".2" fill="#211915" d="M703.306 477.13c.114.6.224 1.198.337 1.798-.113-.6-.222-1.197-.337-1.798z"/><path fill="#67AEB7" d="M752.981 686.464c.194.077.388.161.581.239-.194-.078-.387-.162-.581-.239z"/><path opacity=".2" fill="#211915" d="M752.981 686.464c.194.077.388.161.581.239-.194-.078-.387-.162-.581-.239z"/><path fill="#67AEB7" d="M758.046 688.602c.432.192.866.383 1.296.58-.432-.197-.863-.387-1.296-.58z"/><path opacity=".2" fill="#211915" d="M758.046 688.602c.432.192.866.383 1.296.58-.432-.197-.863-.387-1.296-.58z"/><path fill="#67AEB7" d="M787.177 709.719c.12.16.255.312.373.475-.118-.163-.253-.314-.373-.475z"/><path opacity=".2" fill="#211915" d="M787.177 709.719c.12.16.255.312.373.475-.118-.163-.253-.314-.373-.475z"/><path fill="#67AEB7" d="M790.182 714.363c.188.339.365.683.543 1.027a41.807 41.807 0 00-.543-1.027z"/><path opacity=".2" fill="#211915" d="M790.182 714.363c.188.339.365.683.543 1.027a41.807 41.807 0 00-.543-1.027z"/><path fill="#67AEB7" d="M779.028 701.233c.253.212.517.417.766.633-.25-.217-.513-.421-.766-.633z"/><path opacity=".2" fill="#211915" d="M779.028 701.233c.253.212.517.417.766.633-.25-.217-.513-.421-.766-.633z"/><path fill="#67AEB7" d="M785.671 910.665c-.073-.337-.166-.741-.249-1.116.084.374.177.779.249 1.116z"/><path opacity=".2" fill="#211915" d="M785.671 910.665c-.073-.337-.166-.741-.249-1.116.084.374.177.779.249 1.116z"/><path fill="#67AEB7" d="M783.451 705.347c.272.283.531.574.795.862-.264-.288-.522-.579-.795-.862z"/><path opacity=".2" fill="#211915" d="M783.451 705.347c.272.283.531.574.795.862-.264-.288-.522-.579-.795-.862z"/><path fill="#67AEB7" d="M774.534 697.766c.318.224.624.459.937.687-.314-.229-.619-.463-.937-.687z"/><path opacity=".2" fill="#211915" d="M774.534 697.766c.318.224.624.459.937.687-.314-.229-.619-.463-.937-.687z"/><path fill="#67AEB7" d="M769.077 694.255c.363.215.73.426 1.089.645-.36-.22-.726-.429-1.089-.645z"/><path opacity=".2" fill="#211915" d="M769.077 694.255c.363.215.73.426 1.089.645-.36-.22-.726-.429-1.089-.645z"/><path fill="#67AEB7" d="M764.146 691.513c.298.154.589.318.885.475-.296-.157-.586-.321-.885-.475z"/><path opacity=".2" fill="#211915" d="M764.146 691.513c.298.154.589.318.885.475-.296-.157-.586-.321-.885-.475z"/><path fill="#67AEB7" d="M718.039 635.657c-.005 1.329-.006 2.664-.016 3.981.01-1.319.012-2.651.016-3.981z"/><path opacity=".2" fill="#211915" d="M718.039 635.657c-.005 1.329-.006 2.664-.016 3.981.01-1.319.012-2.651.016-3.981z"/><path fill="#67AEB7" d="M786.089 912.693c-.038-.201-.097-.475-.144-.704.046.228.105.503.144.704z"/><path opacity=".2" fill="#211915" d="M786.089 912.693c-.038-.201-.097-.475-.144-.704.046.228.105.503.144.704z"/><path fill="#67AEB7" d="M721.183 677.302l.253.05-.253-.05z"/><path opacity=".2" fill="#211915" d="M721.183 677.302l.253.05-.253-.05z"/><path fill="#67AEB7" d="M725.628 678.242l.679.154c-.227-.052-.454-.104-.679-.154z"/><path opacity=".2" fill="#211915" d="M725.628 678.242l.679.154c-.227-.052-.454-.104-.679-.154z"/><path fill="#67AEB7" d="M730.55 679.397l.427.103-.427-.103z"/><path opacity=".2" fill="#211915" d="M730.55 679.397l.427.103-.427-.103z"/><path fill="#67AEB7" d="M746.7 684.149c.418.144.837.291 1.257.44-.421-.149-.838-.294-1.257-.44z"/><path opacity=".2" fill="#211915" d="M746.7 684.149c.418.144.837.291 1.257.44-.421-.149-.838-.294-1.257-.44z"/><path fill="#67AEB7" d="M735.654 680.732c.361.099.724.202 1.088.304a234.64 234.64 0 00-1.088-.304z"/><path opacity=".2" fill="#211915" d="M735.654 680.732c.361.099.724.202 1.088.304a234.64 234.64 0 00-1.088-.304z"/><path fill="#67AEB7" d="M741.529 682.446l.208.063-.208-.063z"/><path opacity=".2" fill="#211915" d="M741.529 682.446l.208.063-.208-.063z"/><path fill="#FFF" d="M640.205 868.529c2.329.421 4.55.919 6.697 1.466a.79.79 0 00.003-.019 97.518 97.518 0 00-6.7-1.447z"/><path opacity=".2" fill="#211915" d="M640.205 868.529c2.329.421 4.55.919 6.697 1.466a.79.79 0 00.003-.019 97.518 97.518 0 00-6.7-1.447z"/><path fill="#FFF" d="M603.652 933.533l-.12 1.732.12-1.732z"/><path opacity=".2" fill="#211915" d="M603.652 933.533l-.12 1.732.12-1.732z"/><path fill="#FFF" d="M653.119 313.944c-1.615-3.698-3.225-7.395-4.916-11.093l-.012-.026c1.693 3.706 3.31 7.413 4.928 11.119z"/><path opacity=".2" fill="#211915" d="M653.119 313.944c-1.615-3.698-3.225-7.395-4.916-11.093l-.012-.026c1.693 3.706 3.31 7.413 4.928 11.119z"/><path fill="#FFF" d="M656.816 322.489c-.207-.492-.394-.983-.602-1.475l-.031-.072c.218.517.416 1.032.633 1.547z"/><path opacity=".2" fill="#211915" d="M656.816 322.489c-.207-.492-.394-.983-.602-1.475l-.031-.072c.218.517.416 1.032.633 1.547z"/><path fill="#FFF" d="M670.685 357.837l-.016-.045c-.848-2.341-1.779-4.688-2.655-7.031.881 2.358 1.818 4.721 2.671 7.076z"/><path opacity=".2" fill="#211915" d="M670.685 357.837l-.016-.045c-.848-2.341-1.779-4.688-2.655-7.031.881 2.358 1.818 4.721 2.671 7.076z"/><path fill="#FFF" d="M633.381 272.438c-1.545-2.995-3.039-5.994-4.635-8.986l-.011-.019c1.6 2.998 3.1 6.003 4.646 9.005z"/><path opacity=".2" fill="#211915" d="M633.381 272.438c-1.545-2.995-3.039-5.994-4.635-8.986l-.011-.019c1.6 2.998 3.1 6.003 4.646 9.005z"/><path fill="#FFF" d="M644.054 294.024c-1.827-3.868-3.636-7.737-5.551-11.602l-.047-.097c1.931 3.896 3.753 7.798 5.598 11.699z"/><path opacity=".2" fill="#211915" d="M644.054 294.024c-1.827-3.868-3.636-7.737-5.551-11.602l-.047-.097c1.931 3.896 3.753 7.798 5.598 11.699z"/><path fill="#FFF" d="M622.377 251.923c1.502 2.691 3.028 5.38 4.486 8.077l-.015-.027c-1.454-2.688-2.975-5.368-4.471-8.05z"/><path opacity=".2" fill="#211915" d="M622.377 251.923c1.502 2.691 3.028 5.38 4.486 8.077l-.015-.027c-1.454-2.688-2.975-5.368-4.471-8.05z"/><path fill="#FFF" d="M608.586 228.245c.795 1.302 1.552 2.61 2.336 3.913-.783-1.299-1.536-2.602-2.329-3.901l-.007-.012z"/><path opacity=".2" fill="#211915" d="M608.586 228.245c.795 1.302 1.552 2.61 2.336 3.913-.783-1.299-1.536-2.602-2.329-3.901l-.007-.012z"/><path fill="#FFF" d="M586 345.795v89.939l2.503-1.725 17.944 31.813 37.339 4.41-25.941 25.552 7.107 35.188-34.877-16.008-4.075 1.31v162.988c13-.696 21.004.373 32.536 6.481-.75 12.746-.38 35.256-1.921 56.256h84.537c3.033-42 6.59-66.999 6.59-66.999s3.714.459 9.576 1.521l-.159.021-.159.022v-.221c0-3.057.272-6.262.342-9.616.012-.573.103-1.132.115-1.714.079-3.668.204-7.453.307-11.489a869.709 869.709 0 00.265-17.866c.012-3.707.002-7.458-.038-11.251-.013-1.199-.016-2.387-.035-3.594-.075-4.97-.185-9.998-.355-15.105-.015-.444-.037-.898-.053-1.343a832.44 832.44 0 00-.623-14.226c-.063-1.221-.132-2.449-.201-3.677a851 851 0 00-.907-14.062c-.049-.674-.09-1.338-.141-2.014a843.188 843.188 0 00-1.459-17.008c-.044-.456-.095-.919-.14-1.377a834.404 834.404 0 00-1.698-15.771c-.109-.934-.218-1.868-.331-2.804a829.469 829.469 0 00-5.103-35.863c-.075-.454-.156-.911-.232-1.366a820.965 820.965 0 00-3.07-17.267c-.113-.6-.223-1.197-.337-1.798a803.64 803.64 0 00-8.211-37.988c-.112-.462-.228-.926-.341-1.39a786.121 786.121 0 00-4.772-18.616l-.195-.734a770.807 770.807 0 00-11.762-39.266c-.193-.586-1.257-1.172-1.451-1.759-2.137-6.45-.574-11.401-7.574-17.876V361h.122C640.888 347 613 345.206 586 345.795z"/><path opacity=".2" fill="#211915" d="M586 345.795v89.939l2.503-1.725 17.944 31.813 37.339 4.41-25.941 25.552 7.107 35.188-34.877-16.008-4.075 1.31v162.988c13-.696 21.004.373 32.536 6.481-.75 12.746-.38 35.256-1.921 56.256h84.537c3.033-42 6.59-66.999 6.59-66.999s3.714.459 9.576 1.521l-.159.021-.159.022v-.221c0-3.057.272-6.262.342-9.616.012-.573.103-1.132.115-1.714.079-3.668.204-7.453.307-11.489a869.709 869.709 0 00.265-17.866c.012-3.707.002-7.458-.038-11.251-.013-1.199-.016-2.387-.035-3.594-.075-4.97-.185-9.998-.355-15.105-.015-.444-.037-.898-.053-1.343a832.44 832.44 0 00-.623-14.226c-.063-1.221-.132-2.449-.201-3.677a851 851 0 00-.907-14.062c-.049-.674-.09-1.338-.141-2.014a843.188 843.188 0 00-1.459-17.008c-.044-.456-.095-.919-.14-1.377a834.404 834.404 0 00-1.698-15.771c-.109-.934-.218-1.868-.331-2.804a829.469 829.469 0 00-5.103-35.863c-.075-.454-.156-.911-.232-1.366a820.965 820.965 0 00-3.07-17.267c-.113-.6-.223-1.197-.337-1.798a803.64 803.64 0 00-8.211-37.988c-.112-.462-.228-.926-.341-1.39a786.121 786.121 0 00-4.772-18.616l-.195-.734a770.807 770.807 0 00-11.762-39.266c-.193-.586-1.257-1.172-1.451-1.759-2.137-6.45-.574-11.401-7.574-17.876V361h.122C640.888 347 613 345.206 586 345.795z"/><path fill="#E2583D" d="M586 345.795c27-.589 54.888 1.205 83.122 15.205h.812c-.018 0 .365-1.607.347-1.657-.853-2.356-1.588-5.471-2.469-7.829-3.521-9.412-7.122-19.213-11.097-28.648-.217-.516-.365-1.219-.583-1.734-.011-.027.004-.147-.007-.174-.4-.935-.797-1.922-1.199-2.86-.588-1.369-1.309-2.761-1.907-4.13-1.618-3.707-5.018-7.425-5.018-11.131v-.01c0-1.172-.969-2.351-1.514-3.522-.816-1.761-1.647-2.183-2.478-3.942-1.845-3.901-3.599-10.363-5.53-10.363h-.011c-.143 0-.284-1.92-.431-2.212-1.497-3.009-3.969-6.677-5.519-9.681-1.546-3.002-5.516-6.676-5.516-9.673v-.01c0-1.143-.386-2.283-1.003-3.423-1.458-2.697-2.551-5.385-4.053-8.077-1.076-1.93-1.9-3.864-3-5.792-1.029-1.805-1.966-3.605-3.014-5.404a650.893 650.893 0 00-5.062-8.568c-.784-1.303-1.514-2.611-2.309-3.913-1.045-1.713-2.063-3.428-3.128-5.14-3.561-5.718-7.189-11.424-10.963-17.106-.707.972-1.386-4.082-2.081-3.082-.678-.999-3.027 4.054-3.738 3.082-.339.511 4.351 1.029-2.649 1.542v138.252z"/><path opacity=".2" fill="#211915" d="M586 345.795c27-.589 54.888 1.205 83.122 15.205h.812c-.018 0 .365-1.607.347-1.657-.853-2.356-1.588-5.471-2.469-7.829-3.521-9.412-7.122-19.213-11.097-28.648-.217-.516-.365-1.219-.583-1.734-.011-.027.004-.147-.007-.174-.4-.935-.797-1.922-1.199-2.86-.588-1.369-1.309-2.761-1.907-4.13-1.618-3.707-5.018-7.425-5.018-11.131v-.01c0-1.172-.969-2.351-1.514-3.522-.816-1.761-1.647-2.183-2.478-3.942-1.845-3.901-3.599-10.363-5.53-10.363h-.011c-.143 0-.284-1.92-.431-2.212-1.497-3.009-3.969-6.677-5.519-9.681-1.546-3.002-5.516-6.676-5.516-9.673v-.01c0-1.143-.386-2.283-1.003-3.423-1.458-2.697-2.551-5.385-4.053-8.077-1.076-1.93-1.9-3.864-3-5.792-1.029-1.805-1.966-3.605-3.014-5.404a650.893 650.893 0 00-5.062-8.568c-.784-1.303-1.514-2.611-2.309-3.913-1.045-1.713-2.063-3.428-3.128-5.14-3.561-5.718-7.189-11.424-10.963-17.106-.707.972-1.386-4.082-2.081-3.082-.678-.999-3.027 4.054-3.738 3.082-.339.511 4.351 1.029-2.649 1.542v138.252z"/><path fill="#E2583D" d="M625.055 530.973l-7.002-35.188 26.149-25.552-36.924-4.41-18.775-31.813-2.503 1.725v80.539l4.126-1.309z"/><path opacity=".2" fill="#211915" d="M625.055 530.973l-7.002-35.188 26.149-25.552-36.924-4.41-18.775-31.813-2.503 1.725v80.539l4.126-1.309z"/><path fill="#192D37" d="M707.742 675.001S704.185 700 701.152 742h-84.537c1.541-21 1.171-43.51 1.921-56.256-11.532-6.108-19.536-7.177-32.536-6.481v256.516l15.87-.513s.877-.665.951-1.732c.469-6.801 2.728-33.532 5.049-67.561.421.003 1.044.028 1.464.033 2.787.03 5.663.101 8.418.218.47.02.997.025 1.466.048 3.17.154 6.306.387 9.36.68.785.075 1.554.173 2.329.258 2.327.256 4.6.561 6.814.913.832.133 1.667.261 2.48.407 2.323.42 4.559.902 6.702 1.448.462.118.969.206 1.423.331.83-.381 1.668-.845 2.51-1.367.281-.174.565-.39.847-.579a31.93 31.93 0 001.698-1.198c.338-.26.679-.555 1.019-.835a43.176 43.176 0 001.553-1.325c.361-.327.724-.679 1.086-1.026a58.87 58.87 0 001.514-1.495 78.301 78.301 0 003.723-4.146 97.416 97.416 0 001.537-1.884c.358-.45.717-.901 1.076-1.366.528-.685 1.056-1.393 1.583-2.109.342-.464.684-.922 1.026-1.398a146.47 146.47 0 001.673-2.393c.306-.445.613-.879.918-1.332.644-.956 1.286-1.94 1.926-2.932.216-.334.432-.656.647-.993 1.728-2.712 3.44-5.54 5.126-8.448.206-.356.41-.72.615-1.078a308.62 308.62 0 001.889-3.331c.255-.458.506-.921.759-1.38.569-1.034 1.137-2.07 1.698-3.115.272-.506.541-1.015.81-1.523a379.803 379.803 0 001.594-3.031c.279-.536.554-1.072.83-1.608a386.726 386.726 0 002.311-4.562c.515-1.031 1.023-2.06 1.527-3.088.247-.505.496-1.011.741-1.515a503.558 503.558 0 001.53-3.181 566.07 566.07 0 002.327-4.938c.118-.254.24-.511.357-.765.68-1.469 1.347-2.924 1.996-4.356l.008-.016a637.876 637.876 0 005.511-12.528l.235-.552a630.51 630.51 0 002.818-6.709l.224-.543c.399-.968.785-1.906 1.147-2.797l.105-.258c.383-.943.746-1.84 1.086-2.686l.075-.188a547.362 547.362 0 002.547-6.467c31.557 12.009 56.101 78.048 67.985 118.251l.08.268a537.29 537.29 0 011.307 4.502l.246.861c.369 1.301.721 2.558 1.059 3.784.11.399.218.79.324 1.181.305 1.119.597 2.198.875 3.245.116.435.225.853.336 1.274.249.951.489 1.872.714 2.752.122.478.233.922.348 1.378.19.757.377 1.501.546 2.195.127.519.238.987.353 1.47.135.566.272 1.139.391 1.652.124.535.226.994.332 1.47.084.375.176.779.249 1.116.108.502.19.91.274 1.324.046.229.105.503.144.704.108.564.19 1.029.237 1.366 1.607 11.23 30.48 0 30.48 0s-11.239-157.18-24.059-194.066c-.554-1.594-1.257-3.115-2.022-4.603a39.986 39.986 0 00-3.175-5.196c-.118-.162-.253-.314-.373-.475a46.102 46.102 0 00-2.93-3.509c-.264-.288-.523-.579-.795-.862a55.2 55.2 0 00-3.658-3.482c-.249-.216-.513-.42-.766-.633a66.796 66.796 0 00-3.557-2.779c-.313-.228-.619-.463-.937-.687a79.99 79.99 0 00-4.369-2.866c-.359-.219-.725-.43-1.089-.645a97.427 97.427 0 00-4.045-2.267c-.297-.157-.587-.321-.885-.475a113.09 113.09 0 00-4.804-2.33c-.43-.197-.864-.388-1.296-.58a131.357 131.357 0 00-4.484-1.899c-.194-.078-.387-.163-.581-.239a148.515 148.515 0 00-5.024-1.874 134.71 134.71 0 00-1.257-.44 169.067 169.067 0 00-4.963-1.641l-.208-.063c-1.62-.503-3.214-.967-4.787-1.409-.364-.102-.727-.205-1.088-.304-1.591-.437-3.16-.853-4.676-1.231l-.427-.103a213.256 213.256 0 00-4.242-1.002l-.679-.154a228.317 228.317 0 00-4.193-.89l-.253-.05a222.48 222.48 0 00-3.802-.727c-.021-.003-.043-.051-.063-.054-5.865-1.066-9.579-1.525-9.579-1.525z"/><path opacity=".2" fill="#211915" d="M707.742 675.001S704.185 700 701.152 742h-84.537c1.541-21 1.171-43.51 1.921-56.256-11.532-6.108-19.536-7.177-32.536-6.481v256.516l15.87-.513s.877-.665.951-1.732c.469-6.801 2.728-33.532 5.049-67.561.421.003 1.044.028 1.464.033 2.787.03 5.663.101 8.418.218.47.02.997.025 1.466.048 3.17.154 6.306.387 9.36.68.785.075 1.554.173 2.329.258 2.327.256 4.6.561 6.814.913.832.133 1.667.261 2.48.407 2.323.42 4.559.902 6.702 1.448.462.118.969.206 1.423.331.83-.381 1.668-.845 2.51-1.367.281-.174.565-.39.847-.579a31.93 31.93 0 001.698-1.198c.338-.26.679-.555 1.019-.835a43.176 43.176 0 001.553-1.325c.361-.327.724-.679 1.086-1.026a58.87 58.87 0 001.514-1.495 78.301 78.301 0 003.723-4.146 97.416 97.416 0 001.537-1.884c.358-.45.717-.901 1.076-1.366.528-.685 1.056-1.393 1.583-2.109.342-.464.684-.922 1.026-1.398a146.47 146.47 0 001.673-2.393c.306-.445.613-.879.918-1.332.644-.956 1.286-1.94 1.926-2.932.216-.334.432-.656.647-.993 1.728-2.712 3.44-5.54 5.126-8.448.206-.356.41-.72.615-1.078a308.62 308.62 0 001.889-3.331c.255-.458.506-.921.759-1.38.569-1.034 1.137-2.07 1.698-3.115.272-.506.541-1.015.81-1.523a379.803 379.803 0 001.594-3.031c.279-.536.554-1.072.83-1.608a386.726 386.726 0 002.311-4.562c.515-1.031 1.023-2.06 1.527-3.088.247-.505.496-1.011.741-1.515a503.558 503.558 0 001.53-3.181 566.07 566.07 0 002.327-4.938c.118-.254.24-.511.357-.765.68-1.469 1.347-2.924 1.996-4.356l.008-.016a637.876 637.876 0 005.511-12.528l.235-.552a630.51 630.51 0 002.818-6.709l.224-.543c.399-.968.785-1.906 1.147-2.797l.105-.258c.383-.943.746-1.84 1.086-2.686l.075-.188a547.362 547.362 0 002.547-6.467c31.557 12.009 56.101 78.048 67.985 118.251l.08.268a537.29 537.29 0 011.307 4.502l.246.861c.369 1.301.721 2.558 1.059 3.784.11.399.218.79.324 1.181.305 1.119.597 2.198.875 3.245.116.435.225.853.336 1.274.249.951.489 1.872.714 2.752.122.478.233.922.348 1.378.19.757.377 1.501.546 2.195.127.519.238.987.353 1.47.135.566.272 1.139.391 1.652.124.535.226.994.332 1.47.084.375.176.779.249 1.116.108.502.19.91.274 1.324.046.229.105.503.144.704.108.564.19 1.029.237 1.366 1.607 11.23 30.48 0 30.48 0s-11.239-157.18-24.059-194.066c-.554-1.594-1.257-3.115-2.022-4.603a39.986 39.986 0 00-3.175-5.196c-.118-.162-.253-.314-.373-.475a46.102 46.102 0 00-2.93-3.509c-.264-.288-.523-.579-.795-.862a55.2 55.2 0 00-3.658-3.482c-.249-.216-.513-.42-.766-.633a66.796 66.796 0 00-3.557-2.779c-.313-.228-.619-.463-.937-.687a79.99 79.99 0 00-4.369-2.866c-.359-.219-.725-.43-1.089-.645a97.427 97.427 0 00-4.045-2.267c-.297-.157-.587-.321-.885-.475a113.09 113.09 0 00-4.804-2.33c-.43-.197-.864-.388-1.296-.58a131.357 131.357 0 00-4.484-1.899c-.194-.078-.387-.163-.581-.239a148.515 148.515 0 00-5.024-1.874 134.71 134.71 0 00-1.257-.44 169.067 169.067 0 00-4.963-1.641l-.208-.063c-1.62-.503-3.214-.967-4.787-1.409-.364-.102-.727-.205-1.088-.304-1.591-.437-3.16-.853-4.676-1.231l-.427-.103a213.256 213.256 0 00-4.242-1.002l-.679-.154a228.317 228.317 0 00-4.193-.89l-.253-.05a222.48 222.48 0 00-3.802-.727c-.021-.003-.043-.051-.063-.054-5.865-1.066-9.579-1.525-9.579-1.525z"/><path fill="#FFF" d="M965.718 427.122l8.795 8.685 1.609-11.908 11.058-5.25-11.215-5.41-1.963-11.941-8.54 8.568-12.275-2.129 5.939 10.707-5.619 10.624zm-69.196 104.156l-2.953-6.033-2.794 5.988-6.421.906 4.715 4.718-1.007 6.594 5.71-3.07 5.796 3.168-1.188-6.615 4.593-4.637zM393.918 286.981l-2.956-6.03-2.793 5.985-6.42.909 4.72 4.718-1.007 6.591 5.705-3.07 5.804 3.171-1.196-6.616 4.598-4.641zm422.759-22.484l-11.551-16.616-6.739 19.085-20.07 5.624L795 284.485l-.843 20.087 17.041-11.732 19.54 6.785-6.152-19.14 12.925-15.894zM212.421 416.269l-.843 20.09 17.041-11.734 19.541 6.787-6.138-19.142 12.918-15.893-20.835-.095-11.557-16.613-6.732 19.084-20.071 5.625z"/></svg>