<svg xmlns="http://www.w3.org/2000/svg" viewBox="0 0 1200 1200"><path fill="#00887a" d="M1003.688 50H172.383C93.414 50 50 114.896 50 166.093v811.183C50 1105.463 92.735 1150 210.157 1150h793.646c80.548 0 146.197-34.166 146.197-133.917V193.866C1150 114.896 1097.731 50 1003.688 50zM474.421 71c-35.627 48-45.852 110.024-21.169 167.77 9.426 22.125 23.074 40.961 39.569 56.421 36.395-11.125 75.018-17.246 115.055-17.246 39.988 0 78.563 5.965 114.919 17.064a167.332 167.332 0 0016.588-18.079c23.544-29.736 36.527-66.878 36.4-105.071-.064-19.097-3.405-38.465-10.341-57.302a170.464 170.464 0 00-3.194-8.041c-1.499-3.513-3.14-6.921-4.845-10.277-.432-.852-.873-1.697-1.319-2.538-1.652-3.121-3.369-6.19-5.192-9.168-.117-.19-.223-.391-.339-.58-1.951-3.158-4.022-6.209-6.156-9.199-.511-.716-1.032-1.042-1.553-1.748-.602-.816-1.251-2.005-1.866-2.005h179.408l.372.461c1.427 3.513 1.961 6.458 1.886 9.235a17.029 17.029 0 01-.877 4.984c-.507 1.537-1.199 2.872-1.993 4.105-1.171 1.82-2.564 3.286-3.907 4.474-2.754 2.436-5.299 3.573-5.299 3.573l-54.25 33.106c-3.706 2.031-6.571 4.783-8.778 7.918-4.416 6.27-6.204 14.061-6.851 20.635a68.524 68.524 0 00-.32 6.065c-.041 4.547.367 7.613.367 7.613-.842 27.963 14.562 35.007 14.562 35.007l55.224 32.005c3.519 1.572 6.147 3.526 8.094 5.662 3.894 4.273 5.065 9.277 5.197 13.426.154 4.842-1.106 8.521-1.106 8.521l-21.533 53.546c-12.02 19.552-25.857 13.443-25.857 13.443l-66.745-15.892a27.333 27.333 0 00-8.687-.661c-4.196.353-8.104 1.654-11.657 3.472 126.339 65.377 212.744 197.18 212.744 349.247 0 39.216-5.819 77.206-16.509 112.945 21.412 35.997 30.691 75.109 34.621 103.109h-82.667c-70.276 104-191.141 177.336-328.541 177.336S349.612 991 279.335 887h-67.851c3.315-21 10.413-54.635 25.399-85.918-14.261-40.701-22.103-84.493-22.103-130.063 0-150.475 84.585-281.182 208.768-347.247-10.162-3.261-17.6-1.047-17.6-1.047l-56.272 15.211c-20.604 7.978-24.876-2.992-24.876-2.992s-23.067-43.74-29.222-59.104c-6.168-15.391 8.109-22.264 8.109-22.264s22.298-14.313 48.188-28.571c25.897-14.258 24.685-40.498 24.685-40.498 5.996-35.733-14.384-45.054-14.384-45.054L298.169 102.8c-12.896-7.704-8.195-19.738-8.195-19.738L295.032 71h179.389z"/><path fill="#183855" d="M610.038 340.479a167.537 167.537 0 0023.966-2.041c.141-.023.282-.053.423-.076a167.14 167.14 0 007.532-1.382c.379-.079.756-.179 1.135-.261 2.276-.49 4.549-1.01 6.817-1.599.715-.186 1.427-.413 2.142-.609 1.935-.53 3.87-1.061 5.798-1.665 1.298-.407 2.588-.878 3.882-1.319 1.348-.459 2.7-.885 4.043-1.381a170.211 170.211 0 007.922-3.147c18.655-7.967 35.127-18.91 49.098-32.039-36.356-11.099-74.931-17.112-114.919-17.112-40.037 0-78.659 6.025-115.055 17.15 31.619 29.64 73.777 46.052 117.216 45.481z"/><path fill="#183855" d="M776.21 330.613a67.132 67.132 0 00-4.322 4.696c-3.071 3.667-4.769 6.461-4.769 6.461-2.029 2.263-3.682 4.498-5.022 6.677-4.022 6.537-5.228 12.568-5.293 17.326-.086 6.344 1.855 10.425 1.855 10.425l17.393 60.511c4.793 13.943-10.835 24.252-10.835 24.252l-55.823 23.765c-4.829 2.268-8.858 3.017-12.185 2.866a16.518 16.518 0 01-2.804-.387c-7.86-1.724-10.849-8.627-10.849-8.627l-35.922-59.853c-.968-1.485-2.148-2.76-3.411-3.939-.244-.228-.479-.466-.733-.683a26.831 26.831 0 00-4.029-2.847c-.306-.177-.623-.335-.936-.502a36.097 36.097 0 00-4.356-1.986c-.13-.049-.255-.112-.386-.16-1.592-.578-3.218-1.032-4.84-1.43-.384-.095-.768-.193-1.152-.279a61.546 61.546 0 00-4.595-.846c-.353-.051-.694-.089-1.042-.133a74.716 74.716 0 00-4.017-.412c-.164-.012-.343-.032-.505-.043a79.218 79.218 0 00-3.923-.157c-.216-.003-.435-.008-.642-.01a80.132 80.132 0 00-3.034.028c-1.524.049-2.458.126-2.458.126-29.379-1.449-38.457 20.394-38.457 20.394l-27.404 50.069c-4.661 14.377-22.204 12.692-22.204 12.692l-63.018-23.936c-15.26-8.664-10.151-22.052-10.151-22.052l15.68-79.458c1.758-13.573-22.42-30.031-22.42-30.031-5.64-4.999-11.157-7.827-16.052-9.398C299.365 389.8 214.78 520.47 214.78 670.945c0 45.57 8.389 89.289 22.651 129.989C259.429 755.013 299 712.017 368 710.382v-.019c0-.023 1.339-3.362 2.555-3.362h1.887l.397 1.683c.586-.004 2.16 1.668 2.16 1.679v.019c90 2.213 130.647 80.235 146.339 138.695C543.439 829.01 576 815.12 610 814.206v-.019c0-.023 2.283.006 3.499.01 1.217-.003 3.501-.032 3.501-.01v.019s2.091-3.206 2.171-3.206h.111c38.427 7 68.814 16.459 90.846 36.464C725.821 789.004 762 712.595 859 710.382v-.019c0-.023 2.283.006 3.5.01 1.217-.003-3.5-.033 3.5-.01v.019c55 1.428 96.475 34.432 119.631 73.361 10.69-35.739 15.925-73.581 15.925-112.798 0-152.067-86.698-283.87-213.036-349.247a47.955 47.955 0 00-9.548 6.483c-.92.806-1.939 1.621-2.762 2.432zM458.97 612.825c-.937 6.973-2.728 14.309-5.594 21.967-.915 1.902-2.059 3.683-3.113 5.513-4.546 7.892-10.202 15.167-17.05 21.375a91.303 91.303 0 01-18.836 13.158 93.17 93.17 0 01-22.243 8.269 95.716 95.716 0 01-12.156 2.014c-1.511.152-3.002.175-4.499.236-47.628 2.546-89.129-30.76-93.745-76.295-4.676-46.967 31.662-89.101 81.215-94.033a94.757 94.757 0 0117.749-.108c1.119.097 2.211.277 3.319.413 1.682.206 3.362.412 5.016.706 1.185.211 2.346.483 3.516.738 1.548.338 3.087.689 4.606 1.103 1.159.316 2.3.665 3.44 1.024 1.499.471 2.978.976 4.442 1.52 1.088.405 2.167.818 3.234 1.261a90.089 90.089 0 014.418 1.995c.969.465 1.944.915 2.893 1.413 1.581.828 3.11 1.728 4.631 2.644.764.46 1.55.886 2.298 1.367a88.54 88.54 0 016.501 4.58c.315-.174 2.754 1.635 6.135 5.208a80.521 80.521 0 014.771 5.55 95.345 95.345 0 0113.535 23.526 91.64 91.64 0 012.67 7.699 88.067 88.067 0 013.323 17.368c.274 3.103.391 6.307.321 9.607a91.72 91.72 0 01-.797 10.182zm239.134 125.79a85.698 85.698 0 01-5.513 9.763 87.667 87.667 0 01-6.754 9.001 89.38 89.38 0 01-7.897 8.124c-.285.258-.617.468-.906.722-13.948 12.323-31.996 20.679-52.33 22.719-1.86.187-3.692.212-5.534.29-47.193 2.012-88.129-31.143-92.711-76.349-4.676-46.968 31.664-89.336 81.215-94.268 3.877-.39 7.702-.618 11.495-.618h.005c7.362 1 14.518 1.39 21.381 3.153.384.098.777.292 1.159.395 1.716.464 3.393 1.065 5.067 1.623.931.308 1.86.643 2.777.979a91.836 91.836 0 014.171 1.677c1.181.5 2.341 1.038 3.495 1.586a90.638 90.638 0 013.422 1.696c1.424.751 2.804 1.565 4.179 2.388.842.505 1.702.981 2.525 1.513a87.71 87.71 0 016.386 4.5c.18-.099 1.054.449 2.401 1.604.337.288.703.615 1.095.979 10.594 9.826 40.215 46.832 20.872 98.523zm154.858-223.586c4.214-.424 6.038-1.049 13.038-.923V514h-1.099c9.522 0 18.698 2.351 27.306 5.299.722.245 1.448.65 2.162.912 1.484.55 2.938 1.231 4.383 1.853 1.094.468 2.174 1 3.245 1.509a91.645 91.645 0 013.515 1.772c1.38.731 2.72 1.527 4.054 2.325.855.514 1.727 1.005 2.562 1.546a87.14 87.14 0 016.337 4.468c.449-.248 5.236 3.55 10.906 10.759a92.938 92.938 0 013.48 4.73 95.343 95.343 0 013.526 5.518 94.975 94.975 0 016.528 13.278 90.83 90.83 0 013.784 11.802 88.067 88.067 0 012.209 13.266c.274 3.103.391 6.307.321 9.607a90.784 90.784 0 01-.794 10.182c-.937 6.973-2.728 14.309-5.594 21.967-4.815 10.011-11.614 19.058-19.943 26.661-.079.071-.142.155-.22.227-3.911 3.546-8.268 6.634-12.811 9.488-8.985 5.646-19.05 9.885-29.996 12.226-3.413.73-6.868 1.371-10.428 1.728-.705.071-1.4.08-2.098.11-48.63 3.825-91.174-29.868-95.867-76.169-4.676-46.969 31.942-89.103 81.494-94.035zM739.215 887c17.565 28 27.091 61.693 32.183 86.937.1.494.182 1.12.279 1.608 1.084 5.498 1.974 8.455 2.678 15.455H456.211c3.962-28 13.361-69 35.141-104H279.334c70.276 104 191.141 177.336 328.541 177.336S866.14 991 936.416 887H739.215z"/><path fill="#8DC4EC" d="M901.173 321.337c-12.019 19.552-25.856 13.442-25.856 13.442l-66.745-15.891 66.745 15.892s13.837 6.109 25.856-13.443l21.534-53.546s1.26-3.679 1.106-8.521c.154 4.841-1.106 8.52-1.106 8.52l-21.534 53.547zM750.892 84.533c-.117-.19-.223-.39-.339-.58.116.189.222.389.339.58zm6.511 11.704zm-13.007-21.484zm103.143 64.101c-4.416 6.27-6.204 14.063-6.851 20.636.647-6.574 2.436-14.366 6.851-20.636zm74.228-53.27zm.877-5.079zm-81.955 78.985zm-64.906 12.357c.127 38.193-12.856 75.324-36.4 105.059 23.543-29.735 36.526-66.866 36.4-105.059zm140.084-77.611c1.343-1.188 2.736-2.678 3.907-4.498-1.172 1.819-2.564 3.309-3.907 4.498zm-617.697 8.562l64.007 36.653s20.38 9.322 14.384 45.054c0 0 1.211 26.24-24.685 40.498-25.89 14.258-48.188 28.57-48.188 28.57s-14.277 6.872-8.109 22.263c6.154 15.364 29.222 59.102 29.222 59.102s4.272 10.966 24.876 2.988l56.272-15.22s7.438-2.232 17.6 1.029c4.895 1.571 10.412 4.399 16.052 9.398 0 0 24.178 16.458 22.42 30.031l-15.68 79.458s-5.11 13.388 10.151 22.052l63.018 23.936s17.543 1.685 22.204-12.692l27.404-50.069s9.062-21.843 38.441-20.394c0 0 2.441-.078 2.441-.126V341h.078c-43.439 0-85.617-16.102-117.237-45.739-16.495-15.46-30.153-34.236-39.579-56.361C428.579 181.154 438.794 119 474.421 71H295.032l-5.057 12.06c.001 0-4.7 12.034 8.195 19.738zm367.605 227.349a170.211 170.211 0 007.922-3.147c26.664-11.387 48.869-28.854 65.685-50.094a167.006 167.006 0 01-16.588 18.055c-13.972 13.129-30.443 24.072-49.098 32.039a168.637 168.637 0 01-7.921 3.147zm113.051-1.965c2.739-2.397 5.898-4.691 9.402-6.483 3.553-1.817 7.461-3.118 11.657-3.472-8.334.702-15.542 5.127-21.059 9.955zm-81.617 159.41zm-79.578-82.126c.162.011.34.031.505.043-.167-.012-.34-.032-.505-.043zm144.466-57.019c1.341-2.179 2.994-4.414 5.022-6.677-2.028 2.264-3.681 4.499-5.022 6.677zm-5.293 17.326c.065-4.758 1.271-10.789 5.293-17.326-4.022 6.537-5.228 12.568-5.293 17.326zm-118.279 44.981c.313.167.63.325.936.502-.308-.178-.623-.334-.936-.502zm4.964 3.349c.254.217.489.455.733.683-.245-.229-.478-.465-.733-.683zm-9.485-75.664c.141-.022.282-.053.423-.076-.141.023-.282.053-.423.076zm137.885-3.129zm-138.107 73.299c.131.047.256.111.386.16-.131-.05-.254-.113-.386-.16zm24.068-75.762c1.298-.407 2.588-.879 3.882-1.319-1.294.44-2.584.912-3.882 1.319zm-7.939 2.273c.715-.186 1.427-.413 2.142-.609-.715.196-1.427.423-2.142.609zm-7.952 1.861c.379-.079.756-.18 1.135-.261-.379.081-.756.182-1.135.261zM613.067 405.3c.207.002.426.006.642.01-.225-.004-.427-.009-.642-.01zm14.723 1.6c.383.086.768.184 1.152.279-.388-.096-.766-.193-1.152-.279zm-5.637-.98c.348.045.689.083 1.042.133-.358-.051-.689-.088-1.042-.133z"/><path fill="#73A7D2" d="M673.697 327.001a170.653 170.653 0 01-7.922 3.147c-1.343.495-2.695.922-4.043 1.381-1.294.44-2.584.912-3.882 1.319-1.927.603-3.863 1.134-5.798 1.665-.714.195-1.426.423-2.142.609a166.423 166.423 0 01-6.817 1.599c-.378.081-.756.182-1.135.261a167.14 167.14 0 01-7.532 1.382c-.141.023-.282.313-.423.336-7.992 1.264-15.96 2.301-23.926 2.301H610v62h.073c.823 0 1.861 1.127 3.014 1.136.215.002.407.588.632.592 1.192.019 2.496.354 3.918.448.165.011.335.176.502.188 1.273.092 2.627.307 4.016.484.352.045.683.118 1.041.17 1.499.216 3.041.519 4.594.864.387.086.764.192 1.152.288 1.622.398 3.248.857 4.84 1.435.132.048.255.112.386.162a36.103 36.103 0 014.356 1.987c.314.168.628.324.936.502a26.882 26.882 0 014.029 2.847c.255.218.488.454.733.683 1.263 1.179 2.444 2.454 3.411 3.939l35.922 59.853s2.989 6.903 10.849 8.627c.88.193 1.8.342 2.804.387 3.328.151 7.357-.598 12.185-2.866l55.823-23.765s15.628-10.309 10.835-24.252l-17.393-60.511s-1.941-4.081-1.855-10.425c.065-4.758 1.271-10.789 5.293-17.326 1.341-2.179 2.994-4.414 5.022-6.677 0 0 1.699-2.794 4.769-6.461a67.132 67.132 0 014.322-4.696 59.719 59.719 0 012.615-2.432c5.518-4.827 12.726-9.253 21.059-9.955a27.391 27.391 0 018.687.661l66.745 15.891s13.837 6.11 25.856-13.442l21.534-53.547s1.26-3.679 1.106-8.52c-.132-4.149-1.303-9.153-5.197-13.426-1.947-2.136-4.575-4.09-8.094-5.662l-55.224-32.005s-15.404-7.044-14.562-35.008c0 0-.409-3.066-.367-7.614.016-1.819.105-3.875.32-6.066.646-6.573 2.435-14.366 6.851-20.636 2.208-3.135 5.072-5.89 8.778-7.921l54.25-33.112s2.545-1.149 5.299-3.585c1.343-1.188 2.736-2.678 3.907-4.498a18.186 18.186 0 001.993-4.153c.506-1.537.827-3.228.877-5.079.075-2.776-.459-5.531-1.886-9.044l-.37-.461H740.978c.615 0 1.264 1.189 1.866 2.005.521.706 1.041 1.222 1.553 1.938 2.134 2.991 4.205 5.946 6.156 9.104.117.19.223.342.339.533a167.69 167.69 0 015.192 9.143c.446.842.886 1.673 1.319 2.525 1.705 3.356 3.346 6.756 4.845 10.269a169.86 169.86 0 013.194 8.036c6.937 18.837 10.278 38.198 10.341 57.295.127 38.193-12.856 75.323-36.4 105.059-16.817 21.24-39.022 38.706-65.686 50.094z"/><path fill="#F5DB39" d="M375 707h-4.445c-1.216 0-2.555 3.34-2.555 3.362v.019c-69 1.635-108.571 44.779-130.569 90.701C222.445 832.365 214.799 866 211.484 887H375V707zm75.263-66.696c-4.546 7.892-10.202 15.167-17.05 21.375 6.848-6.207 12.504-13.483 17.05-21.375zm-37.576-116.623c.969.465 1.945.916 2.893 1.413-.949-.498-1.924-.948-2.893-1.413zm7.525 4.058c.763.46 1.55.886 2.298 1.367-.749-.482-1.534-.908-2.298-1.367zm39.552 74.904zm-54.729-82.218zM375 514.557c-7 .004-7.582.151-10.773.472-49.553 4.932-86.53 47.065-81.854 94.033 4.616 45.536 47.076 78.841 94.704 76.295-1.01.041-2.076.137-2.076.159V514.557zm22.154 3.324zm-16.457-2.96c1.118.097 2.212.278 3.319.413-1.108-.136-2.2-.316-3.319-.413zm8.335 1.119c1.184.211 2.347.483 3.516.738-1.17-.255-2.33-.527-3.516-.738z"/><path fill="#E8BA3C" d="M491.353 887c8.233-14 18.642-26.734 30.803-37.776C506.464 790.765 465 712.595 375 710.382V707h-.989.989v180h116.353zm-32.437-298.542a88.124 88.124 0 00-2.796-12.79 90.93 90.93 0 00-2.67-7.699 95.332 95.332 0 00-13.535-23.526 81 81 0 00-4.771-5.55c-3.381-3.574-5.82-5.382-6.135-5.208a88.54 88.54 0 00-6.501-4.58c-.747-.481-1.534-.907-2.298-1.367-1.521-.916-3.051-1.816-4.631-2.644-.948-.497-1.925-.948-2.893-1.413a90.089 90.089 0 00-4.418-1.995 89.466 89.466 0 00-3.234-1.261 91.399 91.399 0 00-4.442-1.52 92.09 92.09 0 00-3.44-1.024 93.57 93.57 0 00-4.606-1.103c-1.169-.255-2.331-.527-3.516-.738-1.654-.294-3.335-.5-5.016-.706-1.108-.136-.923-.317-2.041-.413-2.724-.235-6.975-.367-6.975-.364v170.96c0-.022.746-.118 1.756-.159 1.497-.061 2.349-.084 3.86-.236 4.151-.417 7.889-1.094 11.837-2.014 7.896-1.84 15.193-4.647 22.083-8.269 6.89-3.622 13.132-8.06 18.756-13.158 6.849-6.208 12.464-13.483 17.01-21.375 1.054-1.83 2.178-3.611 3.093-5.513 2.866-7.658 4.647-14.994 5.584-21.967.469-3.487.719-6.882.789-10.182a87.94 87.94 0 00-.85-14.186z"/><path fill="#F5DB39" d="M866 710.382v-.019c-7-.023-2.283.006-3.5.01-1.217-.003-3.5-.033-3.5-.01v.019c-97 2.213-133.179 80.235-148.872 138.695-22.032-20.004-51.759-33.86-90.186-34.851 104.892 2.703 139.983 101.202 151.786 159.711C766.635 948.693 756.78 915 739.215 887H866V710.45c111 3.573 145.49 122.531 153.641 176.254-3.93-25.903-12.32-66.965-33.731-102.962C962.754 744.813 921 711.81 866 710.382zm82.899-117.346zm-26.01 68.417c-.078.071-.142.155-.22.227.078-.072.141-.156.22-.227zm-20.891-137.837zm-130.809 85.446c4.693 46.301 48.073 79.994 96.704 76.169-.815.034-1.893.085-1.893.128v-170.67c-7-.125-8.824-.084-13.038.34-49.552 4.932-86.449 47.066-81.773 94.033zm138.378-81.381c.855.512 1.727 1.002 2.562 1.54-.836-.54-1.707-1.026-2.562-1.54z"/><path fill="#F5DB39" d="M864.901 514.69a93.9 93.9 0 0127.306 4.954 92.97 92.97 0 00-27.306-4.954zm44.957 156.478c-8.986 5.646-19.05 9.885-29.996 12.226 10.946-2.341 21.011-6.58 29.996-12.226zm-15.489-150.785z"/><path fill="#E8BA3C" d="M866 710.45V887h153.084C1010.932 832 977 714.023 866 710.45zm1.893-25.219c.698-.03 1.114-.039 1.819-.11 3.561-.357 6.876-.998 10.289-1.728 10.946-2.341 20.941-6.58 29.926-12.226 4.543-2.854 8.865-5.942 12.776-9.488.079-.071.125-.155.203-.227 8.329-7.604 15.12-16.65 19.934-26.661 2.866-7.658 4.652-14.994 5.59-21.967.469-3.487.722-6.882.792-10.182a87.944 87.944 0 00-.849-14.185 88.417 88.417 0 00-2.796-12.79 90.93 90.93 0 00-2.67-7.699 94.92 94.92 0 00-6.528-13.278 96.23 96.23 0 00-3.526-5.518 92.494 92.494 0 00-3.48-4.73c-5.67-7.209-10.457-11.006-10.906-10.758-2.034-1.584-4.159-3.06-6.337-4.465-.835-.539-1.706-1.029-2.562-1.54a89.693 89.693 0 00-4.054-2.314 91.248 91.248 0 00-3.515-1.751 92.043 92.043 0 00-3.245-1.466 90.896 90.896 0 00-4.383-1.767c-.714-.262-1.44-.84-2.162-1.085-8.611-2.922-17.789-5.299-27.306-5.299h-.017l1.116.689v170.671c-.002-.041 1.076-.092 1.891-.126z"/><path fill="#F5DB39" d="M771.677 975.235zM491.353 886.94C469.573 923.142 460.174 963 456.212 991H617V814.187c0-.023-2.284.006-3.501.01-1.216-.003-3.499-.032-3.499-.01v.019c-34 .914-66.958 14.922-89.058 34.988-12.161 11.042-21.357 24.062-29.589 37.746zm150.363-265.275c1.716.46 3.393 1.01 5.067 1.564-1.674-.558-3.351-1.1-5.067-1.564zm-22.538-3.196a94.301 94.301 0 0121.379 2.918 93.435 93.435 0 00-21.379-2.918zm-12.588.384c-49.552 4.932-86.434 47.065-81.758 94.033 4.582 45.206 44.168 78.362 92.168 76.35V618.469c0-.076-6.533-.006-10.41.384zm42.97 5.326zm28.381 141.325c-.285.258-.617.468-.906.722.288-.255.621-.464.906-.722zM657.226 627.42zm7.601 4.078c.842.504 1.702.982 2.525 1.512-.823-.531-1.683-1.006-2.525-1.512z"/><path fill="#E8BA3C" d="M774.355 991c-.704-7-1.594-10.031-2.678-15.529-.096-.488-.179-2.682-.279-3.176C759.595 913.785 724.174 818 619.282 811H617v180h157.355zm-97.122-350.908a35.885 35.885 0 00-1.095-.979c-1.347-1.155-2.221-1.703-2.401-1.604a87.699 87.699 0 00-6.386-4.499c-.823-.53-1.683-1.008-2.525-1.512-1.375-.823-2.755-1.635-4.179-2.386a90.561 90.561 0 00-3.422-1.692 89.362 89.362 0 00-3.495-1.578 90.495 90.495 0 00-4.171-1.662c-.917-.337-1.846-.642-2.777-.95-1.674-.554-3.351-1.104-5.067-1.564-.383-.103-.775-.914-1.159-1.012-6.864-1.748-15.093-3.653-22.449-3.653h-1.108v173h1.101c1.841 0 4.209-.485 6.069-.672 20.333-2.041 38.649-10.588 52.597-22.91.288-.255.755-.56 1.04-.818a90.67 90.67 0 007.964-8.172 88.279 88.279 0 006.787-9.025 85.987 85.987 0 005.53-9.775c19.344-51.693-10.261-88.711-20.854-98.537z"/></svg>