<svg xmlns="http://www.w3.org/2000/svg" viewBox="0 0 1200 1200"><path fill="#F5DB39" d="M845.934 352.646c-75.594 0-137.124 61.538-137.124 137.123 0 74.582 59.937 135.354 134.149 136.959a31.1 31.1 0 011.535.078c.485.005.954.073 1.44.073 42.522 0 80.562-19.466 105.709-49.952a137.818 137.818 0 007.893-10.559 137.026 137.026 0 0012.644-23.288c6.94-16.397 10.78-34.415 10.78-53.311s-3.84-36.915-10.78-53.313c-20.821-49.195-69.55-83.81-126.246-83.81z"/><path fill="#F5DB39" d="M1003.707 50H172.402C93.432 50 50 114.896 50 166.093v811.183C50 1105.463 92.755 1150 210.176 1150h793.646c80.549 0 146.179-34.166 146.179-133.917V193.866C1150 114.896 1097.75 50 1003.707 50zM1046 505.435l-2.349 1.565h-14.556c-.506 7-1.334 10.793-2.353 16.447-1.439 7.989-3.32 15.42-5.744 23.04l15.221 5.417L1026 580.77v-.036l-15.352-5.709c-3.107 5.921-7.48 11.652-11.197 17.186-3.717 5.534-8.203 10.856-12.486 15.952l10.148 10.313-22.368 22.22-10.436-10.379c-3.776 3.198-7.768 6.178-11.81 9.056-4.537 3.231-9.2 6.316-14.025 9.129a190.026 190.026 0 01-9.281 5.067l5.509 13.569-29.129 11.826-6.213-13.461c-12.335 3.854-26.358 6.306-39.358 7.37v14.585l1.601-1.459H832v-13.126c-14-1.142-28.563-3.871-41.469-8.033l-6.051 13.398-29.192-12.15 5.518-13.461c-11.819-6.23-23.014-13.677-33.168-22.312l-10.381 10.379-22.241-22.221 10.347-10.315c-9.043-10.762-16.726-22.543-23.21-35.141l-13.616 5.49-11.782-29.051 13.423-4.645C666.385 532.477 663.98 520 662.752 507H645v-35h17.752c1.227-14 3.986-26.602 8.119-39.555l-13.353-5.138 12.173-28.648 13.401 5.743c6.205-11.858 13.737-22.864 22.265-33.055l-10.354-10.313 22.228-22.157 10.354 10.339c10.685-9.036 22.52-16.819 35.079-23.218l-5.536-13.567 29.142-11.795 6.335 13.4c12.312-3.808 25.395-6.259 39.395-7.369V292h28v14.665c13 .88 21.637 2.651 31.57 5.239 3.311.862 6.984 1.815 10.214 2.856l5.814-13.685L936.654 313h.065l-5.594 13.762c8.865 4.661 17.337 10.102 25.35 16.112 2.671 2.003 5.301 4.138 7.872 6.293l10.275-10.304 22.251 22.188-10.384 10.353c6.805 8.06 12.832 16.705 18.131 25.824a196.593 196.593 0 015.06 9.275l13.616-5.474 11.742 29.097-13.344 4.338c3.802 12.367 6.252 23.536 7.402 37.536H1046v33.435zM181.689 783H161v-48h20.689c1.643-14 5.519-37.493 11.412-55.845l-18.974-7.18 17.155-40.523 19.066 8.15a257.977 257.977 0 0131.556-46.743l-14.683-14.652 31.358-31.327 14.669 14.673c15.217-12.771 31.857-23.76 49.64-32.866l-7.732-19.225 41.127-16.618 6.902 18.933c17.481-5.413 39.817-8.88 53.817-10.417V479h45.906l2.094 1.681v20.678c21 1.692 38.036 5.498 56.389 11.433l7.357-17.46L569.527 514h-.212l-8.014 17.544c8.387 4.405 16.481 8.502 24.302 13.764 3.911 2.631 7.74 4.99 11.504 7.826 3.764 2.835 7.449 5.584 11.063 8.618l14.623-14.782 31.384 31.333-14.675 14.678c12.856 15.083 23.787 31.791 32.852 49.651l19.22-7.844 16.705 41.187-19.01 6.084C694.626 699.526 698.107 721 699.7 735h20.623l.677 3.195v44.404l-.677.401H699.7c-1.248 14-3.733 29.214-7.38 43.279-1.216 4.688-2.561 9.226-4.032 13.807l18.89 7.915-17.092 40.952-19.059-8.019a261.25 261.25 0 01-22.723 35.872 255.012 255.012 0 01-8.803 11.018l14.674 14.645-31.385 31.42-14.626-14.689c-9.52 8.008-19.644 15.202-30.203 21.75-6.336 3.929-12.791 7.682-19.472 11.081l3.866 9.613 3.865 9.613-41.147 16.719-7.627-18.96c-2.71.827-5.47 1.527-8.215 2.265-6.12 1.645-11.246 3.15-17.526 4.351-9.098 1.739-19.704 3.012-26.704 3.816v20.594l-2.094-1.043H417v-19.551c-21-1.734-38.366-5.581-56.735-11.502l-7.48 19.002-40.777-17.156 8.035-19.116c-16.788-8.824-32.452-19.341-46.844-31.477l-14.645 14.632-31.346-31.364 14.688-14.646c-12.862-15.14-23.801-31.844-32.884-49.648l-19.199 7.753-16.732-41.19 18.996-7.425C186.728 819.859 183.246 804 181.689 783zM71 433.254l68.424-62.372c.356-23.125 18.617-41.646 41.811-41.646 19.788 0 36.081 13.524 40.728 31.872l89.282 38.517c7.566-7.001 17.599-11.307 28.725-11.307 6.416 0 12.44 1.462 17.885 4.008l154.192-156.101c-.034-.695-.113-1.381-.113-2.085 0-23.344 18.94-42.348 42.353-42.348 18.988 0 35.003 12.468 40.41 29.608l48.626 20.541c7.578-7.164 17.776-11.583 29.038-11.583 3.441 0 6.768.834 9.97 1.604L853.107 71h62.373L713.19 261.751c1.002 3.611 1.579 7.21 1.579 11.141 0 23.434-18.961 42.252-42.408 42.252-19.682 0-36.153-13.453-40.901-31.656l-46.796-19.793c-7.693 7.927-18.442 12.86-30.382 12.86-6.408 0-12.457-1.471-17.899-4.018L382.126 428.692c.03.653.098 1.294.098 1.954 0 23.418-18.926 42.327-42.321 42.327-19.827 0-36.445-13.599-41.069-31.994l-89.31-38.466c-7.559 7.039-17.666 11.378-28.816 11.378-7.367 0-13.237-1.881-19.269-5.181L71 490.849v-57.595z"/><path fill="#F5DB39" d="M564.86 909.212a195.464 195.464 0 006.871-6.02c.074-.068.144-.14.218-.208a195.164 195.164 0 006.421-6.186c.151-.152.294-.312.444-.466a195.944 195.944 0 005.89-6.237c.218-.242.423-.495.639-.738a194.466 194.466 0 005.38-6.266c.267-.326.517-.667.782-.995a193.75 193.75 0 004.903-6.291c.323-.435.624-.888.943-1.326a192.391 192.391 0 004.397-6.231c.374-.557.719-1.134 1.087-1.695 1.33-2.024 2.649-4.057 3.904-6.133.399-.661.765-1.345 1.157-2.011 1.179-2.004 2.354-4.012 3.463-6.062.426-.787.812-1.599 1.227-2.392 1.026-1.962 2.056-3.924 3.016-5.924.44-.916.834-1.858 1.26-2.783.879-1.909 1.768-3.812 2.586-5.753.459-1.089.865-2.205 1.305-3.305.725-1.811 1.466-3.615 2.138-5.453.444-1.217.83-2.46 1.25-3.688.601-1.757 1.226-3.503 1.778-5.282.411-1.323.758-2.673 1.14-4.008.491-1.714 1.01-3.415 1.455-5.148.372-1.448.675-2.922 1.013-4.383.383-1.651.798-3.291 1.139-4.958.318-1.554.562-3.134.842-4.702.286-1.601.608-3.19.854-4.804.263-1.726.447-3.477.665-5.217.185-1.481.411-2.95.562-4.442.216-2.133.345-4.292.491-6.445.076-1.12.197-2.228.254-3.354a196.123 196.123 0 000-19.875c-.057-1.117-.177-2.216-.252-3.329-.147-2.162-.276-4.329-.494-6.471-.149-1.469-.372-2.914-.553-4.373-.22-1.764-.407-3.538-.673-5.287-.243-1.592-.561-3.158-.842-4.738-.283-1.59-.532-3.192-.854-4.769-.334-1.635-.741-3.241-1.116-4.86-.346-1.494-.657-3.002-1.037-4.483-.431-1.677-.934-3.324-1.408-4.983-.398-1.391-.76-2.797-1.188-4.175-.536-1.727-1.143-3.421-1.726-5.127-.437-1.279-.839-2.574-1.302-3.841-.652-1.785-1.374-3.535-2.077-5.295-.46-1.153-.886-2.322-1.368-3.464-.798-1.892-1.665-3.746-2.521-5.607-.447-.972-.862-1.962-1.324-2.925-.936-1.95-1.94-3.859-2.938-5.772-.441-.846-.853-1.709-1.306-2.547-1.071-1.98-2.208-3.918-3.345-5.855-.432-.736-.836-1.49-1.278-2.221-1.219-2.016-2.503-3.989-3.793-5.956-.405-.618-.785-1.253-1.197-1.866-1.375-2.046-2.811-4.046-4.261-6.036-.367-.503-.713-1.024-1.084-1.523a193.224 193.224 0 00-4.785-6.136c-.304-.378-.592-.768-.899-1.143a194.55 194.55 0 00-5.299-6.17c-.243-.272-.473-.556-.717-.828-1.893-2.1-3.841-4.15-5.824-6.165-.173-.176-.337-.36-.51-.535a194.583 194.583 0 00-6.312-6.078c-.113-.104-.22-.214-.333-.318a195.032 195.032 0 00-6.794-5.95c-.049-.041-.097-.085-.146-.127-33.153-27.667-75.654-44.489-122.003-44.98-.696-.007-1.382-.053-2.08-.053-113.321 0-193.918 92.164-193.918 193.926 0 106.964 86.975 193.968 193.918 193.968.698 0 1.385-.045 2.081-.053 46.352-.492 88.857-17.328 122.01-45.01.026-.022.049-.044.074-.064zm-127.594-301.06c1.895-.064 3.734-.119 5.734-.031V608h-.22c2.02 0 4.007.417 5.975.685.184.025.37.098.554.124 1.855.267 3.675.657 5.479 1.071.287.066.578.133.864.202 1.708.415 3.379.916 5.033 1.457.369.121.743.234 1.11.361a67.64 67.64 0 014.6 1.798c.437.187.877.37 1.309.566a67.899 67.899 0 014.173 2.086c.49.265.979.53 1.462.806a67.162 67.162 0 013.758 2.326 66.579 66.579 0 014.916 3.587c.554.444 1.096.9 1.635 1.362a66.794 66.794 0 012.942 2.659c.568.546 1.114 1.111 1.662 1.677a66.101 66.101 0 012.54 2.753c.567.655 1.103 1.334 1.643 2.011a65.287 65.287 0 012.156 2.815c.544.762 1.046 1.551 1.558 2.336.613.942 1.23 1.878 1.795 2.853.509.877.964 1.783 1.433 2.685.488.94.991 1.87 1.434 2.836.459 1 .851 2.033 1.261 3.059.368.923.761 1.832 1.087 2.775.396 1.143.709 2.32 1.042 3.49.248.874.534 1.73.746 2.619.325 1.36.552 2.756.79 4.148.127.741.302 1.464.404 2.214.293 2.16.487 4.351.563 6.575a65.404 65.404 0 01-.116 6.727c-.055.807-.2 1.589-.285 2.388-.148 1.393-.267 2.793-.503 4.16-.188 1.092-.478 2.148-.72 3.221-.234 1.038-.419 2.094-.703 3.114-.344 1.24-.792 2.436-1.207 3.647-.28.814-.509 1.648-.819 2.448-.52 1.339-1.139 2.628-1.744 3.925-.292.626-.539 1.276-.85 1.891-.726 1.437-1.548 2.818-2.376 4.195-.259.431-.481.885-.75 1.309-.962 1.521-2.014 2.98-3.096 4.417-.183.243-.341.503-.527.744a66.93 66.93 0 01-3.787 4.439c-.107.116-.201.242-.309.357a66.838 66.838 0 01-4.481 4.345l-.05.048c-11.368 10.045-26.241 16.391-42.712 16.958-37.13 1.266-68.221-27.256-69.471-63.736-1.24-36.481 27.899-67.101 65.068-68.381zm44.851 316.888a219.868 219.868 0 01-13.64 2.475c-8.922 1.326-17.412 2.001-24.92 2.006-.181 0-.356-.009-.533-.017-61.153-.153-103-31.792-100.902-29.693l-6.421-75.944c-1.094-31.871 22.789-60.12 58.034-73.789l48.863 42.47 42.979-43.443c32.934 12.218 55.948 37.593 56.966 67.691l3.137 81.752c-14.828 11.364-35.784 19.738-56.628 24.893-2.315.573-4.63 1.106-6.935 1.599z"/><path fill="#64AFC6" d="M584.664 263.671l46.796 19.769c-.896-3.434-1.421-7.02-1.421-10.739 0-12.136 5.118-23.043 13.282-30.761l-48.627-20.541a42.257 42.257 0 011.961 12.741c.001 11.482-4.576 21.891-11.991 29.531zm-375.139 138.84l89.31 38.466c-.833-3.312-1.323-6.76-1.323-10.333 0-12.291 5.256-23.298 13.601-31.019L221.7 361.108c.846 3.341 1.344 6.824 1.344 10.434 0 12.246-5.22 23.24-13.519 30.969zm172.601 26.178l154.258-156.158c-13.843-6.482-23.569-20.21-24.354-36.306L357.821 392.326c13.852 6.475 23.568 20.203 24.305 36.363zM713.19 261.751L915.48 71h-62.373L682.331 232.152c14.95 3.597 26.773 14.871 30.859 29.599zM138.339 371.542c0-.223 1.082-.438 1.085-.66L71 433.254v57.595l90.44-82.141c-13.142-7.188-23.101-21.129-23.101-37.166z"/><path fill="#C54845" d="M160.388 408.708a42.218 42.218 0 0020.321 5.181c11.149 0 21.257-4.338 28.816-11.378 8.299-7.73 13.519-18.724 13.519-30.97 0-3.61-.498-7.093-1.344-10.434-4.646-18.348-21.203-31.872-40.99-31.872-23.194 0-41.981 18.521-42.337 41.646-.003.222-.033.437-.033.66-.001 16.038 8.906 29.979 22.048 37.167zm137.124 21.936c0 3.573.49 7.022 1.323 10.333 4.624 18.395 21.242 31.994 41.069 31.994 23.396 0 42.321-18.909 42.321-42.327 0-.66-.069-1.303-.098-1.955-.736-16.16-10.453-29.888-24.305-36.363-5.445-2.546-11.502-4.008-17.918-4.008-11.126 0-21.225 4.306-28.791 11.307-8.345 7.722-13.601 18.729-13.601 31.019zm238.871-158.113c5.442 2.547 11.491 4.012 17.899 4.012 11.939 0 22.689-4.945 30.382-12.872 7.415-7.64 11.992-18.049 11.992-29.531 0-4.439-.692-8.717-1.961-12.741-5.407-17.14-21.424-29.608-40.412-29.608-23.413 0-42.357 19.004-42.357 42.348 0 .704.071 1.39.105 2.085.783 16.097 10.51 29.825 24.352 36.307zm93.656.171c0 3.719.525 7.305 1.421 10.739 4.748 18.203 21.218 31.608 40.901 31.608 23.447 0 42.408-18.913 42.408-42.347 0-3.932-.577-7.721-1.579-11.332-4.086-14.728-15.909-26.193-30.859-29.789-3.202-.77-6.529-1.223-9.97-1.223-11.262 0-21.461 4.419-29.039 11.583-8.165 7.717-13.283 18.625-13.283 30.761z"/><path fill="#003750" d="M509.23 1011.282c2.745-.738 5.505-1.438 8.215-2.265l7.627 18.96-7.626-18.96c-2.711.827-5.471 1.527-8.216 2.265zm183.09-184.803c3.647-14.065 6.132-29.479 7.38-43.479h20.623H699.7c-1.248 14-3.733 29.414-7.38 43.479zM465 1040.043v-20.594c7-.804 18.654-2.076 27.751-3.816-9.098 1.74-20.751 3.012-27.751 3.816v20.594zm189.175-97.575L639.5 927.822zm35.093-258.813l19.01-7.682-19.01 7.682zm-126.914 317.99l-3.865-9.613zM189.815 885.926l19.2-7.753c9.083 17.804 20.024 34.508 32.887 49.648l-14.683 14.646 31.358 31.364 14.669-14.632c14.392 12.136 30.103 22.653 46.891 31.477l-7.942 19.116 40.963 17.156 7.108-19.002c18.369 5.921 35.735 9.768 56.735 11.502V1039h27v-83h-.4c-.696 0-1.794-.805-2.492-.805-106.942 0-194.123-87.433-194.123-194.397 0-101.762 81.106-194.141 194.427-194.141.698 0 2.589-.169 2.589-.162V479h-27v22.36c-14 1.537-36.336 5.004-53.817 10.417l-7.274-18.932-40.941 16.62 7.825 19.228c-17.783 9.106-34.377 20.102-49.594 32.873l-14.645-14.661-31.346 31.352 14.688 14.702c-12.179 14.379-22.728 30.068-31.553 46.843l-19.064-7.951-17.154 40.923 18.974 6.381C187.208 697.507 183.332 721 181.689 735H161v48h20.689c1.557 21 5.04 36.859 10.39 54.31l-18.996 7.526 16.732 41.09zm379.428-374.924l-41.02-17.17 41.02 17.17zm8.718 469.948c10.559-6.548 20.683-13.742 30.203-21.75l14.625 14.689-14.625-14.689c-9.52 8.008-19.644 15.202-30.203 21.75zm-11.741 30.308l-41.147 16.719zm-4.955-481.212zm109.762 350.876zm-64.294-220.614c.442.73.846 1.484 1.278 2.221-.432-.737-.837-1.491-1.278-2.221zm23.935 61.156c.322 1.576.57 3.178.854 4.769-.284-1.59-.533-3.192-.854-4.769zm-4.75-18.502c.428 1.378.79 2.784 1.188 4.175-.398-1.391-.76-2.796-1.188-4.175zm2.596 9.159c.38 1.481.691 2.989 1.037 4.483-.346-1.494-.656-3.002-1.037-4.483zm-63.735-100.645c.049.041.097.086.146.127-.049-.042-.097-.086-.146-.127zm69.809 148.893zm-15.143-75.134c.481 1.142.907 2.311 1.368 3.464-.46-1.152-.886-2.321-1.368-3.464zm14.891 65.196zm-.745-9.8c.217 2.142.347 4.31.494 6.471-.148-2.162-.277-4.329-.494-6.471zm-1.227-9.66c.267 1.749.454 3.523.673 5.287-.22-1.764-.406-3.538-.673-5.287zm-47.666-100.323c.245.271.474.555.717.828-.242-.273-.473-.557-.717-.828zm6.017 6.998c.307.375.594.766.899 1.143-.305-.377-.592-.768-.899-1.143zm-12.351-13.698c.174.175.337.359.51.535-.173-.175-.336-.36-.51-.535zm-6.645-6.396c.113.104.22.214.333.318-.113-.104-.22-.214-.333-.318zm43.881 59.151c.462.963.877 1.953 1.324 2.925-.447-.971-.861-1.962-1.324-2.925zm-4.245-8.32c.453.839.865 1.702 1.306 2.547-.44-.845-.852-1.708-1.306-2.547zm-9.612-15.898c.412.613.792 1.249 1.197 1.866-.406-.617-.785-1.253-1.197-1.866zm-5.345-7.56c.371.5.717 1.02 1.084 1.523-.367-.503-.713-1.023-1.084-1.523zm26.492 49.07c.463 1.267.865 2.562 1.302 3.841-.437-1.28-.839-2.575-1.302-3.841zm4.17 119.763c-.383 1.335-.729 2.686-1.14 4.008.411-1.323.757-2.673 1.14-4.008zm7.022-40.098c-.147 2.153-.275 4.311-.491 6.445.217-2.134.345-4.292.491-6.445zm-31.244 92.893c-.368.561-.713 1.138-1.087 1.695.373-.557.719-1.134 1.087-1.695zm21.304-43.504c-.42 1.228-.806 2.471-1.25 3.688.444-1.217.83-2.46 1.25-3.688zm-16.243 35.36c-.392.666-.758 1.35-1.157 2.011.4-.661.765-1.345 1.157-2.011zm4.689-8.455c-.415.794-.801 1.605-1.227 2.392.426-.786.812-1.598 1.227-2.392zm8.166-17.764c-.44 1.099-.846 2.215-1.305 3.305.459-1.09.865-2.206 1.305-3.305zm-3.891 9.057c-.426.925-.82 1.867-1.26 2.783.441-.917.834-1.859 1.26-2.783zm12.666-37.02c-.339 1.461-.642 2.935-1.013 4.383.371-1.448.674-2.922 1.013-4.383zM564.86 909.212l-.073.063c.025-.021.048-.043.073-.063zm32.493-34.733c-.32.438-.62.891-.943 1.326.324-.436.624-.888.943-1.326zm34.157-79.911c-.28 1.567-.524 3.148-.842 4.702.318-1.555.562-3.135.842-4.702zm1.519-10.022c-.217 1.74-.401 3.492-.665 5.217.263-1.726.447-3.476.665-5.217zM571.95 902.984c-.074.068-.144.14-.218.208.074-.068.144-.14.218-.208zm19.557-20.888c-.265.328-.515.669-.782.995.267-.326.517-.668.782-.995zm-6.163 7.261c-.217.243-.421.496-.639.738.218-.242.422-.495.639-.738zm-6.529 6.975c-.15.153-.293.313-.444.466.151-.152.293-.313.444-.466zm-82.666-257.651c.613.941 1.23 1.88 1.795 2.853-.566-.975-1.182-1.911-1.795-2.853zm-7.236 80.235zm3.521-85.386zm6.942 10.688c.489.94.991 1.871 1.434 2.836-.443-.966-.946-1.896-1.434-2.836zm-15.729-19.788zm20.553 31.949c.248.874.534 1.731.746 2.619-.211-.889-.497-1.745-.746-2.619zm-2.129-6.266c.368.923.761 1.833 1.087 2.775-.326-.943-.719-1.852-1.087-2.775zm-28.732-32.958zm-24.03-8.286zm-6.526-.628zm50.226 105.879zm-14.346-93.569zm-23.011-10.454z"/><path fill="#003750" d="M441.671 740.268c16.471-.568 31.956-6.914 43.324-16.958C473.883 733.112 458 739.366 444 740.175V608.241c-6-.088-4.339-.153-6.234-.089-37.169 1.281-66.558 31.9-65.316 68.38 1.25 36.48 32.091 65.002 69.221 63.736zm20.124-128.365zm5.909 2.361zm20.547 14.502zm17.486 34.38c.127.741.303 1.465.404 2.214-.102-.75-.277-1.473-.404-2.214zm.064 22.063c-.188 1.091-.478 2.148-.72 3.221.242-1.073.532-2.129.72-3.221zm-1.423 6.335c-.345 1.24-.792 2.436-1.207 3.647.415-1.211.863-2.407 1.207-3.647zm-7.746 17.416c-.963 1.52-2.013 2.981-3.096 4.417 1.082-1.437 2.134-2.896 3.096-4.417zm3.126-5.504c-.727 1.437-1.547 2.819-2.376 4.195.828-1.377 1.65-2.758 2.376-4.195zm2.594-5.817c-.52 1.339-1.139 2.629-1.744 3.925.604-1.297 1.224-2.586 1.744-3.925zm4.236-18.977c-.055.807-.2 1.589-.285 2.388.085-.8.23-1.581.285-2.388zM482.117 925.04zM444 792.368l42.19-43.264-43.285 43.443-49.016-42.47c-35.245 13.669-59.204 41.918-58.11 73.789l6.383 75.944c-2.098-2.098 40.341 29.541 101.495 29.693-.082-.003.345-.007.345-.007V792.368zm98.543 24.427l3.136 81.752c-14.828 11.364-35.784 19.738-56.627 24.894 20.844-5.155 41.8-13.529 56.628-24.893l-3.137-81.753z"/><path fill="#211915" d="M444 566.496c0 .492 88.238 17.314 121.391 44.98.049.041-.209.085-.16.127 2.31 1.932 4.423 3.914 6.641 5.95.113.104.143.214.257.318a193.406 193.406 0 016.274 6.078c.174.175.318.359.491.535a194.524 194.524 0 015.814 6.165c.245.271.47.555.713.828a196.938 196.938 0 015.297 6.17c.307.375.593.766.897 1.143a194.338 194.338 0 014.784 6.136c.372.5.717 1.02 1.084 1.523 1.45 1.99 2.886 3.99 4.261 6.036.412.613.792 1.249 1.197 1.866 1.29 1.968 2.573 3.94 3.793 5.956.441.73.846 1.484 1.278 2.221 1.137 1.937 2.274 3.875 3.345 5.855.453.838.865 1.702 1.306 2.547.999 1.913 2.002 3.823 2.938 5.772.462.963.877 1.953 1.324 2.925.856 1.861 1.723 3.715 2.521 5.607.482 1.142.908 2.311 1.368 3.464.703 1.76 1.425 3.51 2.077 5.295.463 1.267.865 2.562 1.302 3.841.583 1.706 1.19 3.4 1.726 5.127.428 1.378.79 2.784 1.188 4.175.474 1.659.978 3.306 1.408 4.983.38 1.481.691 2.989 1.037 4.483.375 1.619.782 3.226 1.116 4.86.322 1.576.57 3.179.854 4.769.282 1.579.6 3.146.842 4.738.267 1.749.453 3.523.673 5.287.182 1.459.404 2.905.553 4.373.217 2.142.347 4.31.494 6.471.076 1.112.195 2.211.252 3.329a196.133 196.133 0 010 19.875c-.057 1.126-.178 2.233-.254 3.354-.146 2.153-.274 4.311-.491 6.445-.151 1.491-.377 2.96-.562 4.442-.217 1.741-.402 3.491-.665 5.217-.247 1.614-.568 3.203-.854 4.804-.28 1.567-.524 3.148-.842 4.702-.341 1.667-.756 3.306-1.139 4.958-.339 1.461-.641 2.935-1.013 4.383-.445 1.732-.964 3.434-1.455 5.148-.383 1.335-.73 2.685-1.14 4.008-.552 1.779-1.177 3.525-1.778 5.282-.421 1.228-.806 2.471-1.25 3.688-.671 1.838-1.413 3.641-2.138 5.453-.44 1.099-.846 2.216-1.305 3.305-.818 1.941-1.707 3.844-2.586 5.753-.426.924-.82 1.866-1.26 2.783-.96 2.001-1.989 3.962-3.016 5.924-.415.794-.801 1.605-1.227 2.392-1.108 2.05-2.283 4.057-3.463 6.062-.392.666-.757 1.35-1.157 2.011-1.255 2.076-2.574 4.109-3.904 6.133-.368.561-.714 1.138-1.087 1.695a195.562 195.562 0 01-4.397 6.231c-.32.438-.62.891-.943 1.326a194.843 194.843 0 01-4.903 6.291c-.265.328-.515.669-.782.995a195.917 195.917 0 01-5.38 6.266c-.217.243-.421.496-.639.738a195.944 195.944 0 01-5.89 6.237c-.151.153-.293.313-.444.466a196.205 196.205 0 01-6.421 6.186c-.074.068-.144.14-.218.208a196.502 196.502 0 01-6.871 6.02c-.025.02-.048.9-.073.921C531.634 937.814 489.952 956 443.6 956h.4v83h21v-19.551c7-.804 17.607-2.076 26.704-3.816 6.28-1.2 11.929-2.706 18.049-4.351a238.857 238.857 0 007.954-2.265l7.495 18.96 41.082-16.719-3.898-9.613-3.882-9.613c6.682-3.4 13.128-7.152 19.464-11.081 10.559-6.548 20.679-13.742 30.199-21.751l14.623 14.689 31.384-31.42-14.675-14.646a253.727 253.727 0 008.803-11.021 261.385 261.385 0 0022.723-35.879l19.059 8.006 17.092-40.977-18.89-7.965c1.472-4.581 2.816-9.018 4.032-13.707 3.647-14.065 6.132-29.279 7.38-43.279H721v-44.805l-.677-3.196H699.7c-1.594-14-6.7-35.523-12.7-52.989v.822l20.144-7.271-16.138-40.984-18.937 7.941c-9.065-17.86-19.855-34.529-32.711-49.611l14.745-14.676-31.35-31.367-14.608 14.695a267.333 267.333 0 00-11.058-8.802 263.027 263.027 0 00-11.508-8.199 260.95 260.95 0 00-24.317-14.512l7.98-19.043-41.019-17.17-7.88 18.28C501.989 506.178 483.904 500 464.042 500H465v-21h-21v87.496z"/><path fill="#211915" d="M484.995 723.31c.017-.015-.273-.033-.256-.048 1.562-1.38 2.904-2.83 4.328-4.345.108-.115.125-.241.232-.357a66.067 66.067 0 003.749-4.439c.187-.24.325-.501.508-.744a66.469 66.469 0 003.086-4.417c.269-.425.486-.879.745-1.309.828-1.376 1.647-2.758 2.373-4.195.311-.616.557-1.265.849-1.891.605-1.297 1.223-2.586 1.743-3.925.31-.8.539-1.635.819-2.448.415-1.211.863-2.407 1.207-3.647.284-1.02.469-2.075.703-3.114.242-1.073.532-2.13.719-3.221.235-1.366.355-2.767.502-4.16.085-.799.229-1.581.285-2.388a65.4 65.4 0 00.116-6.727 65.499 65.499 0 00-.563-6.575c-.101-.749-.277-1.473-.404-2.214-.238-1.393-.465-2.788-.79-4.148-.212-.888-.498-1.745-.746-2.619-.333-1.17-.646-2.347-1.042-3.49-.326-.943-.72-1.853-1.087-2.775-.41-1.026-.802-2.059-1.261-3.059-.443-.965-.945-1.896-1.434-2.836-.468-.901-.924-1.808-1.433-2.685-.565-.973-1.181-1.912-1.795-2.853-.512-.785-1.014-1.574-1.558-2.335a66.942 66.942 0 00-2.156-2.815c-.541-.677-1.077-1.356-1.643-2.011a66.74 66.74 0 00-2.54-2.753c-.548-.566-1.094-1.13-1.662-1.677a66.794 66.794 0 00-2.942-2.659 64.425 64.425 0 00-1.635-1.362 67.57 67.57 0 00-4.916-3.587 67.756 67.756 0 00-3.758-2.326 71.397 71.397 0 00-1.462-.806 67.899 67.899 0 00-4.173-2.086c-.432-.196-.872-.378-1.309-.565a67.623 67.623 0 00-4.6-1.796c-.367-.127-.74-.236-1.11-.357a68.003 68.003 0 00-5.033-1.449c-.286-.069-.577-.121-.864-.187a67.809 67.809 0 00-5.479-1.04c-.183-.026-.37.841-.554.816-1.968-.267-3.957.315-5.973.315H444v130.175c14-.81 29.883-7.064 40.995-16.866zm57.548 93.485c-1.017-30.098-23.42-55.473-56.354-67.691L444 792.368v137.128s-.446.005-.364.008c.177.008.046.017.227.017 7.508-.004 15.845-.679 24.767-2.006a217.623 217.623 0 0013.563-2.475 221.467 221.467 0 006.897-1.599c20.844-5.155 41.78-13.53 56.608-24.894l-3.155-81.752z"/><path fill="#4ABCDE" d="M986.49 371.411l10.385-10.346-10.385 10.346zM846 626.728c-76-1.604-135.67-62.377-135.67-136.959 0-75.585 60.771-137.123 136.364-137.123 56.695 0 105.045 34.615 125.866 83.81-20.821-49.195-68.22-83.811-124.915-83.811-1.005 0-1.645.13-1.645.152V292h-14v14.665c-14 1.11-27.084 3.561-39.395 7.37l-5.897-13.399-29.362 11.796L762.772 326c-12.559 6.399-24.449 14.186-35.134 23.222l-10.381-10.331-22.241 22.174 10.347 10.346c-8.527 10.191-16.064 21.263-22.268 33.12l-13.402-5.612-12.174 28.909 13.353 4.616c-4.134 12.954-6.892 25.556-8.12 39.556H645v35h17.752c1.227 13 3.632 25.477 7.425 37.812l-13.423 5.036 11.781 28.856 13.614-5.588c6.484 12.597 14.164 24.33 23.206 35.092l-10.354 10.29 22.228 22.209 10.354-10.385c10.154 8.635 21.294 16.08 33.113 22.309l-5.628 13.46 28.973 12.149 6.489-13.398c12.907 4.162 27.469 6.891 41.469 8.033V686H861.6 846v-59.272zm54.157 38.776l5.412 13.461 29.127-11.827-29.127 11.826zm52.311-26.131c-4.537 3.231-9.185 6.316-14.01 9.13 4.826-2.814 9.474-5.899 14.01-9.13zm69.225-203.864l13.345-5.382-13.345 5.381z"/><path fill="#4ABCDE" d="M845.934 626.878c-.486 0-.955-.068-1.44-.073.478.034.954.074 1.44.073 42.522 0 80.562-19.466 105.709-49.952-25.147 30.486-63.187 49.952-105.709 49.952zm54.223 38.626c-12.335 3.854-25.25 6.306-38.557 7.37 13.308-1.064 26.222-3.516 38.557-7.37zM972.18 543.08zm-7.932 87.236l10.377 10.378 22.25-22.22-22.25 22.22zm34.253-38.114a185.094 185.094 0 0010.248-17.195l13.453 5.69-13.453-5.691a185.199 185.199 0 01-10.248 17.196zm-63.805 74.936l-5.512-13.569zm92.046-144.473c-1.439 7.988-3.32 15.811-5.744 23.431 2.424-7.619 4.305-15.442 5.744-23.431z"/><path fill="#4798B1" d="M1019 434.471v.518l14.691-5.122-11.068-28.967-13.279 5.539c-1.607-3.142-4.369-6.202-6.136-9.241-5.3-9.119-12.207-17.744-19.207-25.804v.008l11.63-10.342-21.627-22.172-9.96 10.333c-2.571-2.155-5.037-4.226-7.708-6.23-8.013-6.01-16.389-8.992-25.254-15.992h.038l5.646-14h.01l-28.982-11.926-5.611 13.573c-3.23-1.041-7.302-1.938-10.613-2.8-9.934-2.587-18.569-4.303-31.569-5.182V292h-14v60.796c0-.022.451-.152 1.455-.152 56.695 0 104.664 34.616 125.485 83.811 6.94 16.398 10.4 34.417 10.4 53.313s-4.03 36.914-10.97 53.311c-3.47 8.199-7.811 15.992-12.739 23.288-2.464 3.648-5.147 7.171-7.941 10.559-25.147 30.486-63.211 49.952-105.732 49.952-.486 0-.975-1.403-1.453-1.437-.509-.036.334-1.442-.181-1.442H846v62h14v-13.126c13-1.064 27.022-3.517 39.357-7.37l5.812 13.46 29.328-12.61L929.053 652h.066c3.14 0 6.266-2.508 9.307-4.282 4.826-2.814 9.49-5.507 14.027-8.737 4.041-2.878 8.012-5.663 11.788-8.86l10.381 10.475 22.251-22.171-10.384-10.29a185.976 185.976 0 0012.012-15.945c3.717-5.534 7.04-11.268 10.147-17.189l13.353 5.694v.002l12.22-28.987-13.272-5.612c2.424-7.62 5.782-15.443 7.221-23.431 1.019-5.655-2.169-10.797 3.831-16.645V507h14v-35h-16.905c-1.151-14-3.096-25.163-10.096-37.529z"/></svg>