<svg xmlns="http://www.w3.org/2000/svg" width="1757" height="2710"><g transform="matrix(54 0 0 54 -47559.618 -28659.2)" fill="none"><ellipse ry="4.6" rx="8" cy="568.6" cx="889.8" opacity=".1" fill="#414046"/><ellipse ry="4.6" rx="8" cy="576.2" cx="905.1" opacity=".1" fill="#414046"/><path d="M896.5 548c.2.3.4.8-.2.9-.5.1-.8-.2-.8-.5-.1-.3-.1-.6-.2-.6-.1-.1-.8-.8-.8-1 0-.2.7-.4.9-.1.2.3 1.1 1.3 1.1 1.3z" fill="#eec19a"/><path d="M896.5 548c.2.3.4.8-.2.9-.5.1-.8-.2-.8-.5-.1-.3-.1-.6-.2-.6-.1-.1-.8-.8-.8-1 0-.2.7-.4.9-.1.2.3 1.1 1.3 1.1 1.3z" fill="#896749"/><path d="M897.8 550c-.3-.3-.3-.3-.3-.4 0-.1.2-.6 0-.8-.2-.3-.2-.7-.4-.7s-.2.1-.3.3c-.1.2-.1.3-.3.2-.2 0-.7 0-.8.1-.2.2.1.3.1.3s-.1 0-.1.2.2.2.2.2-.1.1 0 .2c0 .1.2.2.2.2s-.2 0-.1.2.3.4.6.5c.1 0 .3.1.4.3h.8v-.8z" fill="#eec19a"/><path d="M896.9 550.7c-.2-.1-.3-.3-.4-.3-.3 0-.6-.3-.6-.5-.1-.2.1-.2.1-.2l-.2-.2v-.2s-.1 0-.2-.2c0-.2.1-.2.1-.2s-.2-.1-.1-.3c.1-.1.6-.1.8-.1.2 0 .3 0 .3-.2s0-.3.1-.3c-.1.2.1.5-.1.6-.1 0 0 .7-.2.8-.1 0-.2-.7-.3-.7-.1 0-.3-.1-.4-.1-.2.1.1.3.1.3-.1 0 0 .3.1.3-.2.2.4.8.6.9.2.1.4.2.6.4h-.3v.2z" opacity=".39" fill="#eec19a"/><path d="M895.2 546.2c.5.7 1.5 1.8 1.6 1.9.1.2 0 .6 0 1 0 .3-.1.7-.3.6-.2-.1-.3-1-.3-1.1 0-.1-.2 0-.4-.2s-.5-1.2-.5-1.2l-.1-1z" fill="#af7f58"/><path d="M896.3 548.4c.2.3-.2 1.1.3 1.2h-.2c-.2-.1-.3-1-.3-1.1 0-.1-.2 0-.4-.2l-.1-.1c.6.5.7.2.7.2z" opacity=".39" fill="#eec19a"/><path d="M890.1 564.6c.7.2 1-.2 1.2.1.3.5-.7 1.1-.9.7-.2-.4-.3-.8-.3-.8z" fill="#1c2329"/><path d="M890.7 563.7c.4 1.4.7 1.1 1.3 1.8.7.9 1.4 1.1 1.7 1.4.3.3.4.6-.2.7-.6 0-1.7-.1-2.1-.7-.7-.9-2.1-.5-2.1-.9s.3-.9.2-1.6c-.1-1.2 1-1.3 1.2-.7z" fill="#36444f"/><path d="M894.1 567.2c0 .6-.5.5-1.2.5-1.5-.1-1.7-.9-2.3-1.1l-.2.2c-.4-.2-1.2-.1-1.5-.5 0-.3 0-.5.1-.6.2-.2.5-.1 1.3.2.5.2 1.9.6 2.3.7.5 0 1.5.4 1.5.6z" fill="#161c21"/><path d="M889.2 564.9c.1-.1.2-.6.3-.1.2.7 1 .3 1.4.1.1-.1.4-.3.5-.1.2.3.5.7.6.8.7.9 1.5 1 1.8 1.2.3.2.4.7-.2.8-.6 0-1.8-.1-2.3-.6-.7-.9-2.5-.7-2.5-1.1.1-.4.3-.8.4-1z" fill="#1c2329"/><path d="M889.9 536.6c.6-.4 1.1-.7 1.8.2.3.4 1 1.7 1.1 2.2.3.9 1 2.5 1.5 3.6.4.7-.2 1.5-.7 1.7-1.2.4-1.6-1.1-2.1-1.9-.8-1.7-2.9-5-1.6-5.8z" fill="#77a6f7"/><path d="M891.1 555.4c-1.1-.2-1.9 1.8-1.9 3s-.1 6.7-.1 6.7c0 .1 1.9 1.2 2.7.4 0-.6.2-8.1.3-9 .1-.8-1-1.1-1-1.1z" fill="#1c2329"/><path d="M890 561.8c.2-4.4.5-4.7.5-4.7s0-.6-.1-1.6c-.7.5-1.2 2-1.2 2.9 0 1.2-.1 6.7-.1 6.7s.4.3.8.4c0-1.1 0-2.4.1-3.7z" fill="#000517"/><path d="M892.2 546.1c.3 4.7-.1 8.9-.1 10.3 0 1.2-2.2 1.6-2.4.4-.3-1.2-1.8-8.2-1.6-9.5.2-1.2.5-2.4 2-2.5 1.5-.1 2.1.4 2.1 1.3z" fill="#1c2329"/><path d="M890.2 544.8s-.1 0 0 0c-1.6.1-1.8 1.3-2.1 2.5-.2 1.2 1.3 8.3 1.6 9.5.1.5.4.7.7.7l.1-.3s-.4-6.3-.3-12.4z" fill="#000517"/><path d="M887.3 566.3c.1 1.1.3 1.5.5 2.7 0 0 .6 1.7.6 2.1 0 .4 0 .4-.1.5h-.3c-.3 0-1.5 0-1.7-.8-.1-.8-.1-1.8-.2-2-.2-.2-.4-1.1-.3-1.3.1-.2.2-.4.2-.5 0-.3.1-.4.1-.9-.1-.5 1.1-.8 1.2.2z" fill="#36444f"/><path d="M887.4 568.5c-.4 0-.8.1-1 0-.3-.4-.6-1.8-.6-1.4-.1 1 .1 1.6.3 2 .1.3.1 1.2.1 1.6 0 .4.4 1 1.3 1.4 1 .4 1.3 0 1.3-.5 0-.4-.6-1.5-.7-2-.2-.5-.4-1.2-.7-1.1z" fill="#161c21"/><path d="M885.8 567.5c0-.4.1-.7.2-.9.1-.2.1.1.1.3 0 .2.1.7.5 1 .1 0 .1.1.1.2 0-.3.8-.5.9-.1-.1-.4 0-.6-.1-1.1.4.4.4 1.5.6 1.9.2.4.6 1.4.8 2.6.1.4-.4.8-1.4.3-1-.5-1.1-.9-1.1-1.6 0-.4-.1-1.2-.2-1.5-.3-.3-.4-.8-.4-1.1zm3.8-18.7c0 4.7-.5 9-.9 10.2-.3 1.2-2.1 1.5-2.3.3-.2-1.2-1.6-8.5-1-9.5.6-1.1.6-2.4 2.1-2.4s2 .5 2.1 1.4z" fill="#1c2329"/><path d="M887.9 547.4h-.3c-1.5 0-1.5 1.3-2.1 2.4-.6 1.1.8 8.3 1 9.5.1.4.3.6.6.7.1-.6.3-.7.3-.7s-1.3-5.7.5-11.9z" fill="#000517"/><path d="M887.8 558.1c-1.1-.2-2 1.2-2 2.4s-.1 6.3-.1 6.3.5 1.9 2.1 2.4c.3-.3.2-.7.2-.7s.6-8.7.7-9.5c0-.8-.9-.9-.9-.9z" fill="#1c2329"/><path d="M887 558.2c-.7.4-1.2 1.4-1.3 2.3 0 1.2-.1 6.3-.1 6.3s.2.7.7 1.4c.1-8 .9-8.9.9-8.9s-.1-.4-.2-1.1z" fill="#000517"/><path d="M892.4 548.8c0 .2-.3.4-.8.5-.6.2-2.2 1-3 1.1-1.9.2-3.2-.5-3.1-.7.6-1.1.9-1.8.9-2.8l.1.1c.8 1 1.9.9 3.2.5 1-.3 2.1-.7 2.5-1.1l.1-.1c-.1.5.1 1.8.1 2.5z" fill="#1c2329"/><path d="M891.9 542.1s0 .2.1.4c.1.5.3 1.3.2 2.3 0 .6-.1 1.1-.2 1.6-.4.4-1.5.8-2.5 1.1-1.3.4-2.4.5-3.2-.5l.1-2.2s-1.9-3.7-1.8-4.9c.1-1.6 0-2 1.2-2.4 3.2-1.1 4.5-1.4 5.4-.4 0 0 1.1 2.4 1 3.6 0 .6-.2 1-.3 1.2.1.1 0 .2 0 .2z" fill="#c2d8e5"/><path d="M888.5 536.6c1.9.1 2.8 2.7 2.8 4.2 0 .8.1 4 .2 6.6.1 2.1 1 3.6 1 2.8 0-.6-.1-3.6-.1-6.5 0-2 0-3.9-.1-4.3-.1-1.3-.1-2.9-1.7-3.1-1.3-.2-2.1.3-2.1.3z" fill="#77a6f7"/><path d="M889.2 546.7c-.1-1.1-.3-6.8-1.5-8.8-.4-.7.5-1.2.5-1.2l-.7.2s-2.4.9-3 1.5c-.7.7.3 3.3.9 4.8.5 1.3.5 1.2.7 3.1.2 1.7-.4 2.6-.7 3.4-.2.6-.6 1.1.2 1.7.4.3 1.1.5 1.7.5.9.1 1.9-1.5 1.9-3 .1-.8 0-1.7 0-2.2z" fill="#1f303d"/><path d="M889.2 546.7c-.1-1.1-.3-6.8-1.5-8.8-.4-.7.5-1.2.5-1.2l-.7.2s-2.622.604-3 1.5c-.384.912.3 3.3.9 4.8.5 1.3.5 1.2.7 3.1.2 1.7-.4 2.6-.7 3.4-.2.6-.6 1.1.2 1.7.4.3 1.1.5 1.7.5.9.1 1.9-1.5 1.9-3 .1-.8 0-1.7 0-2.2z" fill="#77a6f7"/><path d="M888 536.5c-1.4.6-1.3 2-1 3.2h.7l-.5.5s1.7 3.7 1.9 5.1c.2 1.4.2 1.9.2 1.9s0-3.5-.6-6.2c-.5-2.6-.8-2.8-1-3.3-.2-.6.1-.6.4-.8.1-.2-.1-.4-.1-.4zm.7-.2c2.2.1 3 2.3 3 2.3l-.5.3.6.3s-.4 3.8-.4 5.3c0 0 .1-3.5-.5-5s-1.1-2.4-1.7-2.8l-.5-.4z" fill="#1d415c"/><path d="M889.7 538.2c.9 1.7 1.4 8.6 1.4 8.6l-.6 1.3-1.1-.8v-4.7c0-1.1-.1-4.1-.1-4.1l.4-.3z" fill="#ec4b4a"/><path d="M888.9 537.9c.5-.4 1.1-.2 1.1-.2l-.1.9-.5.2-.5-.9z" fill="#ce4241"/><path d="M887.5 536.6l-.1.2s0 1.6 1.1 2.3c.2-1 1-1.4 1-1.4s.5.3.6.9c.2-.3.2-.7 0-1.3-.2-.6-.8-.8-.8-.8l-1.8.1z" fill="#fff"/><path d="M890.5 535.3l-.5 1.5-.2.5s-.3.5-.8.4c-.7-.1-1.1-.5-1.3-.9-.1-.2-.1-.4-.1-.4l.15-1.568-.145-.92.395-.812z" fill="#9b6f4b"/><path d="M890.5 535.3l-.5 1.5c-1-.1-2-2.1-2.2 0-.1-.2-.1-.4-.1-.4l.4-3.3 2.4 2.2z" opacity=".39" fill="#eec19a"/><path d="M887.6 532.9c.1-1.1 1.1-1.9 2.2-1.8.75.068 1.397.184 1.678.834.131.305.154 1.015.122 1.366 0 .2-.1.9-.1 1.1-.1 1.3-.8 2.6-1.4 2.3-.7-.2-2.7-1.8-2.5-3.8z" fill="#c68d63"/><path d="M887.6 532.9c.1-1 .9-1.8 1.9-1.8.8.2 1.4 1.3 1.3 2.5-.1.7 0 .8.1 1.1.1.3-.3.3-.3.5-.1.7-.2 1.1-.4 1.6-1-.4-2.8-1.9-2.6-3.9z" fill="#9b6f4b"/><path d="M887.7 533.2c.1 0 .2 0 .2.1-.2 0-.3.5-.1.7-.3.3 0 .6 0 .7h-.1c-.1 0-.3-.1-.3-.2l-.1-.9c.1-.3.2-.4.4-.4z" fill="#c68d63"/><path d="M887.7 534c.313.615.35.571.2.7l-.044.111c-.038.093-.356-.211-.356-.311l-.1-.9c0-.2.1-.3.3-.4.1 0 .1 0 .2.1h-.1c-.1-.1-.6 0-.1.7z" opacity=".2" fill="#eec19a"/><path d="M885.1 537.9c-.3.2-.5.3-.7.5-.7.7.3 3.3.9 4.8.5 1.3.5 1.2.7 3.1.2 1.7-.4 2.6-.7 3.4-.2.6-.6 1.1.2 1.7.2.2.6.3 1 .4.2-.8.6-2.6.6-5.5.2-4.1.2-7.9-2-8.4z" fill="#77a6f7"/><path d="M882.3 551.6c-.5-.2-1.1 1-1.2 1.3-.1.3 0 .6 0 .8v2.9c0 .1-.1.5 0 .6.1.1.4.3.6.3.9.5 1.7 1 2.6 1.5.7.4 1.3.8 2 1.2.3-1.6.7-3.3 1-4.9 0-.2.2-.6.1-.7 0-.1-.3-.2-.4-.2-.9-.5-1.7-1-2.6-1.6l-2.1-1.2z" fill="#21262e"/><path d="M887.2 556.5c0-.3.1-.5.1-.8 0-.3.3-.9.2-1.1-.1-.2-5.3-3.1-5.5-3.1-.4-.2-.7.1-.8.4-.1.5-.5 1.7-.3 2.2.1.2.2.4.4.6.2.4.5.7.7 1.1.2.3.4.9.8 1 .3.1.7 0 1-.1.5 0 1-.1 1.4-.1.7 0 1.4 0 2-.1z" fill="#2f3742"/><path d="M886.9 555c-.5 1.3-.8 4.7-.7 5.1v.2c.1 0 .5-.6.6-.7.3-.3.8-.3.8-.7.1-.9 0-1.8 0-2.7v-1.1c.1-.9-.5-.7-.7-.1z" fill="#2a313b"/><path d="M885.5 553.8c-.1-.8-.8-1.8-1.7-1.9-.3 0-.6.1-.8.3-.2.2 0 .6 0 .6s.4-.3.5-.3c.3-.1.9.3 1.1.5.2.3 0 .8.4.9.3 0 .3 0 .5-.1z" fill="#495566"/><path d="M884.4 552.9c.2.2.3.5.4.8.1.1.3.2.4.2-.1-.8-.8-1.7-1.6-1.9-.2 0-.5 0-.7.2-.2.3 0 .4.2.5.1-.7 1.1 0 1.3.2zm-1.6 4.2c-.1-.1-.2-.3-.2-.4v-.9l.4.3v.9c.1.1-.1.2-.2.1z" fill="#21262e"/><path d="M882.7 557.1c-.1-.1-.2-.2-.2-.4v-.9l.4.3v.9c.1.2 0 .2-.2.1z" fill="#495566"/><path fill="#2f3742" d="M883.1 556.7l-.7-.5v-.1l.7.5z"/><path fill="#5f6f84" d="M882.5 555.8h.2l.4.3h-.1z"/><path d="M886.8 555.8c.2-.4.8-.2.8-.2s.2-1.1-.2-.9c-.4.1-.6 1.1-.6 1.1z" fill="#21262e"/><path d="M884.8 552.1c.2.3.5.8 1 .7-.4-.8-.6-1.5-1.4-2-.1 0-.2-.2-.3-.2-.2 0 0 0-.1.1-.2.2-.2.5-.1.7.1.5.5.6.9.7z" fill="#af7f58"/><g fill="#eec19a"><path d="M884.4 548.7c-.1.7-.3 1.4-.2 2.1 0 .2.3 1.1-.3 1-.3-.1-.5-.8-.6-1-.2-.7-.4-1.4-.4-2.1h1.5z"/><path d="M883 548.7c0 .9.2 1.8.6 2.6-.1-.6-.1-1.2-.2-1.8 0-.2 0-.6-.1-.7-.1-.1-.2-.1-.3-.1z" opacity=".39"/></g><path d="M885.2 552.3c-.4.2-.8.2-1.1.2-.1 0-.6.1-.7 0-.2-.2-.3-.8-.3-1.1.1-.8 1-.6 1.4-.2.3.3.5.7.7 1.1z" fill="#af7f58"/><path d="M884.8 553.5c-.4-.1-.5-1.3-.1-1.3.5 0 .3 1.3.1 1.3z" fill="#af7f58"/><path d="M884.4 553.3c-.4-.1-.5-1.3-.1-1.3.5.1.3 1.4.1 1.3z" fill="#af7f58"/><path d="M884 553.2c-.4-.1-.5-1.3-.1-1.3.5 0 .3 1.3.1 1.3z" fill="#af7f58"/><path d="M883.7 553c-.3 0-.6-.9-.3-1 .4 0 .5 1 .3 1z" fill="#af7f58"/><path d="M883.4 552.5s-.7-1.2 0-1.6c-.3.5 0 1.6 0 1.6z" opacity=".39" fill="#eec19a"/><path d="M885.3 538c1 .1 1.4 2.2 1 3.7-.5 1.5-1.4 5.1-2.7 4.7-1.3-.4-.6-1.8-.5-2.8.2-1.9.6-5.8 2.2-5.6z" fill="#77a6f7"/><path d="M884.6 538.6c.2-.4.8-.4 1.2-.4-.1-.1-.3-.2-.5-.2-1.6-.2-2 3.7-2.2 5.6-.1 1-.7 2.3.3 2.7-.1-2.7-.3-5.3 1.2-7.7z" fill="#77a6f7"/><path d="M883.1 550v.9s.2.2.7.2c.7.1.9-.2.9-.2l-.1-1.2-1.5.3z" fill="#fff"/><path d="M882.8 545.3c0 3 .1 3.8.1 5.2.2.4 1.6.6 2 .1 0-.8.2-4.3 0-5.1-.2-.7-2.1-1.8-2.1-.2z" fill="#77a6f7"/><path d="M883.3 544.5c-.3 0-.6.3-.6.8 0 3 .1 3.8.1 5.2.1.1.3.3.5.3-.1-.1-.2-.2-.2-.3.3-1.6-.6-3.6-.1-5.1.1-.3.3-.6.3-.9z" fill="#77a6f7"/><path d="M891.6 532.7l-.2-.6s-.5.9-1.4.6c-1.3-.4-1.8-.3-1.7.3l.1.4c.1.3-.1.5-.4.5 0 0 .2-.6-.2-.6-.2 0-.3.1-.3.1s-.5-1.1-.1-1.7c.1-.1.2-.2.3-.4.6-.6 2.7-.4 3.3 0 .9.4.6 1.4.6 1.4z" fill="#2d2d2c"/><path d="M887.5 531.9c.1-.2.4-.5 1-.6-.5.5-.5 1.1-.2 1.6v.2c0 .1 0 .2.1.3v.1c.1.3-.1.5-.4.5 0 0 .2-.6-.2-.6-.2 0-.3.1-.3.1v-.2c-.2-.6-.2-1.1 0-1.4z" opacity=".4" fill="#706b5f"/><path d="M894.7 547.3c.3.6.5.8.5.8s.3.1.7-.1c.6-.3.6-.6.6-.6l-.6-1-1.2.9z" fill="#fff"/><path d="M892.7 544.1c1.5 2.6 1.5 2.7 2.2 3.8.4.3 1.7-.4 1.7-1.1-.4-.7-1.6-3.5-2.1-4.1-.5-.6-2.6 0-1.8 1.4z" fill="#77a6f7"/><g fill="#eec19a"><path d="M906.2 563.2c-.5 0-.8.1-.8.7 0 .3.1.6.2.9v.8c0 1.2.2 2.8.5 4 .2 1.2.5 2.5.4 3.7-.1.9-.7 1.9-1.1 2.7-.1.2-.2.4-.4.5-.1.1-.4.2-.5.3-.1.4 1.2.2 1.4.2.2 0 .6.1.7 0 .1-.1.1-.3.1-.4 0-.5 0-1 .5-1.1 1.2-.3.4-1.2.3-1.9 0-1.1.2-2.2.4-3.3.2-1.4.5-2.9.1-4.3-.2-.7-.5-1.3-.6-2.1 0-.7-.7-.7-1.2-.7z"/><path d="M907.7 574c-.3-.5 0-1.4 0-1.9.1-1.1.3-2.2.4-3.2.1-1 .2-2.1-.2-3.1-.2-.5-.4-1-.5-1.5-.1-.6-.1-1-.8-1 .1.6.2 1.1.4 1.6.2.3.4.7.5 1.1.3.9.2 1.8.1 2.7-.1 2.3-.6 4.5-.1 6.7.8-.4.5-1 .2-1.4z" opacity=".39"/></g><path d="M908 575c-.2.6-.6 1.4-.5 2.1h-.2c0-.2 0-1.7-.3-1.5.3-.2.7-.4 1-.6z" fill="#ce4241"/><path d="M907.8 574c-.6-.6-1.2.9-1.5 1.3-.2.3-.4.6-.7.8-.1.1-.4.4-.4 0-.2.1-.5.2-.7.4-.3.2-.1.4.1.4.6.1 1.4.2 1.9.1s.1-1 .5-1.4c.3-.2.8-.2 1-.5.1-.3-.1-.8-.2-1.1z" fill="#da4645"/><g fill="#eec19a"><path d="M903.6 564.8c-.4 0-.9.1-1 .6 0 .3.1.6.2.9.1.4.2.8.2 1.1.2 1.1.4 2.1.6 3.2.2 1.1.4 2.2.5 3.4.1.9 0 1.5-.6 2.3-.3.5-.6.7-1.2.8-.5.1-.2.5.1.7 1.1.7 1.6-.8 2.6-1.1.5-.1.9-.2.9-.8 0-.4-.4-.7-.4-1.1-.2-1 .1-2.1.2-3.1.1-1.4.3-2.9-.2-4.2-.3-.7-.8-1.3-.9-2-.1-.3 0-.6-.3-.8-.2.1-.4.1-.7.1z"/><path d="M905.3 568.5c.3 1.2.2 2.5.1 3.7 0 1.5-.1 3.1.1 4.6.6-.2.6-.8.3-1.3-.2-.3-.3-.5-.3-.9 0-1.1.2-2.2.3-3.2.1-1.2.2-2.5-.3-3.6-.3-.6-.6-1.1-.8-1.7-.2-.5-.1-1.2-.7-1.2 0 .7.2 1.5.5 2.2.4.4.7.8.8 1.4z" opacity=".39"/></g><path d="M902 577.5c.5.5 1.3 1.4 2 .8.4-.4.6-.8 1.1-1.1.5-.2.8-.2.9-.8 0-.3 0-1-.4-1.1-.5-.3-.9.5-1.1.9-.3.5-.6 1.3-1.2 1.4-.1 0-.5 0-.6-.1-.2-.2.2-.4.3-.5-.4 0-1-.1-1 .5z" fill="#ec4b4a"/><path d="M905.9 576.7c-.2.6-.5 1.4-.4 2h-.2c0-.2-.1-1.7-.4-1.4.3-.2.7-.4 1-.6z" fill="#da4645"/><g fill="#eec19a"><path d="M901.4 556.2c-.3 2.5 0 5.1.7 7.6.2.7.4 1.3.6 1.9.1.5.4 1 1.1.9.8-.1 1-1.5 1-2.2 0-1.2-.1-2.3.1-3.5.1-1 .5-2 .7-3 .1-.7-.1-1.2-.6-1.7-.5-.6-1.2-1.3-2-1.5-1.1-.1-1.5.7-1.6 1.5z"/><path d="M904.8 561.5c0-.8.2-1.5.4-2.3.1-.5.4-1 .4-1.6 0-1.2-1.5-2.4-2.5-2.8.6 2.2.9 4.5 1 6.9 0 1.5-.2 3.1.3 4.5.4-.6.4-1.4.4-2-.1-.8-.1-1.8 0-2.7z" opacity=".39"/><path d="M906.2 556.2c0 1.1-.5 2.4-1.5 2.8-1 .5-2.1 0-2.7-.9-1-1.6-.6-5.6 2.1-4.9 1.3.4 2.1 1.7 2.1 3z"/><path d="M906.2 556.2c0 1.1-.5 2.4-1.5 2.8-1 .5-2.1 0-2.7-.9-1-1.6-.6-5.6 2.1-4.9 1.3.4 2.1 1.7 2.1 3z" opacity=".39"/><path d="M905.8 556.1c0 1.1-.4 2.2-1.4 2.8-.4.2-.9.5-1.3.4-.5-.1-.9-.6-1.1-1-.8-1.5-.7-5.6 2-5 1.2.2 1.7 1.6 1.8 2.8z"/></g><path d="M907.6 543.8c-.6 0-1.1.3-1.1 1-.1.8.6 1.5 1 2.1.4.7.6 1.4.8 2.1.1.5 0 1 .1 1.5.1.7 1.2.8 1.4.2.3-.6 0-1.5-.1-2.1-.1-.6-.1-1.1-.2-1.7-.2-.7-.5-1.4-.7-2.1-.2-.6-.5-1-1.2-1z" fill="#ec4b4a"/><path d="M909.9 549.7c-.2-1.2-.2-2.5-.6-3.7-.4-1-.5-2.5-1.9-2.3-.6.1-1 .6-.8 1.2.1.4.5.6.8.9.3.2.5.5.8.7.7.8.8 1.7.8 2.8 0 .4 0 .8-.1 1.2 0 .3.1.4.4.4.6.2.7-.6.6-1.2z" opacity=".42" fill="#d73728"/><g fill="#eec19a"><path d="M908.4 554.4c0 .5-.2 1-.3 1.5 0 .2 0 .7.4.6.2 0 .4-.4.5-.6l.6-1.5h-1.2z"/><path d="M909.9 550.6c.2.9 0 1.9-.1 2.8-.1.9-.4 1.9-.8 2.7.3-1.4.6-2.9.8-4.3-.1-.4.1-1.1.1-1.2z" opacity=".39"/><path d="M908.8 557.3c-.4 0-.8-.4-.9-.8-.1-.4.1-1.1.5-1.3.2-.1.6-.1.7.1.1.2 0 .5-.1.6 0 .6-.1 1-.2 1.4z"/><path d="M907.9 558.8c-.3-.2.5-1.9.8-1.8.4.3-.8 1.9-.8 1.8z"/><path d="M908 558.4c0 .1-.1.5 0 .4-.2.2 0-.6 0-.6.1-.3.4-.7.5-1-.1.4-.4.8-.5 1.2z" opacity=".39"/><path d="M907.5 558.8c-.2-.2.2-.9.3-1.1.1-.2.4-1.1.7-.8.3.4-1 2-1 1.9z"/><path d="M907.5 558.8v-.2c0-.2.1-.4.2-.6.1-.2.4-1.1.7-1.1-.3.7-.9 1.2-.9 1.9z" opacity=".39"/><path d="M907.1 558.1c-.2-.3 1.1-1.7 1.3-1.4.4.4-1.3 1.4-1.3 1.4z"/><path d="M907.1 558.1c0-.3.3-.5.5-.7.1-.2.5-.7.7-.7-.4.4-.9.8-1.2 1.4z" opacity=".39"/><path d="M907.1 557.4c-.1-.3 1.1-1.1 1.2-.8.2.3-1.2.8-1.2.8z"/><path d="M907.2 557.4c-.2 0 .3-.5.3-.5.2-.2.4-.3.6-.4 0 .2-1.1.8-.9.9z" opacity=".39"/><path d="M908 556.6s-.1-1.3.5-1.3c-.4.2-.5 1.3-.5 1.3z" opacity=".39"/></g><path d="M909.2 555.7c.1-.8.4-1.5.5-2.2.1-.7.2-1.3.2-2 0-.4 0-1.1-.4-1.4-.4-.2-.8-.1-1 .3-.3.5-.3 1.2-.3 1.7v3c0 .2-.1.4 0 .5.2.1.8 0 1 .1z" fill="#ec4b4a"/><path d="M909.3 550c-.5-.1-.4.2-.4.6 0 .3 0 .5-.1.8 0 .5-.1 1.1-.1 1.6 0 .6-.1 1.2-.1 1.8 0 .2-.1.8-.1.9.1.1.4.1.5.1.3 0 .2.1.3-.3l.3-.9c.2-.6.2-1.3.3-2 0-.8.3-2.4-.6-2.6z" fill="#d73728"/><path d="M906.3 555.9c-.5-.2-1.1 1-1.2 1.3-.1.3 0 .6 0 .8v2.9c0 .1-.1.5 0 .6.1.1.4.3.6.3.9.5 1.7 1 2.6 1.5.7.4 1.3.8 2 1.2.3-1.6.7-3.3 1-4.9 0-.2.2-.6.1-.7 0-.1.2 0 .1-.1-.9-.5-2.2-1.2-3.1-1.7l-2.1-1.2z" fill="#21262e"/><path d="M910.9 559.3c-.5 1.3-.8 4.7-.7 5.1v.2c.1 0 .5-.6.6-.7.3-.3.8-.3.8-.7.1-.9 0-1.8 0-2.7v-1.1c.1-.9-.4-.7-.7-.1zm-1.3-1.3c-.1-.8-.8-1.8-1.7-1.9-.3 0-.6.1-.8.3-.2.2 0 .6 0 .6s.4-.3.5-.3c.3-.1.9.3 1.1.5.2.3 0 .8.4.9.2.1.2.1.5-.1z" fill="#2a313b"/><path d="M908.4 557.2c.2.2.3.5.4.8.1.1.3.2.4.2-.1-.8-.8-1.7-1.6-1.9-.2 0-.5 0-.7.2-.2.3 0 .4.2.5.1-.7 1.1 0 1.3.2zm2.4 2.9c.2-.4.8-.2.8-.2s.2-1.1-.2-.9c-.4.1-.6 1.1-.6 1.1z" fill="#21262e"/><path d="M908.2 557c.3-.1.4.7.4.7s-.1.1-.3.1c-.1-.1-.1-.8-.1-.8z" fill="#eec19a"/><path d="M907.9 556.9c.3-.1.4.7.4.7s-.1.1-.3.1c-.1-.1-.1-.8-.1-.8z" fill="#eec19a"/><g fill="#eec19a"><path d="M904.2 554.3c-.4 2.7-.1 5.4.7 7.9.2.7.5 1.3.7 2 .2.5.4 1 1 1 .9 0 .9-1.5 1-2.2.1-1.1.1-2.3.2-3.4s.5-2.2.7-3.3c.1-.7-.1-1.3-.5-1.9-.5-.7-1.3-1.3-2.1-1.6-1.1-.2-1.6.6-1.7 1.5z"/><path d="M907.7 560c.1-.8.2-1.6.4-2.4.1-.5.3-1.1.3-1.6.1-1.3-1.2-2.4-2.2-2.9.4 2.4.6 4.7.5 7.1-.1 1.5-.3 3.3.4 4.7.4-.6.4-1.5.4-2.2.1-.9.1-1.8.2-2.7z" opacity=".39"/><path d="M908.6 555c0 1.1-.5 2.4-1.6 2.9-1 .5-2.1 0-2.6-.9-.6-1.1-.7-2.5-.1-3.6.4-.9 1.4-1.8 2.5-1.5 1.2.4 1.8 1.9 1.8 3.1z"/><path d="M908.6 555c0 1.1-.5 2.4-1.6 2.9-1 .5-2.1 0-2.6-.9-.6-1.1-.7-2.5-.1-3.6.4-.9 1.4-1.8 2.5-1.5 1.2.4 1.8 1.9 1.8 3.1z" opacity=".39"/><path d="M908.3 555c0 1.1-.5 2.4-1.6 2.9-1 .5-2.1 0-2.6-.9-.6-1.1-.7-2.5-.1-3.6.4-.9 1.4-1.8 2.5-1.5 1.2.4 1.8 1.9 1.8 3.1z"/></g><path d="M908.5 554.2c-.2-1-.6-2.1-1.2-3 .2.5-.3.9-.6 1.2-.5.3-1.2.5-1.8.7-.6.2-1.2.6-1.9.4-.4-.1-.704.574-.504.074-.3.3-.677.352-.777.752-.2.7-.419 1.074-.519 1.774-.2 1.7-.1 3.4.1 5.1.1 1 .2 2 .6 3 .1.4.3.5.7.6.3.1.6.1 1 .1h.5c.2-.1.1.1.1-.2v-.4c-.1-1.3-.1-2.6.2-3.9-.1 1.4 0 2.9.3 4.3.6-.2 1.2-.4 1.8-.8.4-.2.9-.5 1.1-.8.2-.4.1-1.2.1-1.7.1-2.4 1.3-4.8.8-7.2z" fill="#77a6f7"/><path d="M908.5 554.2c-.2-1-.6-2.1-1.2-3 .3.6-.5 1.1-1 1.3-.7.3-1.4.5-2.1.8.8 1.6 1.1 3.2.8 5-.3 2.1-.5 4.1-.1 6.2.6-.2 1.3-.5 1.8-.8.3-.2.8-.4.9-.8.2-.5 0-1.2.1-1.7.1-2.3 1.3-4.6.8-7z" fill="#77a6f7"/><path d="M906.7 555.8c-.2-.8-.3-1.6-.6-2.4.1.4.2.9.2 1.3 0 .2 0 .5.1.7 0 .3.1.5-.2.6-.8.2-1.6.2-2.4.1-.6-.1-1.2-.3-1.7-.6-.2-.1-.6-.3-.7-.5 0-.1.1-.5.2-.6.1-.2.2-.5.2-.7.2-.6.6-1.1.8-1.7.2-.5.2-.7 0-1.2-.5-1.1-.5-2.5-.5-3.8 0-1.1.9-1.8 1.8-2.3.7-.4 1.5-.9 2.3-1.1 1.2-.3 2.6.1 2.4 1.6-.2 1.3-.7 2.6-1 3.8-.2.6-.3 1.3-.1 1.9.2.7.6 1.3 1 2 .3.5.5 1.2.1 1.7-.5.6-1.3.9-1.9 1.2z" fill="#ec4b4a"/><path d="M908.5 553.1c-.1-.4-.5-.7-.7-1.1-.3-.5-.5-1.1-.5-1.6 0-1 .4-2.1.7-3 .2-.8.7-1.9.5-2.7-.2-1.1-1.5-1.2-2.4-1-.5.1-.8.3-1.2.5-.5.3-1 .4-1.5.8.3 0 .7.2.9.4.3.3.2.9.2 1.3 0 1.1-.2 2.2-.2 3.3-.1 1.1-.1 2.1.1 3.2.2 1 .9 1.9.9 3 .2-.1.4-.1.5-.1.1 0 .3 0 .3-.1.1-.1.1-.3.1-.5 0-.7-.1-1.4-.3-2.1.3.7.5 1.6.6 2.4.6-.3 1.4-.5 1.8-1.1.5-.5.4-1.1.2-1.6z" fill="#d73728"/><g fill="#eec19a"><path d="M904 542.5c.1.6.2 1.1.3 1.7 0 .2 0 .3.3.4.3.1.6.1.9.1.3 0 .7-.1.9-.3.2-.2.2-.6.2-.9v-2c-.9.4-1.7.7-2.6 1z"/><path d="M906.5 541.5c-.7.3-1.5.6-2.2.9 0 0-.2.1-.3.1v.2c0 .1 0 .3.1.4.1.2 0 .1.2.2.4 0 .8-.2 1 .3.2.4-.1.8-.4 1.1.4 0 .9 0 1.3-.2s.4-.6.4-1c0-.6 0-1.3-.1-2z" opacity=".39"/></g><g transform="translate(902 537)" fill="#eec19a"><path d="M1.1 3.6c-.1.7 0 1.4.2 2 .1.3.2.9.5.9s.8-.3 1.1-.5c.4-.3.8-.6 1.1-.9.5-.6-.7-.9-1.1-1-.6-.2-1.2-.4-1.8-.5z"/><circle transform="rotate(-80.938 3.29 3.257)" r="2.3" cy="3.257" cx="3.29"/></g><path d="M907.8 540.1c-.2-1-.7-2-1.8-2.3-.8-.2-1.7 0-2.4.5-1.2.8-.2 1.8-.1 2.8.1.8.2 1.6.1 2.4 0 .1-.2 1.1-.2 1.1.1-.4.2-.8.2-1.2 0 .4-.1.7-.1 1.1.2-.8.2-1.7.2-2.5.1.6.1 1.2.1 1.9 0 .2-.1.5-.1.7 0 .1-.1.2.1.2l.1-.4c.1-.3.1-.6.1-.9v.4c0 .1-.2.9-.1.9.1.1.6.1.8.1.3 0 .6.1.9.1.9 0 2.1-.2 2.6-1.1.2-.4.2-1 .1-1.4-.1-.8-.3-1.6-.5-2.4z" fill="#75451a"/><path d="M907.8 540.1c-.2-1.3-1-2.4-2.4-2.3 1 .3 1 1.2.8 2.1-.2 1.2-.7 2.3-1 3.5-.1.3-.1.6-.1.9v.4c0 .3.1.3.3.3.7 0 1.5 0 2.1-.4.7-.4.9-.9.9-1.6 0-.3-.1-.6-.2-.9-.1-.7-.3-1.4-.4-2z" fill="#613a16"/><path d="M897.8 549.9l-.3-.4s-.5-.2-.7.3c-.2.4-.1.7-.1.7l.9.6.2-1.2z" fill="#fff"/><path d="M903.8 546c-1-1-1.9.3-2.1 1.3-.1.8-.4 1.5-.8 2.2-.3.5-.5 1-.9 1.5-.2.3-.3.5-.2.9.1.3.3.7.7.7.6 0 1.1-1 1.4-1.4.3-.5.7-.9 1-1.4.4-.6.6-1.4.9-2 .4-.7.6-1.3 0-1.8z" fill="#ec4b4a"/><path d="M903.8 546c-.6-.6-1.1-.4-1.5.1.7-.8 1.4 0 1.5.5-.2 1.2-.6 2.2-1.3 3.3-.7 1-1.3 2-2.2 2.7h.2c.6 0 1.1-1 1.4-1.4.3-.5.7-.9 1-1.4.4-.6.6-1.4.9-2 .4-.7.6-1.3 0-1.8z" fill="#d73728"/><path d="M896.7 550.7c1.2.7 2.2 1.3 3.5 1.8.4.2.3 0 .7-.3.4-.3.5-.5.3-.9-.4-.5-.1-.4-.6-.6-.6-.3-1.6-.4-2.2-.7-.3-.2-.8-.5-1.1-.4-.4.2-.6.7-.6 1.1z" fill="#ec4b4a"/></g></svg>