<svg xmlns="http://www.w3.org/2000/svg" viewBox="0 0 1200 1200"><path fill="#003750" d="M1003.771 50H172.467C93.497 50 50 116.868 50 168.065v811.183C50 1107.434 92.819 1150 210.24 1150h793.645c80.549 0 146.115-32.194 146.115-131.945V195.837C1150 116.868 1097.814 50 1003.771 50zm-30.22 464.426c.75 2.855 1.365 5.761 2.047 8.641.736 3.107 1.535 6.191 2.191 9.328.662 3.168 1.177 6.387 1.757 9.584.527 2.906 1.127 5.789 1.584 8.718.549 3.517.939 7.082 1.386 10.63.336 2.662.754 5.298 1.032 7.978.434 4.181.695 8.41.986 12.631.144 2.088.375 4.152.484 6.249a369.5 369.5 0 010 38.292c-.109 2.097-.34 4.161-.484 6.249-.291 4.22-.552 8.451-.986 12.631-.278 2.679-.696 5.316-1.032 7.978-.448 3.548-.837 7.113-1.386 10.63-.457 2.929-1.057 5.811-1.584 8.718-.579 3.197-1.094 6.416-1.757 9.584-.654 3.128-1.452 6.204-2.185 9.304-.684 2.89-1.301 5.804-2.053 8.668-.856 3.257-1.854 6.458-2.797 9.68-.775 2.65-1.485 5.326-2.318 7.952-1.07 3.372-2.281 6.683-3.446 10.013-.844 2.409-1.621 4.847-2.512 7.234-1.317 3.524-2.771 6.981-4.193 10.455-.871 2.126-1.677 4.283-2.586 6.39-1.58 3.662-3.295 7.253-4.99 10.854-.872 1.852-1.684 3.737-2.586 5.573-1.841 3.747-3.813 7.418-5.776 11.094-.87 1.628-1.684 3.289-2.577 4.903-2.111 3.814-4.35 7.547-6.591 11.279-.847 1.41-1.643 2.852-2.508 4.25-2.404 3.886-4.932 7.687-7.476 11.478-.792 1.179-1.537 2.39-2.343 3.56-2.708 3.938-5.536 7.789-8.391 11.62-.719.964-1.398 1.957-2.127 2.914-3.029 3.983-6.173 7.873-9.359 11.732-.619.749-1.205 1.523-1.829 2.268-3.337 3.979-6.785 7.863-10.284 11.703-.529.58-1.032 1.183-1.565 1.76-3.667 3.974-7.441 7.849-11.277 11.667-.401.399-.783.815-1.186 1.212a382.84 382.84 0 01-12.238 11.519c-.283.255-.554.524-.838.779a383.25 383.25 0 01-13.139 11.247c-.177.145-.347.298-.524.443a383.74 383.74 0 01-14.063 10.933c-.052.038-.101 1.689-.153 1.727C770.848 953.159 692.553 977 607.556 984h-.012c-1.836 0-3.65-1.475-5.493-1.475-59.467 0-115.769-13.999-165.999-37.536-.262 2.888-.529 5.313-.8 8.049l66.574 33.816s12.386 8.031-12.283 7.388l-58.857-7.981c-1.308 6.503-2.722 10.374-4.17 10.353l-2.972.026-1.78 27.917c-.039.7-1.434 1.248-3.113 1.248-1.677 0-3.071-.553-3.116-1.253l-1.776-27.853-3.083.019c-1.414.002-2.811-3.804-4.168-10.18l-57.333 8.148c-24.65.854-12.367-7.372-12.367-7.372l64.973-33.831c-.958-8.986-1.87-18.909-2.73-29.251-44.195-26.928-82.333-62.369-112.027-103.99l-70.432 7.428c-70.959 1.833-35.544-15.482-35.544-15.482l81.524-31.157c-28.039-51.903-43.983-110.974-43.983-173.7 0-206.326 171.682-373.585 383.461-373.585 30.128 0 59.402 3.493 87.528 9.894 39.138-82.326 125.565-88.46 134.93-88.903l-.094-.338s24.251-.526 54.157 10.134c36.383 12.969 81.236 42.512 99.875 109.939-18.639-67.427-63.147-96.97-99.531-109.939 37.601 11.337 87.692 40.046 107.772 112.685 0 0 9.24 44.646-15.075 102.904 0 0-18.831 37.343-28.93 55.704 1.842 3.465 3.703 6.918 5.435 10.446.897 1.825 1.704 3.699 2.572 5.541 1.701 3.614 3.422 7.217 5.008 10.893.898 2.08 1.693 4.21 2.553 6.31 1.433 3.499 2.898 6.982 4.224 10.532.885 2.369 1.656 4.79 2.494 7.181 1.172 3.348 2.388 6.676 3.465 10.066.828 2.609 1.532 5.268 2.303 7.902.952 3.238 1.955 6.454 2.815 9.729z"/><path fill="#81BEEA" d="M981.129 663.965c-.458 2.929-1.057 5.811-1.584 8.718.527-2.907 1.127-5.789 1.584-8.718zm2.419-18.608c-.278 2.679-.696 5.316-1.032 7.978.335-2.662.754-5.299 1.032-7.978zm-9.998 54.881c-.856 3.257-1.853 6.458-2.797 9.68.944-3.223 1.942-6.423 2.797-9.68zm-5.114 17.631c-1.071 3.372-2.281 6.683-3.446 10.013 1.165-3.33 2.375-6.641 3.446-10.013zm9.353-35.603c-.654 3.128-1.451 6.204-2.185 9.304.733-3.1 1.531-6.175 2.185-9.304zm7.228-55.789c-.109 2.097-.34 4.161-.484 6.249.145-2.088.375-4.152.484-6.249zm-.484-44.541c.144 2.087.375 4.152.484 6.249-.109-2.097-.339-4.161-.484-6.249zm-2.017-20.609c.336 2.662.754 5.298 1.032 7.978-.278-2.68-.697-5.316-1.032-7.978zm-20.039 173.79c-1.317 3.524-2.771 6.982-4.193 10.455 1.422-3.474 2.876-6.931 4.193-10.455zm8.263-230.421c.949 3.238 1.95 6.455 2.811 9.729-.86-3.274-1.863-6.49-2.811-9.729zm8.805 37.283c.527 2.907 1.127 5.789 1.584 8.718-.457-2.929-1.057-5.812-1.584-8.718zm-3.947-18.912c.736 3.108 1.535 6.191 2.191 9.328-.656-3.137-1.455-6.221-2.191-9.328zm-737.463 84.225c0-196.879 164.495-357.073 365.121-357.073 1.849 0 .743.11 6.743.137v-16.475c28 .387 54.372 3.827 80.774 9.831.011-.024-.592-.049-.581-.073-28.126-6.401-57.707-9.894-87.835-9.894-211.779 0-383.615 167.259-383.615 373.585 0 62.727 15.868 121.798 43.906 173.7l17.839-6.832c-26.966-49.846-42.352-106.637-42.352-166.906zm551.157-325.959l-.11-.062-.009.016c.037.02.072.042.109.063l.01-.017zm58.799 612.484zm-14.216 11.049c-63.028 46.654-141.332 74.744-226.319 75.914 84.997-1.17 163.292-29.231 226.319-75.914z"/><path fill="#81BEEA" d="M582.132 294.852c-4.15 1.877-74.568 34.93-116.22 137.626C497.019 439.357 534 444.488 583 445.866V282.361c0 .157-4.873.413-7.686.635l6.818 11.856zM436.184 590H583V477.555c-49-1.401-93.71-7.886-127.824-15.586C444.203 497.611 437.471 541 436.184 590zm167.073 374.443c-59.153 0-115.618-14.015-165.048-38.703-.493 6.362-1.314 12.549-1.849 18.445 50.23 23.537 107.606 36.731 167.074 36.731 1.842 0 .567-.11 6.567-.135v-16.475c-6.001.026-4.895.137-6.744.137zM887.294 856.95c-3.667 3.973-7.44 7.851-11.277 11.667 3.837-3.818 7.611-7.693 11.277-11.667zm63.399-405.136c1.702 3.614 3.422 7.218 5.008 10.893-1.586-3.676-3.307-7.279-5.008-10.893zM394.57 860.026c-1.217-20.464-2.14-38.761-2.682-50.843l-13.119 1.384c-9.831 5.351-17.435 10.089-22.501 13.494 11.758 12.978 24.591 24.983 38.302 35.965zm504.573-16.539c-3.337 3.978-6.784 7.864-10.284 11.703 3.499-3.84 6.947-7.724 10.284-11.703zm-590.697-25.504l-21.42 2.259c29.693 41.621 67.831 77.062 112.027 103.99a2164.327 2164.327 0 01-1.695-21.817c-34.301-22.987-64.377-51.59-88.912-84.432zm553.309 64.143zM583 624H437.283c3.945 14 6.703 24.851 6.719 29.096l.141 33.261c2.553 15.183 5.878 31.597 10.241 48.741l16.597 6.404C503.369 733.674 541 727.886 583 726.364V624zm365.121-177.727c-1.733-3.528-3.593-6.98-5.435-10.446l-.002.003c1.843 3.464 3.704 6.916 5.437 10.443zM583 925.034v-102.54l-103.132-10.045C501.888 860.091 534 903.17 583 925.034zm-52.206-635.45c-67.224 14.688-126.816 49.598-171.854 97.985 9.065 7.466 31.776 23.132 74.857 36.364 27.77-69.774 67.943-111.506 96.997-134.349zM312.029 762.557l79.07-30.432-.338-78.717c-.011-4.251 2.899-15.408 7.032-29.408H272.536c2.482 49 16.538 96.834 39.493 138.557zm131.962 49.53c-.714 18.356-2.088 48.138-3.975 78.572a330.62 330.62 0 0080.569 32.031c-34.718-29.548-59.173-69.294-76.594-110.603zm520.981-325.358c1.172 3.348 2.388 6.676 3.465 10.066-1.077-3.39-2.293-6.718-3.465-10.066zm-6.718-17.713c1.433 3.498 2.898 6.982 4.224 10.532-1.326-3.55-2.792-7.033-4.224-10.532zM272.536 590h129.63c1.337-49 9.305-98.356 21.089-136.641-45.993-14.077-72.283-31.475-85.308-41.94C299.682 461.815 275.826 527 272.536 590zm255.33 172.935L583 783.504V758.04c-21 .743-37.914 2.487-55.134 4.895zm346.966 106.894zm64.935-85.443c-2.112 3.813-4.349 7.548-6.591 11.279 2.242-3.732 4.48-7.465 6.591-11.279zm-9.099 15.529c-2.405 3.885-4.932 7.687-7.476 11.478 2.543-3.791 5.071-7.593 7.476-11.478zm17.453-31.526c-1.841 3.746-3.813 7.418-5.776 11.094 1.963-3.676 3.936-7.347 5.776-11.094zm-37.79 61.098c-3.03 3.981-6.173 7.875-9.359 11.732 3.185-3.859 6.33-7.75 9.359-11.732zm10.518-14.534c-2.708 3.938-5.535 7.79-8.391 11.62 2.855-3.831 5.683-7.682 8.391-11.62zm34.848-62.991c-1.581 3.661-3.294 7.253-4.99 10.854 1.696-3.602 3.411-7.192 4.99-10.854z"/><path fill="#003750" d="M397.358 902.415a3194.105 3194.105 0 01-2.788-42.389c-13.711-10.982-26.544-22.987-38.302-35.966 5.066-3.405 12.671-8.143 22.501-13.494l-70.322 7.417c24.534 32.842 54.61 61.445 88.911 84.432zm205.899-652.196c-200.626 0-364.508 160.194-364.508 357.073 0 60.269 15.041 117.06 42.009 166.907l31.425-11.642C289.227 720.834 275.018 673 272.536 624h125.257c5.784-21 13.982-38.17 20.09-39.375 6.067 1.557 13.897 18.375 19.4 39.375H583v102.364c-42 1.522-79.631 7.256-112.018 15.084l57.241 21.488c17.22-2.408 33.778-4.153 54.778-4.895v25.464l27 8.625V250.356c-6.001-.027-4.895-.137-6.744-.137zM402.165 590h-129.63c3.29-63 27.146-127.82 65.41-178.217 13.026 10.465 39.315 27.134 85.308 41.21C411.471 491.28 403.502 541 402.165 590zM358.94 387.569c45.038-48.388 104.63-83.297 171.854-97.985-29.055 22.843-69.227 64.575-96.996 134.35-43.082-13.232-65.793-28.899-74.858-36.365zM583 590H436.184c1.287-49 8.019-92.389 18.992-128.032C489.29 469.669 534 476.153 583 477.555V590zm0-144.134c-49-1.379-85.981-6.51-117.088-13.389 41.653-102.696 111.714-135.749 115.864-137.626l-6.641-11.855c2.813-.223 7.864-.478 7.864-.635v163.505z"/><path fill="#003750" d="M444.334 731.241l10.051 3.75c-4.363-17.144-7.688-33.665-10.241-48.847l.19 45.097zM583 822.493v102.54c-49-21.863-80.4-64.942-102.42-112.585l-36.818-3.621c-.038 1.009.094 2.167.052 3.259 17.421 41.309 41.965 81.055 76.683 110.603-28.514-7.181-55.506-18.049-80.525-32.031-.734 11.83-1.519 23.729-2.399 35.081 49.431 24.688 106.521 38.703 165.673 38.703 1.849 0 .754-.11 6.754-.137v-139.56l-27-2.252zm375.284-76.921c-.87 2.126-1.677 4.283-2.586 6.39.909-2.107 1.715-4.264 2.586-6.39z"/><path fill="#72ACC4" d="M958.284 745.572c-.87 2.126-1.677 4.283-2.586 6.39.909-2.107 1.715-4.264 2.586-6.39z"/><path fill="#003750" d="M834.028 904.749c-.052.038-.101.078-.153.117.052-.038.102-.079.153-.117z"/><path fill="#72ACC4" d="M834.028 904.749c-.052.038-.101.078-.153.117.052-.038.102-.079.153-.117z"/><path fill="#003750" d="M923.192 811.393c-.791 1.18-1.538 2.39-2.343 3.56.805-1.17 1.551-2.381 2.343-3.56z"/><path fill="#72ACC4" d="M923.192 811.393c-.791 1.18-1.538 2.39-2.343 3.56.805-1.17 1.551-2.381 2.343-3.56z"/><path fill="#003750" d="M983.548 569.305c.434 4.181.695 8.41.986 12.631-.292-4.221-.553-8.451-.986-12.631z"/><path fill="#72ACC4" d="M983.548 569.305c.434 4.181.695 8.41.986 12.631-.292-4.221-.553-8.451-.986-12.631z"/><path fill="#003750" d="M962.478 479.548c.885 2.369 1.656 4.79 2.494 7.181-.837-2.391-1.609-4.812-2.494-7.181z"/><path fill="#72ACC4" d="M962.478 479.548c.885 2.369 1.656 4.79 2.494 7.181-.837-2.391-1.609-4.812-2.494-7.181z"/><path fill="#003750" d="M977.789 532.395c.663 3.168 1.177 6.387 1.757 9.584-.58-3.197-1.095-6.416-1.757-9.584z"/><path fill="#72ACC4" d="M977.789 532.395c.663 3.168 1.177 6.387 1.757 9.584-.58-3.197-1.095-6.416-1.757-9.584z"/><path fill="#003750" d="M912.458 826.573c-.719.964-1.399 1.957-2.127 2.914.728-.958 1.407-1.95 2.127-2.914z"/><path fill="#72ACC4" d="M912.458 826.573c-.719.964-1.399 1.957-2.127 2.914.728-.958 1.407-1.95 2.127-2.914z"/><path fill="#003750" d="M984.533 632.726c-.291 4.22-.551 8.45-.986 12.631.434-4.181.695-8.411.986-12.631z"/><path fill="#72ACC4" d="M984.533 632.726c-.291 4.22-.551 8.45-.986 12.631.434-4.181.695-8.411.986-12.631z"/><path fill="#003750" d="M981.129 550.697c.549 3.517.939 7.082 1.386 10.63-.447-3.548-.837-7.113-1.386-10.63z"/><path fill="#72ACC4" d="M981.129 550.697c.549 3.517.939 7.082 1.386 10.63-.447-3.548-.837-7.113-1.386-10.63z"/><path fill="#003750" d="M950.708 762.816c-.872 1.853-1.684 3.737-2.586 5.573.902-1.836 1.714-3.721 2.586-5.573z"/><path fill="#72ACC4" d="M950.708 762.816c-.872 1.853-1.684 3.737-2.586 5.573.902-1.836 1.714-3.721 2.586-5.573z"/><path fill="#003750" d="M933.176 795.665c-.847 1.41-1.643 2.852-2.508 4.25.865-1.398 1.661-2.84 2.508-4.25z"/><path fill="#72ACC4" d="M933.176 795.665c-.847 1.41-1.643 2.852-2.508 4.25.865-1.398 1.661-2.84 2.508-4.25z"/><path fill="#003750" d="M975.603 691.57c-.684 2.89-1.301 5.804-2.053 8.668.753-2.864 1.369-5.778 2.053-8.668z"/><path fill="#72ACC4" d="M975.603 691.57c-.684 2.89-1.301 5.804-2.053 8.668.753-2.864 1.369-5.778 2.053-8.668z"/><path fill="#003750" d="M964.989 727.883c-.843 2.409-1.621 4.847-2.512 7.234.892-2.387 1.669-4.825 2.512-7.234z"/><path fill="#72ACC4" d="M964.989 727.883c-.843 2.409-1.621 4.847-2.512 7.234.892-2.387 1.669-4.825 2.512-7.234z"/><path fill="#003750" d="M970.754 709.917c-.775 2.65-1.485 5.326-2.318 7.952.833-2.625 1.543-5.302 2.318-7.952z"/><path fill="#72ACC4" d="M970.754 709.917c-.775 2.65-1.485 5.326-2.318 7.952.833-2.625 1.543-5.302 2.318-7.952z"/><path fill="#003750" d="M942.345 779.483c-.87 1.629-1.684 3.289-2.577 4.903.893-1.614 1.707-3.275 2.577-4.903z"/><path fill="#72ACC4" d="M942.345 779.483c-.87 1.629-1.684 3.289-2.577 4.903.893-1.614 1.707-3.275 2.577-4.903z"/><path fill="#003750" d="M982.516 653.335c-.448 3.548-.837 7.113-1.386 10.63.548-3.517.938-7.082 1.386-10.63z"/><path fill="#72ACC4" d="M982.516 653.335c-.448 3.548-.837 7.113-1.386 10.63.548-3.517.938-7.082 1.386-10.63z"/><path fill="#003750" d="M979.545 672.682c-.579 3.197-1.094 6.415-1.757 9.584.663-3.168 1.178-6.387 1.757-9.584z"/><path fill="#72ACC4" d="M979.545 672.682c-.579 3.197-1.094 6.415-1.757 9.584.663-3.168 1.178-6.387 1.757-9.584z"/><path fill="#003750" d="M973.551 514.426c.75 2.855 1.365 5.76 2.047 8.641-.682-2.881-1.297-5.786-2.047-8.641z"/><path fill="#72ACC4" d="M973.551 514.426c.75 2.855 1.365 5.76 2.047 8.641-.682-2.881-1.297-5.786-2.047-8.641z"/><path fill="#003750" d="M607.545 980.781l.011-.001-.011.001z"/><path fill="#72ACC4" d="M607.545 980.781l.011-.001-.011.001z"/><path fill="#003750" d="M848.616 893.374c-.177.145-.347.298-.524.443.177-.145.347-.299.524-.443z"/><path fill="#72ACC4" d="M848.616 893.374c-.177.145-.347.298-.524.443.177-.145.347-.299.524-.443z"/><path fill="#003750" d="M862.593 881.348c-.283.256-.554.524-.838.779.284-.255.555-.524.838-.779z"/><path fill="#72ACC4" d="M862.593 881.348c-.283.256-.554.524-.838.779.284-.255.555-.524.838-.779z"/><path fill="#003750" d="M955.7 462.706c.897 2.08 1.694 4.211 2.553 6.31-.859-2.1-1.655-4.229-2.553-6.31z"/><path fill="#72ACC4" d="M955.7 462.706c.897 2.08 1.694 4.211 2.553 6.31-.859-2.1-1.655-4.229-2.553-6.31z"/><path fill="#003750" d="M900.972 841.219c-.618.749-1.205 1.523-1.829 2.268.624-.744 1.21-1.519 1.829-2.268z"/><path fill="#72ACC4" d="M900.972 841.219c-.618.749-1.205 1.523-1.829 2.268.624-.744 1.21-1.519 1.829-2.268z"/><path fill="#003750" d="M948.121 446.273c.897 1.825 1.705 3.699 2.572 5.541-.867-1.842-1.675-3.716-2.572-5.541z"/><path fill="#72ACC4" d="M948.121 446.273c.897 1.825 1.705 3.699 2.572 5.541-.867-1.842-1.675-3.716-2.572-5.541z"/><path fill="#003750" d="M876.018 868.617c-.401.399-.783.815-1.186 1.212.402-.397.785-.814 1.186-1.212z"/><path fill="#72ACC4" d="M876.018 868.617c-.401.399-.783.815-1.186 1.212.402-.397.785-.814 1.186-1.212z"/><path fill="#003750" d="M970.74 504.696c-.771-2.633-1.475-5.293-2.303-7.902.828 2.609 1.532 5.269 2.303 7.902z"/><path fill="#72ACC4" d="M970.74 504.696c-.771-2.633-1.475-5.293-2.303-7.902.828 2.609 1.532 5.269 2.303 7.902z"/><path fill="#003750" d="M888.859 855.19c-.529.581-1.032 1.183-1.565 1.76.533-.577 1.036-1.18 1.565-1.76z"/><path fill="#72ACC4" d="M888.859 855.19c-.529.581-1.032 1.183-1.565 1.76.533-.577 1.036-1.18 1.565-1.76z"/><path fill="#81BEEA" d="M759.666 624H617v102.175c49 1.168 88.414 8.193 121.429 17.415C752.074 693.294 758.044 645 759.666 624z"/><path fill="#72ACC4" d="M759.666 624H617v102.175c49 1.168 88.414 8.193 121.429 17.415C752.074 693.294 758.044 645 759.666 624z"/><path fill="#81BEEA" d="M672.592 925.199c65.746-14.187 124.242-47.798 168.85-94.394-5.201-4.967-30.44-27.376-78.581-46.153-17.937 51.953-46.134 104.384-90.269 140.547z"/><path fill="#72ACC4" d="M672.592 925.199c65.746-14.187 124.242-47.798 168.85-94.394-5.201-4.967-30.44-27.376-78.581-46.153-17.937 51.953-46.134 104.384-90.269 140.547z"/><path fill="#81BEEA" d="M675.718 298.078c-.027-3.006.039-5.594.14-7.854a331.864 331.864 0 00-13.047-2.683c4.077 3.104 8.414 6.636 12.907 10.537z"/><path fill="#72ACC4" d="M675.718 298.078c-.027-3.006.039-5.594.14-7.854a331.864 331.864 0 00-13.047-2.683c4.077 3.104 8.414 6.636 12.907 10.537z"/><path fill="#81BEEA" d="M772.405 754.189c50.192 18.9 79.438 42.299 90.601 52.512C903.086 755.569 928.135 693 931.52 624h-82.114c-3.055 7-5.458 19.969-7.142 29.686-.868-3.972-3.264-8.446-3.264-12.521v-13.707c0 7.848-3.686 15.997-4.983 23.482-1.937-8.875-4.644-19.939-7.72-26.939H793.78c-1.431 20.999-6.202 75.024-21.375 130.188z"/><path fill="#72ACC4" d="M772.405 754.189c50.192 18.9 79.438 42.299 90.601 52.512C903.086 755.569 928.135 693 931.52 624h-82.114c-3.055 7-5.458 19.969-7.142 29.686-.868-3.972-3.264-8.446-3.264-12.521v-13.707c0 7.848-3.686 15.997-4.983 23.482-1.937-8.875-4.644-19.939-7.72-26.939H793.78c-1.431 20.999-6.202 75.024-21.375 130.188z"/><path fill="#81BEEA" d="M727.737 773.752C697.583 765.228 666 758.996 617 757.874v38.783l37.839 13.617s34.911 17.065-36.076 15.76l-1.763-.106V921.4c63-29.164 90.459-88.341 110.737-147.648z"/><path fill="#72ACC4" d="M727.737 773.752C697.583 765.228 666 758.996 617 757.874v38.783l37.839 13.617s34.911 17.065-36.076 15.76l-1.763-.106V921.4c63-29.164 90.459-88.341 110.737-147.648z"/><path fill="#81BEEA" d="M619.681 282.361v1.823l.906-1.754c-.334-.046-.572-.046-.906-.069z"/><path fill="#72ACC4" d="M619.681 282.361v1.823l.906-1.754c-.334-.046-.572-.046-.906-.069z"/><path fill="#81BEEA" d="M814.299 590c-7.096-14-15.213-33.454-23.515-49.224 1.71 15.612 2.892 35.224 3.329 49.224h20.186z"/><path fill="#72ACC4" d="M814.299 590c-7.096-14-15.213-33.454-23.515-49.224 1.71 15.612 2.892 35.224 3.329 49.224h20.186z"/><path fill="#81BEEA" d="M964.972 486.729c-.837-2.391-1.609-4.812-2.494-7.181-1.327-3.549-2.791-7.034-4.224-10.532-.86-2.099-1.656-4.229-2.553-6.31-1.586-3.674-3.306-7.279-5.008-10.893-.867-1.842-1.675-3.715-2.572-5.541-1.733-3.526-3.595-6.979-5.437-10.443-2.423 4.406-4.356 7.745-5.39 9.182 0 0-2.359 3.554-6.283 9.774 22.382 46.279 36.185 97.973 36.185 152.507C967.197 802.435 804 961.389 610 964.305V984h-2.444c84.987-7 163.291-30.87 226.319-77.524.052-.038.101-.883.153-.922 4.776-3.539 9.467-7.586 14.063-11.335.177-.145.348-.499.524-.644 4.466-3.655 8.85-7.501 13.139-11.348.284-.255.555-.573.838-.829a382.541 382.541 0 0012.238-11.544c.403-.397.785-.826 1.186-1.225a381.935 381.935 0 0011.277-11.673c.532-.577 1.036-1.182 1.565-1.763 3.5-3.839 6.946-7.727 10.284-11.705.624-.744 1.211-1.519 1.829-2.268 3.186-3.858 6.329-7.751 9.359-11.733.728-.957 1.408-1.95 2.127-2.914 2.856-3.83 5.683-7.682 8.391-11.62.805-1.17 1.551-2.38 2.343-3.56 2.544-3.791 5.071-7.593 7.476-11.478.865-1.398 1.662-2.84 2.508-4.25 2.242-3.732 4.48-7.466 6.591-11.279.893-1.614 1.708-3.275 2.577-4.903 1.964-3.676 3.935-7.348 5.776-11.094.902-1.836 1.714-3.72 2.586-5.573 1.696-3.601 3.409-7.193 4.99-10.854.909-2.107 1.716-4.264 2.586-6.39 1.422-3.473 2.876-6.931 4.193-10.455.892-2.387 1.669-4.825 2.512-7.234 1.165-3.331 2.375-6.642 3.446-10.013.834-2.626 1.543-5.302 2.318-7.952.943-3.222 1.941-6.423 2.797-9.68.752-2.864 1.369-5.778 2.053-8.668.734-3.099 1.531-6.175 2.185-9.304.663-3.169 1.177-6.387 1.757-9.584.527-2.907 1.127-5.789 1.584-8.718.549-3.517.939-7.082 1.386-10.63.336-2.662.754-5.298 1.032-7.978.434-4.181.695-8.411.986-12.631.144-2.088.375-4.152.484-6.249a369.471 369.471 0 000-38.292c-.109-2.097-.34-4.161-.484-6.249-.291-4.221-.551-8.45-.986-12.631-.278-2.679-.696-5.316-1.032-7.978-.448-3.548-.837-7.113-1.386-10.63-.458-2.929-1.057-5.811-1.584-8.718-.579-3.197-1.094-6.416-1.757-9.584-.656-3.137-1.455-6.22-2.191-9.328-.682-2.881-1.297-5.787-2.047-8.641-.861-3.274-1.862-6.491-2.811-9.729-.771-2.633-1.475-5.293-2.303-7.902-1.073-3.389-2.289-6.717-3.461-10.065z"/><path fill="#72ACC4" d="M964.972 486.729c-.837-2.391-1.609-4.812-2.494-7.181-1.327-3.549-2.791-7.034-4.224-10.532-.86-2.099-1.656-4.229-2.553-6.31-1.586-3.674-3.306-7.279-5.008-10.893-.867-1.842-1.675-3.715-2.572-5.541-1.733-3.526-3.595-6.979-5.437-10.443-2.423 4.406-4.356 7.745-5.39 9.182 0 0-2.359 3.554-6.283 9.774 22.382 46.279 36.185 97.973 36.185 152.507C967.197 802.435 804 961.389 610 964.305V984h-2.444c84.987-7 163.291-30.87 226.319-77.524.052-.038.101-.883.153-.922 4.776-3.539 9.467-7.586 14.063-11.335.177-.145.348-.499.524-.644 4.466-3.655 8.85-7.501 13.139-11.348.284-.255.555-.573.838-.829a382.541 382.541 0 0012.238-11.544c.403-.397.785-.826 1.186-1.225a381.935 381.935 0 0011.277-11.673c.532-.577 1.036-1.182 1.565-1.763 3.5-3.839 6.946-7.727 10.284-11.705.624-.744 1.211-1.519 1.829-2.268 3.186-3.858 6.329-7.751 9.359-11.733.728-.957 1.408-1.95 2.127-2.914 2.856-3.83 5.683-7.682 8.391-11.62.805-1.17 1.551-2.38 2.343-3.56 2.544-3.791 5.071-7.593 7.476-11.478.865-1.398 1.662-2.84 2.508-4.25 2.242-3.732 4.48-7.466 6.591-11.279.893-1.614 1.708-3.275 2.577-4.903 1.964-3.676 3.935-7.348 5.776-11.094.902-1.836 1.714-3.72 2.586-5.573 1.696-3.601 3.409-7.193 4.99-10.854.909-2.107 1.716-4.264 2.586-6.39 1.422-3.473 2.876-6.931 4.193-10.455.892-2.387 1.669-4.825 2.512-7.234 1.165-3.331 2.375-6.642 3.446-10.013.834-2.626 1.543-5.302 2.318-7.952.943-3.222 1.941-6.423 2.797-9.68.752-2.864 1.369-5.778 2.053-8.668.734-3.099 1.531-6.175 2.185-9.304.663-3.169 1.177-6.387 1.757-9.584.527-2.907 1.127-5.789 1.584-8.718.549-3.517.939-7.082 1.386-10.63.336-2.662.754-5.298 1.032-7.978.434-4.181.695-8.411.986-12.631.144-2.088.375-4.152.484-6.249a369.471 369.471 0 000-38.292c-.109-2.097-.34-4.161-.484-6.249-.291-4.221-.551-8.45-.986-12.631-.278-2.679-.696-5.316-1.032-7.978-.448-3.548-.837-7.113-1.386-10.63-.458-2.929-1.057-5.811-1.584-8.718-.579-3.197-1.094-6.416-1.757-9.584-.656-3.137-1.455-6.22-2.191-9.328-.682-2.881-1.297-5.787-2.047-8.641-.861-3.274-1.862-6.491-2.811-9.729-.771-2.633-1.475-5.293-2.303-7.902-1.073-3.389-2.289-6.717-3.461-10.065z"/><path fill="#81BEEA" d="M739.48 464.191C707.322 471.546 666 477.254 617 477.844V590h143.143c-1.337-49-9.881-90.61-20.663-125.809z"/><path fill="#72ACC4" d="M739.48 464.191C707.322 471.546 666 477.254 617 477.844V590h143.143c-1.337-49-9.881-90.61-20.663-125.809z"/><path fill="#81BEEA" d="M617 297.717v148.45c49-.528 79.338-4.596 107.582-10.493-11.087-18.514-29.251-52.356-29.251-52.356-4.322-9.246-8.68-18.126-11.394-26.599C656.433 321.754 631 304.049 617 297.717z"/><path fill="#72ACC4" d="M617 297.717v148.45c49-.528 79.338-4.596 107.582-10.493-11.087-18.514-29.251-52.356-29.251-52.356-4.322-9.246-8.68-18.126-11.394-26.599C656.433 321.754 631 304.049 617 297.717z"/><path fill="#81BEEA" d="M931.52 590c-1.732-35-9.304-69.6-21.755-101.27C894.059 516.159 874.718 555 860.318 590h71.202z"/><path fill="#72ACC4" d="M931.52 590c-1.732-35-9.304-69.6-21.755-101.27C894.059 516.159 874.718 555 860.318 590h71.202z"/><path fill="#81BEEA" d="M789.282 281.351c-.037-.02-.073-.042-.109-.063-3.093 4.889-5.294 10.387-6.467 16.255l.148.084c1.158-5.875 3.35-11.379 6.428-16.276z"/><path fill="#72ACC4" d="M789.282 281.351c-.037-.02-.073-.042-.109-.063-3.093 4.889-5.294 10.387-6.467 16.255l.148.084c1.158-5.875 3.35-11.379 6.428-16.276z"/><path fill="#81BEEA" d="M690.774 243.712c-26.402-6.004-52.774-9.444-80.774-9.831v16.475c21 .382 50.559 3.443 74.909 8.902 1.97-5.471 3.533-10.633 5.865-15.546z"/><path fill="#72ACC4" d="M690.774 243.712c-26.402-6.004-52.774-9.444-80.774-9.831v16.475c21 .382 50.559 3.443 74.909 8.902 1.97-5.471 3.533-10.633 5.865-15.546z"/><path fill="#003750" d="M931.52 590h-71.202c-4.12 13-7.807 20-10.912 34h82.114c-3.385 69-28.434 131.356-68.513 182.488-11.164-10.213-40.409-33.186-90.601-52.086C787.578 699.238 792.349 645 793.78 624h32.517c-3.453-14-7.513-21-11.998-34h-20.187c-.437-14-1.618-32.881-3.329-48.494-27.892-52.974-57.827-95.15-57.827-95.15-1.268-1.607-5.189-5.546-8.374-10.865C696.338 441.388 666 445.638 617 446.167v-148.45c14 6.332 39.768 24.037 67.273 59.002-7.835-24.456-9.107-45.137-9.225-58.641-4.492-3.901-8.494-7.433-12.572-10.537 4.381.807 8.896 1.707 13.215 2.683.26-5.82.86-9.131.86-9.131 1.8-7.753 5.243-15.004 7.703-21.835-24.35-5.459-53.253-8.52-74.253-8.902v541.773l7 4.528v-38.783c49 1.122 80.583 7.354 110.737 15.878C707.459 833.059 680 892.236 617 921.4v-95.472l-7-1.182v139.56c194-2.917 357.197-161.87 357.197-357.013 0-54.533-13.189-106.227-35.571-152.507-4.987 7.906-12.85 19.475-21.554 34.675C922.523 521.13 929.788 555 931.52 590zM619.681 282.361c.334.023.572.023.906.068l-.906 1.754v-1.822zM617 477.844c49-.589 90.322-6.298 122.48-13.652C750.262 499.39 758.806 541 760.143 590H617V477.844zm0 248.331V624h142.666c-1.622 21-7.592 69.294-21.237 119.59C705.414 734.368 666 727.343 617 726.175zm55.592 199.024c44.135-36.164 72.332-88.594 90.269-140.547 48.141 18.777 73.38 41.186 78.581 46.153-44.608 46.596-103.104 80.207-168.85 94.394z"/><path fill="#72ACC4" d="M931.52 590h-71.202c-4.12 13-7.807 20-10.912 34h82.114c-3.385 69-28.434 131.356-68.513 182.488-11.164-10.213-40.409-33.186-90.601-52.086C787.578 699.238 792.349 645 793.78 624h32.517c-3.453-14-7.513-21-11.998-34h-20.187c-.437-14-1.618-32.881-3.329-48.494-27.892-52.974-57.827-95.15-57.827-95.15-1.268-1.607-5.189-5.546-8.374-10.865C696.338 441.388 666 445.638 617 446.167v-148.45c14 6.332 39.768 24.037 67.273 59.002-7.835-24.456-9.107-45.137-9.225-58.641-4.492-3.901-8.494-7.433-12.572-10.537 4.381.807 8.896 1.707 13.215 2.683.26-5.82.86-9.131.86-9.131 1.8-7.753 5.243-15.004 7.703-21.835-24.35-5.459-53.253-8.52-74.253-8.902v541.773l7 4.528v-38.783c49 1.122 80.583 7.354 110.737 15.878C707.459 833.059 680 892.236 617 921.4v-95.472l-7-1.182v139.56c194-2.917 357.197-161.87 357.197-357.013 0-54.533-13.189-106.227-35.571-152.507-4.987 7.906-12.85 19.475-21.554 34.675C922.523 521.13 929.788 555 931.52 590zM619.681 282.361c.334.023.572.023.906.068l-.906 1.754v-1.822zM617 477.844c49-.589 90.322-6.298 122.48-13.652C750.262 499.39 758.806 541 760.143 590H617V477.844zm0 248.331V624h142.666c-1.622 21-7.592 69.294-21.237 119.59C705.414 734.368 666 727.343 617 726.175zm55.592 199.024c44.135-36.164 72.332-88.594 90.269-140.547 48.141 18.777 73.38 41.186 78.581 46.153-44.608 46.596-103.104 80.207-168.85 94.394z"/><path fill="#003750" d="M781.913 308.232c-.084-3.639.266-7.18.941-10.605l-.148-.084c-.69 3.451-1.05 7.02-.965 10.689.616 26.576 22.431 47.594 48.973 46.979-26.542.615-48.186-20.404-48.801-46.979z"/><path fill="#72ACC4" d="M781.913 308.232c-.084-3.639.266-7.18.941-10.605l-.148-.084c-.69 3.451-1.05 7.02-.965 10.689.616 26.576 22.431 47.594 48.973 46.979-26.542.615-48.186-20.404-48.801-46.979z"/><path fill="#003750" d="M839 260.052c0-.694-6.843-1.057-10.501-.972-16.628.386-31.02 9.164-39.268 22.192.037.02.048.041.085.062-.003.006-.018.012-.022.017a47.996 47.996 0 00-6.434 16.276c-.676 3.425-1.029 6.966-.944 10.605.616 26.576 22.357 47.594 48.898 46.979 2.888-.067 8.186-.432 8.186-.984v-94.175z"/><path fill="#F5DB39" d="M683.068 259.258a193.542 193.542 0 00-6.433 21.835s-.517 3.31-.776 9.131c-.101 2.26-.167 4.848-.14 7.854.118 13.503 2.061 34.185 9.896 58.641 2.714 8.473 6.067 17.353 10.388 26.599 0 0 18.834 33.842 29.921 52.356 3.185 5.319 5.765 9.44 7.034 11.047 0 0 29.935 42.541 57.827 95.515 8.303 15.77 16.419 32.447 23.515 49.224 4.486 10.604 8.546 21.233 11.998 31.688 3.077 9.314 5.783 18.491 7.72 27.366 1.297-7.484 4.983-15.208 4.983-23.055V354.227c0 .552-5.299.917-8.188.984-26.542.615-48.407-20.403-49.023-46.979a48.656 48.656 0 01.941-10.689c1.173-5.867 3.362-11.365 6.454-16.255.003-.005 0-.011.003-.016 8.247-13.028 22.686-21.807 39.314-22.192 3.658-.085 10.498.278 10.498.972V157.353c7 .475 22.662 2.051 39.672 7.18-29.907-10.66-54.207-10.134-54.207-10.134l.069.338c-9.365.442-95.804 6.577-134.943 88.903-.011.024-.028.049-.039.073a171.92 171.92 0 00-6.484 15.545z"/><path fill="#003750" d="M963.46 377.376s-15.226 29.921-25.711 49.369c.67 1.179 1.361 2.344 2.018 3.53.893 1.614 1.707 3.275 2.577 4.903.115.215.226.433.341.648 10.098-18.361 28.93-55.704 28.93-55.704 24.314-58.258 15.075-102.904 15.075-102.904-20.08-72.639-70.171-101.349-107.772-112.685 36.383 12.969 80.892 42.512 99.531 109.939 0 0 9.326 44.646-14.989 102.904z"/><path opacity=".17" fill="#211915" d="M963.46 377.376s-15.226 29.921-25.711 49.369c.67 1.179 1.361 2.344 2.018 3.53.893 1.614 1.707 3.275 2.577 4.903.115.215.226.433.341.648 10.098-18.361 28.93-55.704 28.93-55.704 24.314-58.258 15.075-102.904 15.075-102.904-20.08-72.639-70.171-101.349-107.772-112.685 36.383 12.969 80.892 42.512 99.531 109.939 0 0 9.326 44.646-14.989 102.904z"/><path fill="#81BEEA" d="M942.684 435.83l.002-.003c-.115-.215-.226-.433-.341-.648.115.216.225.435.339.651z"/><path opacity=".17" fill="#211915" d="M942.684 435.83l.002-.003c-.115-.215-.226-.433-.341-.648.115.216.225.435.339.651z"/><path fill="#81BEEA" d="M937.749 426.745a.82.82 0 01-.022.041c.666 1.172 1.386 2.31 2.039 3.49-.656-1.187-1.347-2.352-2.017-3.531z"/><path opacity=".17" fill="#211915" d="M937.749 426.745a.82.82 0 01-.022.041c.666 1.172 1.386 2.31 2.039 3.49-.656-1.187-1.347-2.352-2.017-3.531z"/><path fill="#003750" d="M939.767 430.276c.893 1.614 1.708 3.275 2.577 4.903-.869-1.628-1.683-3.289-2.577-4.903z"/><path fill="#72ACC4" d="M939.767 430.276c.893 1.614 1.708 3.275 2.577 4.903-.869-1.628-1.683-3.289-2.577-4.903z"/><path opacity=".17" fill="#211915" d="M939.767 430.276c.893 1.614 1.708 3.275 2.577 4.903-.869-1.628-1.683-3.289-2.577-4.903z"/><path fill="#81BEEA" d="M939.767 430.276c-.654-1.18-1.374-2.318-2.039-3.49-4.022 7.459-7.365 13.421-8.847 15.479 0 0-.885 1.287-2.414 3.577 1.54 2.967 3.087 5.93 4.545 8.945 3.924-6.22 6.283-9.774 6.283-9.774 1.034-1.437 2.966-4.776 5.39-9.182-.115-.216-.224-.435-.339-.651-.871-1.63-1.685-3.29-2.579-4.904z"/><path fill="#72ACC4" d="M939.767 430.276c-.654-1.18-1.374-2.318-2.039-3.49-4.022 7.459-7.365 13.421-8.847 15.479 0 0-.885 1.287-2.414 3.577 1.54 2.967 3.087 5.93 4.545 8.945 3.924-6.22 6.283-9.774 6.283-9.774 1.034-1.437 2.966-4.776 5.39-9.182-.115-.216-.224-.435-.339-.651-.871-1.63-1.685-3.29-2.579-4.904z"/><path opacity=".17" fill="#211915" d="M939.767 430.276c-.654-1.18-1.374-2.318-2.039-3.49-4.022 7.459-7.365 13.421-8.847 15.479 0 0-.885 1.287-2.414 3.577 1.54 2.967 3.087 5.93 4.545 8.945 3.924-6.22 6.283-9.774 6.283-9.774 1.034-1.437 2.966-4.776 5.39-9.182-.115-.216-.224-.435-.339-.651-.871-1.63-1.685-3.29-2.579-4.904z"/><path fill="#81BEEA" d="M909.765 489.46c-1.423-3.619-2.897-7.578-4.446-11.133C888.174 506.969 865.39 548 850.006 590h10.312c14.4-35 33.741-73.111 49.447-100.54z"/><path fill="#72ACC4" d="M909.765 489.46c-1.423-3.619-2.897-7.578-4.446-11.133C888.174 506.969 865.39 548 850.006 590h10.312c14.4-35 33.741-73.111 49.447-100.54z"/><path opacity=".17" fill="#211915" d="M909.765 489.46c-1.423-3.619-2.897-7.578-4.446-11.133C888.174 506.969 865.39 548 850.006 590h10.312c14.4-35 33.741-73.111 49.447-100.54z"/><path fill="#81BEEA" d="M842.264 653.686c1.684-9.717 4.086-22.686 7.142-29.686h-9.479c-.377 0-.928 2.028-.928 3.458v13.707c.001 4.075 2.398 8.549 3.265 12.521z"/><path fill="#72ACC4" d="M842.264 653.686c1.684-9.717 4.086-22.686 7.142-29.686h-9.479c-.377 0-.928 2.028-.928 3.458v13.707c.001 4.075 2.398 8.549 3.265 12.521z"/><path opacity=".17" fill="#211915" d="M842.264 653.686c1.684-9.717 4.086-22.686 7.142-29.686h-9.479c-.377 0-.928 2.028-.928 3.458v13.707c.001 4.075 2.398 8.549 3.265 12.521z"/><path fill="#003750" d="M905.319 479.421a321.996 321.996 0 014.446 10.768c8.704-15.2 16.259-27.498 21.247-35.404-1.458-3.014-3.004-5.977-4.545-8.945-3.736 5.596-11.535 17.521-21.148 33.581z"/><path fill="#72ACC4" d="M905.319 479.421a321.996 321.996 0 014.446 10.768c8.704-15.2 16.259-27.498 21.247-35.404-1.458-3.014-3.004-5.977-4.545-8.945-3.736 5.596-11.535 17.521-21.148 33.581z"/><path opacity=".17" fill="#211915" d="M905.319 479.421a321.996 321.996 0 014.446 10.768c8.704-15.2 16.259-27.498 21.247-35.404-1.458-3.014-3.004-5.977-4.545-8.945-3.736 5.596-11.535 17.521-21.148 33.581z"/><path fill="#003750" d="M860.318 590h-10.312c-3.916 13-7.341 20-10.078 34h9.479c3.104-14 6.791-21 10.911-34z"/><path fill="#72ACC4" d="M860.318 590h-10.312c-3.916 13-7.341 20-10.078 34h9.479c3.104-14 6.791-21 10.911-34z"/><path opacity=".17" fill="#211915" d="M860.318 590h-10.312c-3.916 13-7.341 20-10.078 34h9.479c3.104-14 6.791-21 10.911-34z"/><path fill="#003750" d="M877.552 306.004c-.53-22.883-17.552-41.609-38.552-45.952v94.175c21-4.522 39.1-24.54 38.552-48.223z"/><path opacity=".17" fill="#211915" d="M877.552 306.004c-.53-22.883-17.552-41.609-38.552-45.952v94.175c21-4.522 39.1-24.54 38.552-48.223z"/><path fill="#F5DB39" d="M839 260.052c21 4.343 38.022 23.069 38.552 45.952C878.1 329.687 860 349.705 839 354.227v273.231c0-1.429.649-2.873 1.026-4.31 2.737-10.43 6.113-21.057 10.029-31.688 15.384-41.756 38.144-83.396 55.288-112.038 9.614-16.061 17.4-27.985 21.136-33.581a509.76 509.76 0 012.407-3.577c1.482-2.058 4.822-8.019 8.844-15.479l.02-.041c10.485-19.449 25.71-49.369 25.71-49.369 24.315-58.258 14.988-102.904 14.988-102.904-18.639-67.427-63.393-96.97-99.777-109.939-17.01-5.129-32.672-6.705-39.672-7.18v102.7z"/><path opacity=".17" fill="#211915" d="M839 260.052c21 4.343 38.022 23.069 38.552 45.952C878.1 329.687 860 349.705 839 354.227v273.231c0-1.429.649-2.873 1.026-4.31 2.737-10.43 6.113-21.057 10.029-31.688 15.384-41.756 38.144-83.396 55.288-112.038 9.614-16.061 17.4-27.985 21.136-33.581a509.76 509.76 0 012.407-3.577c1.482-2.058 4.822-8.019 8.844-15.479l.02-.041c10.485-19.449 25.71-49.369 25.71-49.369 24.315-58.258 14.988-102.904 14.988-102.904-18.639-67.427-63.393-96.97-99.777-109.939-17.01-5.129-32.672-6.705-39.672-7.18v102.7z"/><path fill="#E2583D" d="M440.016 890.659c1.887-30.433 3.262-60.216 3.975-78.572.043-1.093.089-2.251.126-3.259l37.174 3.621 103.132 10.045 23.121 2.252 12.136 1.182 1.092.106c70.987 1.305 35.406-15.76 35.406-15.76l-36.499-13.617-12.136-4.528-23.121-8.625-55.133-20.568-57.597-21.488-17.309-6.457-10.051-3.75-.19-45.098-.141-33.474c-.016-4.245-2.774-16.503-6.719-29.522-5.503-18.162-13.333-37.818-19.401-39.375-6.108 1.204-14.306 21.026-20.09 39.375-4.133 13.111-7.043 25.477-7.032 29.728l.338 79.037-79.07 30.218-31.578 12.068-17.877 6.832-81.524 31.157s-35.415 17.315 35.544 15.482l70.432-7.428 21.42-2.259 70.322-7.417 13.119-1.384c.542 12.082 1.465 30.38 2.682 50.843a3192.994 3192.994 0 002.788 42.389c.538 7.378 1.103 14.695 1.695 21.817.86 10.342 1.771 20.265 2.73 29.251l-64.973 33.831s-12.284 8.226 12.367 7.372l57.333-8.148c1.357 6.376 2.754 10.181 4.168 10.179l3.083-.019 1.776 27.852c.046.7 1.439 1.252 3.116 1.252 1.679 0 3.074-.551 3.113-1.252l1.78-27.923 2.972-.038c1.447.021 2.862-3.875 4.17-10.378l58.857 7.93c24.668.643 12.283-7.488 12.283-7.488l-66.574-34.017c.272-2.736.538-5.563.8-8.451.535-5.896 1.049-12.082 1.542-18.445.882-11.35 1.689-23.249 2.423-35.079z"/></svg>