<svg viewBox="0 0 32 32" xmlns="http://www.w3.org/2000/svg"><defs><style>.cls-1{fill:#ffe400}.cls-2{fill:#272727}</style></defs><g id="CCTV"><path class="cls-1" d="M3 27a1 1 0 01-.27-2l7-2a1 1 0 01.54 2l-7 2A.84.84 0 013 27zm9-5a1 1 0 01-1-1v-7a1 1 0 012 0v7a1 1 0 01-1 1zm12-10h-2a1 1 0 010-2h2a1 1 0 010 2z"/><path class="cls-2" d="M22 7H12a1 1 0 00-.89.55L10.38 9H6a1 1 0 00-1 1v4a1 1 0 001 1h16a1 1 0 001-1V8a1 1 0 00-1-1zM3 30a1 1 0 01-1-1v-6a1 1 0 012 0v6a1 1 0 01-1 1z"/><path class="cls-1" d="M29.87 2.51A1 1 0 0029 2H3a1 1 0 00-1 1v7a1 1 0 001 1h8a1 1 0 00.89-.55L12.62 9H26a1 1 0 00.86-.49l3-5a1 1 0 00.01-1z"/><circle class="cls-2" cx="12" cy="23" r="3"/></g></svg>