<svg viewBox="0 0 32 32" xmlns="http://www.w3.org/2000/svg"><g fill="#ffe400"><path d="M15.64 25.48c.12.04.24.06.36.06s.24-.01.35-.06c.1-.03 9.54-3.37 9.54-13.6C25.89 6.44 21.45 2 16 2s-9.89 4.44-9.89 9.88c0 10.23 9.44 13.57 9.53 13.6zM16 6.51c2.94 0 5.33 2.39 5.33 5.33 0 2.93-2.39 5.33-5.33 5.33s-5.33-2.4-5.33-5.33c0-2.94 2.39-5.33 5.33-5.33z"/><path d="M21.82 23.82c-.51-.33-1.2-.18-1.53.33-.33.51-.18 1.2.33 1.53.41.26.54.48.54.55 0 .4-1.78 1.56-5.17 1.56-3.39 0-5.16-1.16-5.16-1.56 0-.07.13-.29.54-.55.51-.33.66-1.01.33-1.53a1.11 1.11 0 00-1.53-.33c-1.29.83-1.56 1.77-1.56 2.41C8.62 28.7 12.33 30 16 30c3.67 0 7.38-1.3 7.38-3.77 0-.64-.27-1.59-1.56-2.41z"/></g></svg>