<?xml version="1.0" ?><svg viewBox="0 0 32 32" xmlns="http://www.w3.org/2000/svg"><defs><style>.cls-1{fill:#FFE400;}.cls-2{fill:#272727;}</style></defs><title/><g id="CCTV"><path class="cls-1" d="M3,27a1,1,0,0,1-.27-2l7-2A1,1,0,0,1,10.27,25l-7,2A.84.84,0,0,1,3,27Z"/><path class="cls-1" d="M12,22a1,1,0,0,1-1-1V14a1,1,0,0,1,2,0v7A1,1,0,0,1,12,22Z"/><path class="cls-1" d="M24,12H22a1,1,0,0,1,0-2h2a1,1,0,0,1,0,2Z"/><path class="cls-2" d="M22,7H12a1,1,0,0,0-.89.55L10.38,9H6a1,1,0,0,0-1,1v4a1,1,0,0,0,1,1H22a1,1,0,0,0,1-1V8A1,1,0,0,0,22,7Z"/><path class="cls-2" d="M3,30a1,1,0,0,1-1-1V23a1,1,0,0,1,2,0v6A1,1,0,0,1,3,30Z"/><path class="cls-1" d="M29.87,2.51A1,1,0,0,0,29,2H3A1,1,0,0,0,2,3v7a1,1,0,0,0,1,1h8a1,1,0,0,0,.89-.55L12.62,9H26a1,1,0,0,0,.86-.49l3-5A1,1,0,0,0,29.87,2.51Z"/><circle class="cls-2" cx="12" cy="23" r="3"/></g></svg>